<svg width="260" height="260" viewBox="0 0 260 260" fill="none" xmlns="http://www.w3.org/2000/svg">
<path d="M231.108 192.557C226.901 190.423 224.024 188.473 219.143 189.095C214.261 189.717 209.03 196.867 209.609 202.568C206.459 199.071 208.228 197.418 209.1 193.723C210.417 188.148 210.468 180.08 216.546 178.497C219.767 177.663 222.408 180.786 224.89 181.945C226.392 182.644 227.964 182.461 229.548 183.704C232.304 185.866 232.26 189.37 231.108 192.557Z" fill="#D9D8F3"/>
<path d="M231.108 192.558C228.893 198.677 216.247 207.353 210.519 203.665C209.972 203.311 209.915 202.902 209.609 202.57C209.03 196.868 214.045 189.739 219.143 189.096C224.241 188.453 226.901 190.425 231.108 192.558Z" fill="#AE9BCF"/>
<path d="M16.4919 152.915C18.0194 145.306 12.2598 146.097 7.4802 147.143C6.6083 144.317 6.15643 142.275 8.51121 140.014C14.5636 134.2 24.6191 148.606 16.4983 152.922L16.4919 152.915Z" fill="#D9D8F3"/>
<path d="M9.90492 124.047C9.51034 122.959 8.77213 122.443 8.84214 120.783C9.09035 114.735 20.8323 110.538 21.3415 116.967C21.5833 120.006 20.4123 124.054 19.2667 126.746C18.3312 122.047 12.2406 118.706 9.90492 124.054V124.047Z" fill="#D9D8F3"/>
<path d="M206.491 213.725C203.76 209.047 197.345 209.132 194.354 213.343C194.246 213.237 193.724 213.272 193.304 212.792C188.327 207.09 202.112 200.237 205.523 206.144C206.58 207.966 206.771 211.626 206.491 213.732V213.725Z" fill="#D9D7F3"/>
<path d="M206.491 213.725C206.121 216.445 203.137 218.367 200.807 218.304C198.841 218.254 195.92 214.856 194.36 213.337C197.352 209.133 203.767 209.041 206.497 213.718L206.491 213.725Z" fill="#AE9BCF"/>
<path d="M19.2667 126.737C18.7194 128.016 18.6239 129.274 17.3638 130.206C13.227 133.258 11.1078 127.352 9.90491 124.046C12.2342 118.697 18.3312 122.039 19.2667 126.737Z" fill="#AE9BCF"/>
<path d="M16.4919 152.914C11.8396 155.387 8.89939 151.741 7.48016 147.142C12.2597 146.096 18.0193 145.305 16.4919 152.914Z" fill="#AE9BD0"/>
<path d="M19.8522 102.222C23.7663 106.263 16.0082 111.64 13.3607 107.69C10.5477 103.487 17.2302 99.516 19.8522 102.222Z" fill="#D9D8F3"/>
<path d="M233.469 176.696C235.462 176.696 237.077 174.903 237.077 172.691C237.077 170.478 235.462 168.685 233.469 168.685C231.476 168.685 229.86 170.478 229.86 172.691C229.86 174.903 231.476 176.696 233.469 176.696Z" fill="#D9D8F3"/>
<path d="M1.0013 132.009C-2.18083 128.837 2.92972 123.107 6.45552 126.915C9.65674 130.377 4.44437 135.435 1.0013 132.009Z" fill="#D9D8F3"/>
<path d="M240.469 84.7857C242.366 90.996 241.634 98.0117 239.146 103.911C237.052 108.871 231.706 114.014 227.989 117.702C198.077 147.376 159.815 166.332 122.158 180.731C95.1669 191.053 55.664 205.049 27.5085 197.072C25.8283 196.599 22.8944 194.925 21.6788 193.54C18.2294 189.598 18.6176 183.663 17.5356 178.703C24.7361 152.802 23.6782 162.818 27.5085 177C30.3442 187.5 40.2815 189.675 48.5169 188.658C68.6089 186.185 95.5551 176.619 115.221 169.949C135.332 163.131 153.591 154.378 172.741 144.896C186.354 138.156 196.855 133.246 208.724 122.874C215.292 117.13 228.937 105.013 230.376 95.7226C231.673 87.3578 223 73.5 240.463 84.7857H240.469Z" fill="#D9D8F3"/>
<path d="M247.056 90.5586C247.343 94.0276 247.661 96.6629 246.815 100.104C242.665 117.004 221.046 135.154 208.476 144.911C203.9 148.465 198.58 152.527 193.673 155.417C177.336 165.033 156.97 175.115 139.812 182.999C133.263 186.009 126.969 187.761 120.325 190.234C113.922 192.615 106.89 195.921 100.551 197.914C86.4161 202.358 64.9176 206.618 50.2988 207.558C38.9641 208.286 29.0422 206.378 19.2731 199.864C15.27 193.922 15.6073 185.635 17.542 178.697C18.6239 183.649 18.2421 189.591 21.6852 193.533C22.9007 194.925 25.8347 196.593 27.5148 197.066C55.6703 205.043 95.1733 191.046 122.164 180.724C159.821 166.318 198.077 147.37 227.995 117.696C231.712 114.008 237.058 108.872 239.152 103.905C241.64 98.0053 242.372 90.9966 240.476 84.7793C243.321 86.6728 245.039 87.3086 247.063 90.5515L247.056 90.5586Z" fill="#7874E3"/>
<path d="M19.2667 199.871C29.0358 206.385 38.9577 208.292 50.2925 207.565C64.9112 206.625 86.4161 202.365 100.545 197.921C106.884 195.928 113.916 192.622 120.318 190.241C126.963 187.768 133.257 186.016 139.806 183.006C156.964 175.121 177.323 165.046 193.667 155.424C198.573 152.534 203.894 148.472 208.47 144.918C221.039 135.161 242.659 117.01 246.808 100.11C247.655 96.6697 247.336 94.0344 247.05 90.5654C251.957 98.429 248.418 108.914 243.575 115.767C228.314 137.358 206.261 152.287 184.878 165.301C152.808 184.815 119.084 197.638 83.4121 206.618C71.861 209.529 60.4817 211.768 48.5805 212.206C38.8496 212.567 25.3318 208.858 19.2667 199.871Z" fill="#B58DF9"/>
</svg>
