<svg width="260" height="260" viewBox="0 0 260 260" fill="none" xmlns="http://www.w3.org/2000/svg">
<path d="M231.521 50.3905C230.308 54.029 229.524 57.8168 228.143 61.4117C226.607 65.4047 223.218 72.6132 219.834 75.1259C215.064 78.671 207.158 78.4533 202.046 75.8038C201.604 75.244 201.486 75.1632 201.032 74.448C206.53 66.6548 206.835 47.5731 193.096 49.4016C188.947 49.9552 184.55 55.416 182.056 58.5196C174.574 54.3773 166.513 41.198 172.577 33.2867C181.807 21.2455 207.936 21.2891 221.09 25.7547C234.002 30.1396 232.18 39.1144 231.521 50.3905Z" fill="#FEFEFE"/>
<path d="M201.026 74.4484C198.153 69.9765 197.991 67.6193 193.395 63.9497C189.737 61.0327 185.875 60.6409 182.05 58.52C184.544 55.4165 188.941 49.9494 193.09 49.4021C206.823 47.5735 206.524 66.649 201.026 74.4484Z" fill="#FECBD1"/>
<path d="M202.046 75.8039C207.159 78.4534 215.064 78.6711 219.834 75.126C223.218 72.6132 226.607 65.4048 228.144 61.4118C229.524 57.8169 230.308 54.0291 231.521 50.3906C230.911 60.8271 231.757 80.8107 219.249 84.7041C212.408 86.8375 205.89 80.7111 202.046 75.7976V75.8039Z" fill="#F0D9D9"/>
<path d="M79.0467 58.5261C74.9169 53.0279 67.7892 45.6328 60.5807 51.0749C54.4046 55.7334 55.7729 68.8506 60.0706 74.4544C59.6415 75.1199 59.486 75.2629 59.0569 75.8103C53.2353 78.4722 45.9583 78.8144 40.7586 74.6286C36.6288 71.3011 32.723 61.2378 31.1867 56.0817C30.4963 53.7556 30.1853 51.2927 29.2461 49.0474C28.6863 38.076 28.0458 29.835 40.0185 25.7674C53.1793 21.3018 79.3017 21.2582 88.5316 33.2994C94.5958 41.2107 86.5289 54.3963 79.0529 58.5323L79.0467 58.5261Z" fill="#FEFEFE"/>
<path d="M79.0467 58.5263C75.2217 60.6472 71.3593 61.039 67.7021 63.956C63.0996 67.6255 62.9565 69.9828 60.0706 74.4546C55.7729 68.857 54.4046 55.7336 60.5807 51.0751C67.7892 45.633 74.9169 53.0344 79.0467 58.5263Z" fill="#FECBD1"/>
<path d="M59.0569 75.8048C56.0902 79.5864 49.8953 85.5074 44.6522 85.3146C40.1492 85.1467 35.4783 81.3838 33.5191 77.4593C30.4155 71.2397 29.6069 56.2878 29.2399 49.042C30.1853 51.2873 30.4901 53.7502 31.1805 56.0763C32.7168 61.2324 36.6226 71.3019 40.7525 74.6232C45.9583 78.809 53.2291 78.4668 59.0507 75.8048H59.0569Z" fill="#F0D9D9"/>
</svg>
