<svg width="260" height="260" viewBox="0 0 260 260" fill="none" xmlns="http://www.w3.org/2000/svg">
<path d="M34.6864 211.203C34.297 210.914 33.0549 211.525 32.3901 211.492C24.1718 211.096 17.5381 203.623 22.359 195.686C22.7685 195.015 24.729 192.927 24.7827 192.645C24.8633 192.242 23.8563 189.664 23.7623 188.67C22.4195 175.08 37.0567 166.157 48.7463 173.556C50.0288 174.368 52.9294 177.705 53.2785 177.806C54.7758 178.242 57.3541 177.699 59.2542 178.048C67.3987 179.532 71.0043 190.637 65.4583 196.72C67.7613 198.439 70.4874 200.944 70.5881 204.046C70.6552 206.053 67.9358 210.572 67.11 212.647C64.7197 215.265 62.8262 213.99 60.2681 214.299C59.4019 214.399 55.6889 215.037 55.0914 215.259C54.0305 215.662 52.9831 219.704 48.7732 220.281C42.3879 221.161 38.9769 217.092 35.2841 212.613C34.9551 212.21 34.7938 211.29 34.6797 211.21L34.6864 211.203ZM49.7266 183.728C47.2423 174.241 32.0813 178.86 33.2899 188.274C33.4041 189.153 34.532 191.248 34.1963 191.779C33.9948 192.094 32.0947 192.88 31.4166 193.417C26.4278 197.358 29.3956 202.334 35.0826 202.387C34.0083 207.269 38.809 214.48 44.1201 211.606C45.3622 210.935 47.4236 208.021 47.7661 207.913C48.5382 207.658 51.2172 208.86 52.4594 208.967C59.6639 209.578 63.5313 203.401 58.4754 197.815C59.637 196.217 61.0202 195.471 61.6782 193.323C64.0215 185.709 56.4678 181.049 49.7199 183.728H49.7266Z" fill="#FE771A"/>
<path d="M25.4608 162.277C25.9039 162.713 26.0651 163.553 26.515 163.962C27.079 164.479 27.8108 164.473 28.5158 165.251C28.9388 165.721 30.5839 168.421 30.6108 168.985C30.7048 171.093 28.019 170.751 27.5691 171.664C27.2401 172.342 28.6366 175.101 25.9576 175.9C22.9697 176.793 21.2643 173.141 20.9622 173.094C20.1565 172.966 18.901 174.155 17.7125 174.242C13.6705 174.531 12.9453 169.717 14.8119 166.923C15.4766 165.93 16.5174 165.621 17.1821 164.902C17.5379 164.513 17.6184 163.761 18.0683 163.23C19.7603 161.23 23.4465 160.276 25.4608 162.277Z" fill="#FEA246"/>
<path d="M77.5641 223.197C77.8461 223.553 81.774 223.452 81.0287 226.178C80.1692 229.327 75.5767 226.695 74.3547 226.608C73.4617 226.541 73.1596 227.662 71.575 226.816C70.6551 226.326 69.6546 224.372 69.5941 223.372C69.5069 221.975 71.4541 218.242 73.0185 218.215C73.6094 218.201 76.886 220.719 77.1881 221.196C77.6782 221.968 77.403 222.989 77.5709 223.197H77.5641Z" fill="#FEA246"/>
<path d="M11.9515 185.637C12.7976 185.455 16.2353 186.046 16.6314 186.651C17.7796 188.39 14.6574 191.888 12.9049 192.056C10.1453 192.311 8.50037 186.369 11.9448 185.643L11.9515 185.637Z" fill="#FEA246"/>
<path d="M49.7264 183.729C56.4743 181.043 64.028 185.71 61.6847 193.324C61.0199 195.472 59.6435 196.218 58.4819 197.816C63.5311 203.402 59.6704 209.579 52.4659 208.968C51.2237 208.861 48.5446 207.659 47.7724 207.914C47.43 208.028 45.3687 210.936 44.1266 211.607C38.8155 214.481 34.0148 207.27 35.0891 202.388C29.4021 202.335 26.4343 197.359 31.4231 193.418C32.1012 192.881 34.0013 192.095 34.2028 191.78C34.5385 191.249 33.4039 189.148 33.2964 188.275C32.0811 178.861 47.2488 174.242 49.7331 183.729H49.7264ZM49.451 204.49C50.8543 206.242 57.75 206.276 57.4008 202.61C57.1323 199.81 52.8417 199.897 52.976 197.453C53.0902 195.452 56.857 195.405 58.0857 193.015C60.7916 187.744 54.0436 184.199 50.4649 187.59C49.4309 188.57 49.76 191.209 47.0339 190.262C45.1069 189.591 46.9868 186.589 46.772 185.045C46.0065 179.486 36.0492 182.144 36.5662 187.529C36.6065 187.919 37.5332 190.578 37.6675 190.678C37.842 190.813 40.38 189.53 41.1186 191.048C41.414 191.645 41.461 195.002 41.1387 195.459C40.1249 196.903 37.6876 194.942 36.996 194.767C34.2834 194.076 29.2879 199.347 35.6263 199.125C37.4861 199.058 39.5474 196.372 40.9641 198.145C42.5823 200.166 39.5877 201.039 38.9364 202.039C37.2377 204.658 40.0578 209.881 42.3877 208.787C43.1598 208.424 44.986 206.014 45.3419 205.148C45.8723 203.852 45.6374 200.925 48.2493 202.2C49.196 202.664 49.0617 204.006 49.4444 204.483L49.451 204.49Z" fill="#FE9726"/>
<path d="M49.4511 204.49C49.0751 204.013 49.2028 202.67 48.2561 202.207C45.6442 200.931 45.8791 203.859 45.3487 205.155C44.9929 206.021 43.1733 208.431 42.3945 208.794C40.0713 209.882 37.2445 204.665 38.9432 202.046C39.5945 201.046 42.5891 200.173 40.971 198.152C39.5542 196.379 37.4997 199.072 35.6331 199.132C29.2948 199.354 34.2902 194.09 37.0028 194.774C37.6877 194.949 40.125 196.91 41.1455 195.466C41.4678 195.009 41.4141 191.652 41.1254 191.055C40.3801 189.531 37.8488 190.82 37.6743 190.685C37.54 190.585 36.6066 187.933 36.573 187.536C36.056 182.151 46.0134 179.486 46.7788 185.052C46.9936 186.59 45.1137 189.598 47.0407 190.269C49.76 191.216 49.4377 188.577 50.4717 187.597C54.0504 184.206 60.7984 187.751 58.0925 193.022C56.8705 195.412 53.097 195.453 52.9828 197.46C52.8485 199.904 57.1391 199.817 57.4076 202.617C57.7568 206.276 50.8544 206.249 49.4578 204.497L49.4511 204.49Z" fill="#FE771A"/>
<path d="M198.228 195.077C198.127 193.982 198.63 192.78 199.322 191.968C200.067 191.088 200.913 191.055 201.41 190.578C203.142 188.913 203.357 187.523 206.251 186.825C207.258 186.583 208.266 186.832 209.185 186.469C210.696 185.878 214.429 182.44 215.772 181.353C217.296 180.117 220.217 178.466 222.178 178.251C228.67 177.539 232.095 183.159 228.523 188.611C227.717 189.84 225.897 190.934 225.28 191.955C224.789 192.76 224.843 193.573 224.199 194.533C222.386 197.239 217.478 200.099 214.322 198.004C213.697 202.12 210.132 201.308 207.52 202.362C205.573 203.147 199.98 208.942 199.678 210.983C199.597 211.54 199.664 211.621 200.222 211.527C204.687 208.714 209.38 206.451 214.315 204.584C212.939 205.847 211.146 206.612 209.602 207.733C204.183 211.655 194.763 221.887 191.574 227.742C190.446 229.81 190.734 232.059 187.988 233.295C185.497 234.423 184.537 233.154 182.274 232.791C176.352 231.845 170.652 231.811 164.481 230.468C161.178 229.75 160.399 227.97 157.995 226.164C157.888 230.085 154.517 232.771 151.173 234.161C147.131 235.833 142.962 235.88 138.819 236.437C137.644 236.598 136.469 237.391 135.314 237.505C135.71 236.35 136.785 234.389 137.51 233.483C137.557 233.422 138.356 233.308 138.812 232.778C139.477 231.999 140.357 229.958 141.169 229.454C142.042 228.91 144.936 228.749 145.56 227.991C146.48 235.188 152.523 234.127 156.102 229.206C160.406 223.29 153.987 218.658 149.582 222.136C149.502 220.538 149.743 218.879 149.495 217.288C149.273 215.858 147.944 213.729 147.756 212.628C147.387 210.486 147.924 207.498 148.118 205.316C147.373 204.584 143.821 207.189 143.002 207.512C142.183 207.834 139.987 208.552 139.343 207.874C140.968 204.551 141.538 203.812 144.493 201.502C145.198 200.952 146.171 200.791 146.843 200.193C148.649 198.588 149.085 195.836 152.409 195.151C155.417 194.533 155.793 195.178 157.633 196.896L154.698 198.904C152.248 201.925 147.38 205.954 150.012 210.191C151.516 212.608 155.336 213.199 157.263 211.164C157.968 212.48 158.445 213.937 158.687 215.408C158.962 217.06 158.741 221.061 159.15 222.263C159.318 222.753 160.735 223.465 161.218 223.552C162.037 223.693 162.299 223.243 162.386 223.237C164.495 223.163 166.563 223.035 168.604 222.505C169.557 223.854 172.156 225.15 173.532 226.171C176.131 228.091 176.735 229.944 180.824 229.421C182.066 229.26 185.517 227.494 185.779 226.319C185.907 225.741 181.583 223.599 180.67 222.324C179.998 221.384 179.662 219.356 179.541 219.248C179.273 219.027 177.594 219.53 176.46 218.49C173.264 215.569 177.024 207.774 179.212 204.947C178.266 204.262 173.25 206.39 172.263 207.136C172.908 201.288 177.171 197.81 180.676 193.788C181.328 193.042 181.636 191.84 182.362 191.082C183.657 189.712 185.443 189.276 187.263 189.215C191.399 189.088 195.502 191.498 194.051 196.185C193.205 198.904 190.13 198.515 188.525 199.434C187.82 199.844 184.812 202.745 184.188 203.51C183.637 204.181 181.771 206.995 181.784 207.7C181.804 208.351 182.657 208.808 182.952 209.439C184.725 213.266 182.033 216.475 178.125 216.825C179.152 217.926 180.408 218.597 181.422 219.752C181.838 220.229 182.066 221.343 182.395 221.424C183.207 221.625 185.202 221.034 186.363 221.008C187.303 220.987 188.626 221.545 189.217 221.431C189.492 221.377 192.064 217.516 192.762 217.019C191.325 217.127 190.009 216.959 188.74 216.287C188.734 213.857 189.405 214.575 189.996 213.34C191.594 209.969 192.527 205.585 196.851 204.47C197.925 204.195 199.335 204.396 200.081 204.04C200.463 203.859 203.344 199.293 204.27 198.353C205.586 197.011 208.071 195.245 209.709 194.285C210.743 193.674 216.739 191.196 216.867 190.82C217.491 189.027 214.94 186.684 213.342 186.375C209.944 185.724 203.814 191.31 201.155 193.405C200.484 193.935 198.758 194.627 198.254 195.077H198.228Z" fill="#FEBE2C"/>
<path d="M226.756 200.925C225.252 201.16 223.815 201.651 222.365 202.02C219.599 202.725 216.994 203.564 214.315 204.578C209.38 206.445 204.686 208.707 200.221 211.521C199.664 211.615 199.59 211.534 199.678 210.977C199.98 208.936 205.573 203.141 207.52 202.356C210.132 201.301 213.697 202.107 214.321 197.998C217.47 200.093 222.379 197.233 224.198 194.527C224.843 193.567 224.789 192.761 225.279 191.948C225.897 190.928 227.717 189.833 228.522 188.605C232.101 183.146 228.67 177.533 222.177 178.244C220.217 178.459 217.296 180.111 215.772 181.346C214.429 182.434 210.689 185.872 209.185 186.463C208.258 186.825 207.258 186.577 206.251 186.819C203.357 187.517 203.142 188.9 201.41 190.572C200.913 191.049 200.067 191.089 199.322 191.962C198.63 192.781 198.133 193.983 198.227 195.071C197.75 195.487 196.596 196.977 196.032 197.629C191.775 198.394 189.546 202.221 189.814 206.404C188.337 208.513 185.248 211.501 185.074 213.945C184.899 216.389 186.679 218.443 189.082 218.47C188.928 217.705 188.72 217.08 188.72 216.281C189.989 216.959 191.311 217.127 192.742 217.013C192.043 217.51 189.478 221.371 189.196 221.424C188.606 221.539 187.283 220.988 186.343 221.001C185.181 221.021 183.187 221.619 182.375 221.418C182.046 221.337 181.817 220.222 181.401 219.746C180.387 218.591 179.138 217.919 178.104 216.818C182.012 216.469 184.704 213.26 182.932 209.433C182.636 208.801 181.784 208.345 181.764 207.694C181.743 206.989 183.617 204.175 184.167 203.504C184.792 202.738 187.8 199.838 188.505 199.428C190.103 198.508 193.185 198.898 194.031 196.178C195.488 191.492 191.379 189.081 187.243 189.209C187.639 188.504 188.196 187.799 189.069 187.745C189.72 188.35 192.312 188.598 193.252 188.45C194.756 188.215 195.468 186.966 196.28 186.725C196.925 186.537 197.71 186.758 198.315 186.564C201.92 185.395 202.578 183.327 202.236 179.695C210.87 175.941 220.123 172.322 229.67 172.014C229.825 170.335 227.602 169.234 226.206 169.079C224.259 168.865 216.027 170.006 213.946 170.55C217.491 168.213 223.077 169.281 225.649 165.427C228.616 165.722 233.612 167.864 234.619 170.906C235.7 174.176 235.969 176.949 235.217 180.299C234.807 182.112 234.619 182.649 234.33 184.536C233.746 188.363 231.994 188.417 230.624 191.069C229.012 194.198 229.368 198.28 226.75 200.912L226.756 200.925Z" fill="#FEE48B"/>
<path d="M225.662 165.447C223.091 169.301 217.497 168.226 213.959 170.57C211.582 171.188 210.575 173.141 208.554 174.128C207.077 174.854 202.645 175.639 201.88 176.237C201.027 176.908 202.175 178.922 202.249 179.715C202.592 183.347 201.927 185.408 198.328 186.583C197.724 186.778 196.938 186.557 196.294 186.745C195.481 186.986 194.77 188.235 193.266 188.47C192.326 188.618 189.734 188.369 189.083 187.765C188.431 187.161 187.458 184.019 187.619 183.011C187.907 181.239 189.888 179.446 191.271 178.439C190.07 177.747 188.236 177.365 187.981 175.7C191.654 172.611 192.695 173.047 196.287 171.02C197.63 170.268 198.603 168.918 200.282 168.059C203.532 166.393 209.434 165.252 213.147 164.466C215.315 164.003 217.363 163.97 219.532 164.453C222.13 165.03 222.903 165.185 225.662 165.453V165.447Z" fill="#FEBE2C"/>
<path d="M187.988 175.685C188.243 177.357 190.076 177.733 191.278 178.425C189.895 179.439 187.907 181.225 187.625 182.997C185.598 184.3 183.368 185.414 181.435 186.865C176.063 190.907 161.064 209.754 160.224 216.126C159.855 218.953 160.332 221.249 162.386 223.23C162.299 223.23 162.037 223.686 161.218 223.545C160.735 223.458 159.318 222.746 159.15 222.256C158.74 221.054 158.962 217.052 158.687 215.401C158.438 213.93 157.961 212.473 157.263 211.157C157.807 210.587 158.727 208.693 159.089 207.867C159.244 207.773 159.338 207.585 159.452 207.505C161.319 206.135 163.83 203.409 162.742 200.918C164.77 198.628 164.669 197.044 166.408 194.888C167.362 193.707 168.698 193.076 169.53 192.156C172.733 188.604 172.27 187.227 177.292 184.555C181.119 182.514 179.561 183.179 182.301 180.419C183.684 179.029 186.343 177.062 187.988 175.679V175.685Z" fill="#FCE48C"/>
<path d="M142.995 207.511L134.669 227.526C134.139 230.36 135.066 232.172 137.51 233.475C136.784 234.381 135.71 236.349 135.314 237.497C131.93 237.819 129.352 235.261 129.849 231.85C130.07 230.36 131.352 229.608 131.581 228.822C131.916 227.647 131.541 226.559 132.199 225.055C133.306 222.524 136.637 217.596 137.342 215.199C138.235 212.177 137.624 211.378 139.336 207.866C139.974 208.545 142.156 207.826 142.995 207.504V207.511Z" fill="#FCE48C"/>
<path d="M157.626 196.904C157.841 197.105 158.378 197.065 158.734 197.528C160.701 200.1 158.821 205.895 157.626 208.607C158.217 208.762 157.807 208.016 158.237 207.869C158.539 207.768 158.982 207.936 159.083 207.869C158.72 208.694 157.794 210.588 157.257 211.159C155.33 213.186 151.502 212.595 150.005 210.185C147.373 205.955 152.234 201.92 154.692 198.898L157.626 196.891V196.904Z" fill="#FEA346"/>
<path d="M159.459 207.511C159.385 204.382 160.956 202.952 162.749 200.924C163.837 203.415 161.325 206.134 159.459 207.511Z" fill="#FEA346"/>
<path d="M222.372 202.026C223.823 201.657 225.253 201.167 226.764 200.932C225.542 202.16 224.165 203.06 222.372 202.026Z" fill="#FEBE2C"/>
<path d="M188.72 216.287C188.72 217.093 188.928 217.717 189.083 218.476C186.679 218.442 184.906 216.294 185.074 213.951C185.242 211.607 188.337 208.519 189.814 206.41C191.788 203.597 193.836 200.193 196.032 197.635C196.596 196.977 197.751 195.493 198.227 195.077C198.738 194.633 200.457 193.935 201.128 193.405C203.794 191.31 209.917 185.717 213.314 186.375C214.913 186.684 217.464 189.027 216.84 190.82C216.712 191.196 210.716 193.673 209.682 194.284C208.044 195.251 205.559 197.017 204.243 198.353C203.317 199.293 200.436 203.859 200.054 204.04C199.308 204.396 197.898 204.188 196.824 204.47C192.5 205.584 191.567 209.969 189.969 213.34C189.378 214.582 188.707 213.857 188.713 216.287H188.72Z" fill="#FEA346"/>
<path d="M172.256 207.143C173.243 206.391 178.259 204.262 179.206 204.954C177.017 207.78 173.257 215.576 176.453 218.496C177.588 219.537 179.266 219.034 179.535 219.255C179.662 219.356 179.991 221.39 180.663 222.33C181.576 223.606 185.9 225.748 185.772 226.325C185.51 227.5 182.059 229.266 180.817 229.427C176.728 229.944 176.124 228.098 173.525 226.178C172.142 225.157 169.551 223.861 168.597 222.512C168.543 222.431 168.651 222.236 168.597 222.149C166.677 219.027 166.791 215.925 168.235 212.642C168.832 211.272 171.108 208.029 172.256 207.156V207.143Z" fill="#FEA345"/>
<path d="M189.083 187.758C188.21 187.811 187.652 188.516 187.256 189.221C185.43 189.275 183.651 189.718 182.355 191.088C181.636 191.847 181.321 193.048 180.669 193.794C177.165 197.822 172.901 201.3 172.256 207.142C171.108 208.015 168.832 211.258 168.234 212.627C160.224 212.231 160.278 223.256 168.597 222.135C168.651 222.222 168.543 222.417 168.597 222.498C166.556 223.028 164.481 223.156 162.38 223.229C160.325 221.249 159.842 218.952 160.218 216.126C161.057 209.754 176.057 190.907 181.428 186.865C183.362 185.414 185.584 184.3 187.619 182.997C187.458 184.004 188.431 187.147 189.083 187.751V187.758Z" fill="#7AA984"/>
<path d="M142.995 207.511C143.814 207.189 147.366 204.584 148.112 205.316C147.917 207.498 147.38 210.486 147.749 212.627C145.822 215.77 145.58 220.51 149.575 222.135C148.911 222.659 146.923 225.297 146.285 226.157C143.909 219.765 135.939 224.968 141.162 229.447C140.35 229.951 139.47 231.985 138.806 232.771C138.356 233.301 137.55 233.415 137.503 233.476C135.059 232.173 134.139 230.353 134.663 227.527L142.989 207.511H142.995Z" fill="#79A985"/>
<path d="M145.56 227.997C145.708 227.816 145.916 226.681 146.292 226.171C146.93 225.312 148.917 222.673 149.582 222.149C153.993 218.671 160.405 223.304 156.102 229.219C152.523 234.141 146.48 235.202 145.56 228.004V227.997Z" fill="#FEA345"/>
<path d="M146.285 226.164C145.909 226.674 145.701 227.809 145.553 227.99C144.929 228.749 142.035 228.91 141.162 229.454C135.938 224.975 143.908 219.772 146.285 226.164Z" fill="#FCE48C"/>
<path d="M149.582 222.143C145.58 220.518 145.822 215.778 147.756 212.636C147.944 213.737 149.273 215.865 149.494 217.295C149.743 218.887 149.495 220.545 149.582 222.143Z" fill="#FCE48C"/>
<path d="M213.959 170.569C216.047 170.025 224.272 168.884 226.219 169.099C227.616 169.253 229.838 170.348 229.684 172.033C220.136 172.349 210.884 175.961 202.249 179.714C202.175 178.922 201.02 176.908 201.88 176.236C202.645 175.639 207.077 174.853 208.554 174.128C210.568 173.141 211.575 171.187 213.959 170.569Z" fill="#7BAA85"/>
<path d="M189.814 206.411C189.546 202.228 191.775 198.401 196.032 197.636C193.836 200.194 191.781 203.605 189.814 206.411Z" fill="#FEBE2C"/>
<path d="M168.234 212.629C166.791 215.919 166.683 219.014 168.597 222.136C160.278 223.258 160.217 212.226 168.234 212.629Z" fill="#FEBE2C"/>
<path d="M198.858 52.3151C199.161 51.8585 199.033 50.8715 199.678 50.1262C201.82 47.6486 205.593 50.8111 206.271 53.3692C206.593 54.5913 206.063 55.585 206.345 56.5451C206.486 57.0286 207.184 57.4583 207.446 58.0156C208.413 60.0299 209.924 62.4135 207.567 64.1323C204.156 66.6099 202.39 61.4399 200.685 60.7349C199.55 60.2649 197.18 62.5276 195.3 59.9292C194.011 58.1566 195.542 54.88 196.952 53.5237C197.435 53.0604 198.677 52.6038 198.858 52.3218V52.3151Z" fill="#FEA246"/>
<path d="M232.128 103.016C233.323 102.996 234.196 103.896 235.17 104.184C235.922 104.406 236.66 103.869 237.714 104.56C238.292 104.943 239.373 106.91 239.5 107.562C239.943 109.878 237.909 111.268 237.855 111.852C237.822 112.241 238.325 112.852 238.366 113.376C238.594 116.827 232.45 117.183 231.544 111.798C231.081 109.039 231.329 110.556 230.04 108.213C228.637 105.655 228.462 103.076 232.128 103.016Z" fill="#FEA246"/>
<path d="M221.56 54.5313C222.097 53.7457 221.392 51.9328 224.01 52.4028C225.138 52.6043 226.132 55.6391 226.031 56.6194C225.991 56.9887 224.487 59.05 224.205 59.191C223.325 59.6275 219.774 59.3186 219.257 58.2712C217.981 55.6861 221.197 55.0684 221.56 54.5313Z" fill="#FEA246"/>
<path d="M216.061 86.1621C215.651 85.7727 212.992 85.4235 211.784 84.7655C208.99 83.2481 208.447 81.2069 208.453 78.1922C208.453 77.4335 208.863 76.6882 208.823 76.0302C208.755 74.976 207.715 73.5861 207.715 71.9881C207.715 67.2612 211.857 63.5952 216.537 64.2868C217.699 64.4613 219.425 65.4685 220.062 65.5289C220.506 65.5692 221.54 64.4882 222.231 64.1726C226.616 62.1382 231.369 64.1726 233.041 68.631C233.599 70.1148 233.572 73.1296 233.881 73.6399C234.082 73.9756 236.909 75.2312 237.735 76.0033C240.904 78.9778 240.662 83.9195 237.547 86.8C236.707 87.5788 233.283 89.1366 233.149 89.3581C232.376 90.6741 233.081 92.8429 230.96 94.8505C226.548 99.0134 221.459 94.1455 218.773 90.5869C218.062 89.6468 216.537 86.612 216.061 86.1688V86.1621ZM229.765 75.7549C229.516 75.3184 229.751 73.8077 229.516 72.8878C228.61 69.3695 223.923 68.1475 221.076 70.3364C220.747 70.5915 220.64 71.263 220.472 71.3637C219.512 71.921 217.034 70.746 215.624 72.9147C214.55 74.5597 215.436 75.9362 214.986 77.3999C214.63 78.5682 213.348 78.5145 214.127 80.9719C215.033 83.8054 219.995 83.1474 220.492 83.5637C220.573 83.6308 220.895 84.8729 221.331 85.4638C222.527 87.082 224.319 88.3913 226.407 87.7333C228.308 87.1424 227.502 85.7727 228.032 84.9669C228.14 84.7991 229.993 83.9732 230.59 83.5032C232.229 82.2006 233.384 80.146 232.423 78.031C232.041 77.185 229.885 75.9697 229.765 75.7549Z" fill="#FE771A"/>
<path d="M229.765 75.7552C229.885 75.9701 232.041 77.1854 232.423 78.0314C233.384 80.1464 232.235 82.201 230.59 83.5036C229.993 83.9803 228.14 84.8061 228.032 84.9673C227.502 85.773 228.308 87.1427 226.407 87.7336C224.319 88.3849 222.527 87.0756 221.331 85.4641C220.895 84.8733 220.566 83.6311 220.492 83.564C219.995 83.141 215.027 83.799 214.127 80.9722C213.341 78.5148 214.63 78.5685 214.986 77.4002C215.436 75.9365 214.55 74.5601 215.624 72.915C217.041 70.7463 219.512 71.9213 220.472 71.364C220.64 71.27 220.741 70.5919 221.076 70.3367C223.923 68.1479 228.61 69.3699 229.516 72.8882C229.751 73.808 229.516 75.3188 229.765 75.7552ZM224.192 82.4091C224.286 82.3218 224.192 81.5631 224.783 81.3617C225.494 81.12 229.637 81.7243 229.295 79.71C229.066 78.3671 224.937 78.5484 225.347 76.0842C225.508 75.1173 227.898 73.0225 224.38 72.5256C223.064 72.3376 224.487 73.6536 224.574 74.1975C225.031 77.1921 221.076 76.3662 220.902 76.5475C220.808 76.6415 221.069 77.8098 220.727 78.3872C220.331 79.0587 217.968 79.2869 217.974 79.663C219.284 80.885 222.714 78.6625 223.393 80.838C223.52 81.2408 223.299 83.2216 224.192 82.4024V82.4091Z" fill="#FE9626"/>
<path d="M224.192 82.4067C223.299 83.2192 223.52 81.2384 223.393 80.8423C222.715 78.6736 219.284 80.8893 217.974 79.6673C217.974 79.298 220.338 79.063 220.727 78.3916C221.07 77.8141 220.808 76.6526 220.902 76.5518C221.076 76.3638 225.031 77.1897 224.574 74.2018C224.487 73.658 223.064 72.3419 224.38 72.5299C227.898 73.0268 225.508 75.1217 225.347 76.0885C224.937 78.5527 229.066 78.3714 229.295 79.7143C229.637 81.7286 225.494 81.1243 224.783 81.366C224.185 81.5675 224.279 82.3262 224.192 82.4135V82.4067Z" fill="#FE771A"/>
<path d="M93.9805 24.6183C92.0333 27.2101 92.3019 30.4732 94.041 33.1523C95.78 35.8313 98.4255 36.0394 101.299 35.9589C99.9496 36.8116 97.9621 36.9123 96.5454 37.4226C91.0061 35.7239 85.2049 33.9244 79.4171 35.4687C76.3621 36.2812 73.0855 38.6177 72.77 41.9883C72.5551 44.3384 73.2198 49.119 74.0389 51.328C74.2471 51.892 74.2604 52.55 74.9654 52.7783C74.4753 53.8392 71.9037 58.0222 71.8433 58.4385C71.6755 59.7008 72.2462 61.8829 72.0381 64.1188C70.2588 63.5414 68.1035 63.4541 66.5659 64.6828C65.0284 65.9116 64.4777 68.4294 63.5109 69.497C63.1214 69.9267 62.0336 70.3027 61.4226 70.8802C60.8586 71.4106 59.1667 73.6129 58.9854 73.6532C57.0047 74.0695 53.8489 69.8932 50.0755 73.7942C46.7183 77.2655 49.4644 81.368 53.3789 82.5967C51.5727 85.8599 51.4787 84.0671 49.498 83.1808C47.0472 82.0797 41.2125 81.6835 39.3258 83.8993C38.3187 85.081 38.7081 86.4239 37.8353 87.525C35.8881 84.94 32.5645 86.6857 30.5905 86.3702C29.9862 86.2761 29.3684 85.5443 28.7104 85.316C21.0426 82.6907 16.6649 97.892 27.24 97.7913C28.133 97.7845 29.9861 96.8177 29.9794 98.3217C29.9794 99.3355 24.9639 102.444 23.9232 103.619C22.8824 104.794 19.6796 109.756 19.4446 111.213C19.1424 113.066 19.5521 115.014 20.8211 116.43C20.3511 117.122 20.2772 117.921 21.1837 118.136V118.626C20.6331 118.68 20.2704 118.787 20.0891 119.358C16.3963 115.551 14.1201 110.468 14.7042 105.009C14.8922 103.297 15.8324 101.833 16.0405 100.497C16.759 95.8575 15.4294 93.4874 18.0681 88.6262C18.4844 87.854 20.3108 85.7189 20.3309 85.5309C20.3712 85.1481 19.7937 84.3088 19.7467 83.6643C19.5251 80.428 19.4715 77.2319 21.5463 74.5529C22.2043 73.7069 23.5069 73.069 23.8963 72.5117C25.5547 70.1819 25.8501 65.784 28.8716 62.1247C30.9799 59.5665 30.9395 59.7344 32.692 56.8002C34.337 54.054 36.6467 51.375 39.0975 49.307C40.4739 48.1387 43.2537 46.7488 44.2273 45.6611C45.0398 44.7547 45.4089 43.0962 46.1072 42.0555C49.1555 37.5166 53.3454 35.4016 58.4617 33.9311C63.9473 32.3466 67.6536 28.9088 73.4011 27.2907C77.5573 26.1156 79.0612 26.6931 82.7608 26.4446C84.4058 26.3372 86.9304 24.9003 89.0655 24.6721C90.6837 24.4975 92.3421 24.6989 93.9603 24.6251L93.9805 24.6183Z" fill="#FEE58C"/>
<path d="M72.0381 64.1266C71.6083 68.6924 70.6079 73.5871 68.6943 77.7903C68.1975 78.8847 66.2906 81.5973 66.1899 82.262C65.9818 83.6452 66.7472 86.4518 66.5525 88.4459C65.9415 94.5829 61.5301 99.5582 57.4142 103.627C57.4277 101.613 58.1058 94.8044 60.2342 94.1934C60.8385 94.0189 62.4568 94.2001 62.5373 94.1196C62.6716 93.992 62.4433 91.4003 62.5373 90.8295C58.5087 91.3465 55.9102 93.146 52.8552 95.59C50.6931 97.3223 47.8463 99.7059 46.725 102.264C46.2148 103.432 46.9533 104.614 44.8719 103.916C43.9923 103.62 43.7036 102.432 42.213 102.183C40.333 101.875 39.0438 102.875 38.2716 102.815C37.7613 102.774 36.922 102.103 36.217 101.955C30.1741 100.74 18.6859 107.951 24.8564 114.592C23.6948 114.612 21.459 115.498 20.8345 116.425C19.5655 115.008 19.1626 113.061 19.4581 111.208C19.6931 109.751 22.8689 104.822 23.9365 103.614C25.004 102.405 29.9861 99.3299 29.9928 98.316C29.9928 96.812 28.1398 97.7789 27.2535 97.7856C16.6784 97.8863 21.0561 82.685 28.7239 85.3104C29.3819 85.5386 29.9996 86.2638 30.6039 86.3645C32.5712 86.6801 35.8948 84.9344 37.8487 87.5194C38.7216 86.4182 38.3321 85.0753 39.3393 83.8936C41.2327 81.6779 47.0607 82.074 49.5114 83.1752C51.4854 84.0682 51.5862 85.8542 53.3923 82.591C49.4779 81.369 46.7318 77.2599 50.0889 73.7885C53.8624 69.8875 57.0181 74.0638 58.9989 73.6475C59.1802 73.6073 60.8788 71.4049 61.4361 70.8745C62.0471 70.2971 63.1416 69.9211 63.5243 69.4914C64.4912 68.4238 65.1021 65.8522 66.5792 64.6772C68.0564 63.5022 70.2722 63.5357 72.0515 64.1132L72.0381 64.1266ZM43.1395 91.924L39.8496 90.8228L39.4803 94.1129C40.0577 94.603 43.7304 92.5686 43.1328 91.924H43.1395Z" fill="#FEBE2C"/>
<path d="M20.8277 116.43C21.4588 115.503 23.688 114.617 24.8496 114.597C18.6858 107.957 30.174 100.745 36.2102 101.961C36.9152 102.102 37.7545 102.78 38.2648 102.82C39.037 102.88 40.3195 101.887 42.2062 102.189C43.6968 102.431 43.9855 103.626 44.8651 103.921C46.9398 104.62 46.2012 103.438 46.7182 102.269C47.8395 99.7113 50.6863 97.3277 52.8483 95.5954C55.9034 93.1514 58.5019 91.3453 62.5305 90.835C62.4365 91.4057 62.6648 93.9974 62.5305 94.125C62.4432 94.2056 60.8317 94.0243 60.2274 94.1988C58.1057 94.8166 57.4275 101.618 57.4074 103.633C56.9374 104.096 56.0243 104.586 55.7624 105.116C55.4804 105.694 55.6818 106.278 55.5744 106.56C54.621 106.07 53.09 107.661 52.3179 108.245C47.9804 111.555 43.9451 115.268 39.5808 118.552C35.4582 118.357 31.3088 118.928 27.2399 119.015C25.3532 119.055 22.6339 118.498 21.1903 118.632V118.142C20.2839 117.927 20.3577 117.135 20.8277 116.437V116.43Z" fill="#FEA345"/>
<path d="M95.082 8.16113C96.7001 12.3173 97.7811 17.4202 99.5604 21.422C100.534 23.6175 102.092 25.558 104.771 25.37C105.744 25.3028 108.101 24.1346 108.249 23.1543C112.123 24.8664 116.561 24.101 120.684 23.8861C121.113 24.3158 120.026 30.8086 119.495 31.48C119.066 32.0105 115.245 33.2258 114.332 33.4473C111.713 34.0852 108.571 33.9375 106.315 34.5754C104.14 35.1931 104.401 35.8645 101.299 35.9585C98.4324 36.0458 95.7534 35.7906 94.0412 33.1519C92.3291 30.5132 92.0336 27.2097 93.9807 24.618C94.4373 24.007 95.2498 23.7451 95.7534 22.9193C97.1433 20.6632 96.465 17.8768 95.995 15.4731C95.6459 13.687 94.1084 10.2224 94.0345 9.00043C93.9808 8.16113 94.6053 8.32899 95.0753 8.16113H95.082Z" fill="#FE771A"/>
<path d="M108.249 23.1552C108.101 24.1355 105.744 25.3038 104.771 25.3709C102.092 25.5589 100.534 23.6117 99.5602 21.4229C97.7809 17.4211 96.6999 12.3115 95.0818 8.16204C95.9278 7.85318 101.501 5.9933 101.856 6.00002C104.71 6.05373 107.799 12.1839 108.155 14.6548C108.51 17.1257 108.067 19.1601 107.92 21.4766C107.893 21.9466 108.336 22.5979 108.249 23.1552Z" fill="#FE9626"/>
<path d="M55.5747 106.554C54.5474 109.341 49.337 115.397 46.987 117.539C39.3595 124.488 27.9854 127.503 20.0894 119.359C20.2639 118.788 20.6333 118.68 21.1839 118.627C22.6275 118.492 25.3535 119.05 27.2335 119.009C31.3024 118.922 35.4518 118.351 39.5744 118.546C43.9387 115.263 47.9673 111.543 52.3115 108.24C53.0769 107.655 54.6078 106.071 55.568 106.554H55.5747Z" fill="#FEBE2C"/>
<path d="M96.5454 37.4232C94.5042 38.1551 90.798 39.7397 88.8642 40.7133C86.7962 39.6927 83.298 40.6663 81.5657 42.0158C79.8334 43.3654 79.8401 43.3923 77.8997 44.5673C76.4225 45.4603 74.4216 48.4616 75.6906 50.2208C75.422 50.8519 75.3886 51.8658 74.9589 52.7789C74.2606 52.5439 74.2403 51.8859 74.0322 51.3286C73.2063 49.1196 72.5484 44.339 72.7633 41.989C73.0721 38.6117 76.3487 36.2818 79.4104 35.4694C85.2049 33.9251 90.9993 35.7178 96.5387 37.4232H96.5454Z" fill="#FEBE2C"/>
<path d="M88.8642 40.713C87.9376 41.1763 86.2388 42.3379 85.0974 42.9824C82.3378 44.5469 76.8857 47.434 75.6973 50.2272C74.4283 48.4681 76.4292 45.4667 77.9063 44.5737C79.8468 43.3987 79.8467 43.3584 81.5723 42.0223C83.2979 40.6861 86.8029 39.6991 88.8709 40.7197L88.8642 40.713Z" fill="#FEA345"/>
<path d="M43.1394 91.9234C43.737 92.568 40.0575 94.6024 39.4868 94.1123L39.8561 90.8223L43.1461 91.9234H43.1394Z" fill="#FEE48B"/>
</svg>
