<svg width="260" height="260" viewBox="0 0 260 260" fill="none" xmlns="http://www.w3.org/2000/svg">
<path d="M233.429 162.648C231.001 167.622 228.964 172.795 226.583 177.782C226.073 178.854 225.643 179.972 225.141 181.023C224.175 183.048 223.249 185.151 222.257 187.149C221.264 189.146 220.087 191.27 219.015 193.274C217.726 195.681 216.059 197.917 215.053 200.484C213.605 201.76 208.789 210.531 207.427 212.853C205.72 215.763 201.884 224.468 199.397 225.725C197.683 226.592 196.896 226.486 195.236 225.712C199.476 214.381 204.774 203.48 209.715 192.44C210.377 190.965 210.8 189.331 211.455 187.87C213.128 184.152 214.828 180.355 216.502 176.698C216.952 175.719 217.792 174.568 218.301 173.456C220.312 169.084 222.032 164.414 224.069 160.121C226.55 154.896 231.888 143.155 235.294 139.093C238.701 135.032 244.468 138.055 243.807 142.553C243.47 144.855 239.25 151.086 237.933 153.626C236.392 156.602 234.904 159.632 233.435 162.641L233.429 162.648Z" fill="#5C5958"/>
<path d="M195.229 225.705C193.251 224.779 192.378 223.152 192.729 220.864C192.927 219.567 196.499 213.29 197.392 211.649C198.232 210.115 199.053 208.474 199.912 206.966C202.327 202.74 205.072 198.579 207.479 194.352C208.055 193.34 208.491 192.236 208.921 191.468C209.504 190.436 210.833 189.027 211.442 187.863C210.787 189.325 210.364 190.952 209.702 192.434C204.768 203.467 199.469 214.368 195.223 225.705H195.229Z" fill="#98999D"/>
<path d="M205.68 159.764C203.881 160.075 199.74 161.802 197.869 162.582C194.389 164.031 191.155 165.916 187.841 167.682L188.383 166.247C200.918 149.809 214.498 134.186 226.516 117.351C228.335 114.805 233.415 105.882 235.744 104.962C237.503 104.268 239.931 104.565 241.201 106.047C242.828 107.952 242.537 109.784 241.551 111.848C239.111 116.941 232.787 125.031 229.255 129.82C221.721 140.04 213.294 149.598 205.68 159.758V159.764Z" fill="#5B5958"/>
<path d="M211.448 53.4609C210.37 53.5667 210.575 52.3232 209.834 51.6485C206.633 48.7315 201.46 53.9041 206.759 57.4231C204.953 57.8001 202.81 56.1001 202.314 54.4796C199.86 46.5354 212.09 44.8884 211.442 53.4543L211.448 53.4609Z" fill="#D44833"/>
<path d="M206.765 57.4232C201.467 53.9043 206.64 48.725 209.841 51.6487C210.582 52.3234 210.377 53.5669 211.455 53.4611C211.356 54.784 210.178 55.8953 211.455 55.6241C210.972 55.8688 208.214 57.5092 207.85 57.7871C207.294 57.9193 207.129 57.668 206.772 57.4299L206.765 57.4232Z" fill="#EF893C"/>
<path d="M210.727 62.4713C210.727 64.2639 212.15 65.8646 213.81 66.4136C215.344 66.9229 219.201 66.665 220.458 65.7125C221.185 65.9903 221.899 66.5525 222.62 66.7906C224.744 71.5465 220.008 72.9687 216.495 74.3578C213.215 74.0138 208.366 71.6524 206.408 68.9536C205.462 65.5206 206.759 62.2662 210.734 62.4647L210.727 62.4713Z" fill="#E26912"/>
<path d="M219.016 74.364C218.44 74.4632 217.111 74.4301 216.495 74.364C220.008 72.9749 224.744 71.5528 222.62 66.7969C223.355 67.0416 225.048 66.5455 225.452 68.133C225.888 69.8396 220.682 74.0796 219.016 74.364Z" fill="#9D3526"/>
<path d="M220.458 65.7115C219.201 66.6574 215.344 66.9154 213.81 66.4127C212.15 65.8637 210.727 64.2629 210.727 62.4704C210.727 59.2226 215.397 56.6693 218.301 57.2051C222.66 58.0121 224.043 63.0061 220.451 65.7115H220.458Z" fill="#EF893C"/>
<path d="M211.448 55.6245C219.148 51.7484 230.115 57.4766 227.667 66.7966C231.246 64.0119 236.961 65.2554 236.313 70.4016C234.732 70.5206 232.906 69.9253 231.63 71.1226C229.314 70.0775 226.748 71.4268 226.583 74.0065C223.454 71.9031 219.095 76.0504 221.886 79.2387C222.396 79.8208 224.77 80.9056 225.498 80.8527C225.412 81.534 225.736 82.9363 226.219 83.3728C225.769 84.4047 225.121 85.5556 225.862 86.614C219.326 86.4618 216.277 79.9994 219.015 74.3637C220.682 74.0793 225.881 69.8393 225.451 68.1328C225.048 66.5453 223.355 67.0413 222.62 66.7966C221.886 66.5519 221.185 65.9896 220.458 65.7184C224.043 63.013 222.66 58.019 218.308 57.212C215.397 56.6762 210.727 59.2229 210.734 62.4773C206.759 62.2788 205.462 65.5332 206.408 68.9662C203.842 65.434 204.232 60.526 207.85 57.7941C208.214 57.5229 210.972 55.8759 211.455 55.6311L211.448 55.6245Z" fill="#D44833"/>
<path d="M231.623 71.1153C232.933 71.704 233.746 73.4106 234.143 74.7202C232.536 76.4863 233.581 75.3883 233.753 77.4521C234.004 80.422 233.832 81.8376 231.98 84.0865C232.179 81.8376 230.975 83.7095 230.201 83.9212C229.09 84.2321 227.072 84.1461 226.219 83.3655C225.736 82.9224 225.412 81.5267 225.498 80.8454C228.997 80.5874 229.281 75.8183 226.576 73.9992C226.741 71.4196 229.308 70.0768 231.623 71.1153Z" fill="#E26912"/>
<path d="M226.219 83.3736C227.072 84.1607 229.09 84.2401 230.201 83.9292C230.975 83.7109 232.179 81.839 231.98 84.0945C230.095 86.3898 228.838 86.6875 225.855 86.6147C225.121 85.5564 225.769 84.3988 226.212 83.3736H226.219Z" fill="#9D3526"/>
<path d="M236.313 70.4007C236.035 72.61 235.605 73.126 234.15 74.7267C233.753 73.417 232.939 71.7104 231.63 71.1217C232.906 69.9245 234.732 70.5198 236.313 70.4007Z" fill="#9D3526"/>
<path d="M226.583 73.9997C229.281 75.8187 229.004 80.5879 225.504 80.8458C224.777 80.8988 222.402 79.814 221.893 79.2319C219.102 76.0436 223.46 71.8897 226.589 73.9997H226.583Z" fill="#EF893C"/>
<path d="M202.076 185.35C198.16 183.233 193.979 181.493 189.541 180.772C187.371 180.422 178.726 179.079 180.148 183.319C180.558 184.543 183.753 183.511 184.97 183.517C187.451 183.531 191.578 184.543 193.986 185.336C196.394 186.13 198.55 187.618 200.997 188.234C200.951 188.333 201.044 188.498 200.997 188.591C200.448 189.748 198.226 193.459 197.392 194.537C196.652 195.496 189.329 202.852 188.747 203.004C188.668 203.024 188.469 203.024 188.39 203.004C187.973 202.898 184.884 199.875 184.038 199.253C181.286 197.249 174.598 193.995 171.278 193.995H164.789C164.432 193.995 163.823 195.073 163.87 195.602C164.075 197.871 168.778 197.124 170.458 197.342C176.583 198.129 181.947 201.238 186.234 205.531C186.187 205.61 186.26 205.769 186.234 205.888L171.159 220.182C169.492 222.365 168.89 225.97 170.735 228.225C168.057 231.05 164.796 233.709 160.549 232.829C154.166 231.506 156.197 223.007 155.065 218.495C154.411 215.902 152.81 213.561 151.983 211.127C147.75 198.546 161.151 187.202 169.651 179.945C170.193 180.521 170.537 179.945 170.98 179.668C179.837 174.164 192.835 166.987 201.149 177.816C203.756 181.209 203.313 181.718 202.082 185.35H202.076Z" fill="#E67567"/>
<path d="M224.056 160.121C222.019 164.407 220.305 169.084 218.288 173.456C216.476 172.636 207.162 170.288 208.611 174.653C209.107 176.155 211.223 175.235 212.242 175.321C213.36 175.421 215.457 176.128 216.489 176.691C214.815 180.342 213.115 184.145 211.442 187.863C210.833 189.027 209.497 190.436 208.922 191.468C207.413 189.007 204.761 186.718 202.076 185.7C202.115 185.594 202.036 185.448 202.076 185.342C203.306 181.704 203.749 181.202 201.143 177.808C192.828 166.98 179.831 174.157 170.974 179.66C170.53 179.938 170.186 180.52 169.644 179.938C175.511 174.924 181.597 170.023 188.383 166.246L187.841 167.681C191.155 165.915 194.389 164.024 197.869 162.582C199.74 161.801 203.881 160.081 205.68 159.764C208.432 159.288 212.368 159.751 215.245 159.387L224.056 160.121Z" fill="#D44734"/>
<path d="M235.592 193.994C236.2 199.253 234.447 198.386 232.8 202.196C231.894 204.286 231.921 206.41 230.485 208.533C228.541 211.41 223.447 214.076 220.186 215.174C218.645 215.69 215.259 216.06 214.326 216.524C213.975 216.695 211.376 220.023 210.331 220.816C207.936 222.635 206.309 222.391 204.252 223.383C203.637 223.681 201.844 226.313 200.805 227.147C196.599 230.5 191.261 230.798 186.22 229.316C186.386 228.046 185.889 226.141 186.405 224.997C186.604 224.554 188.86 222.318 189.448 221.551C191.585 218.746 193.893 214.969 196.188 212.475C196.572 212.059 196.751 211.768 197.386 211.655C196.493 213.296 192.921 219.573 192.722 220.869C192.372 223.158 193.245 224.785 195.223 225.711C196.883 226.492 197.67 226.591 199.383 225.724C201.87 224.468 205.7 215.763 207.413 212.852C208.776 210.531 213.592 201.76 215.04 200.483C216.052 199.59 221.747 196.025 222.971 195.621C226.636 194.424 231.716 194.424 235.579 193.994H235.592Z" fill="#FDFDFD"/>
<path d="M235.592 190.39C234.937 190.238 234.791 190.311 234.15 190.39C231.219 186.871 226.444 187.017 222.257 187.149C223.249 185.151 224.175 183.041 225.141 181.024C227.548 182.135 233.667 189.405 233.349 182.902L226.583 177.783C228.964 172.795 231.001 167.623 233.429 162.648C237.999 163.746 243.066 168.046 244.667 172.491C246.268 176.936 245.719 188.187 241.34 190.919C238.906 192.441 237.688 190.88 235.592 190.397V190.39Z" fill="#D44734"/>
<path d="M199.913 206.966C199.053 208.474 198.226 210.114 197.392 211.649C196.757 211.761 196.579 212.052 196.195 212.469C193.9 214.956 191.585 218.74 189.455 221.544C188.873 222.312 186.617 224.547 186.412 224.991C185.896 226.135 186.392 228.033 186.227 229.31C184.805 228.893 182.331 227.326 181.636 227.2C180.776 227.048 180.022 227.584 179.202 227.537C177.343 227.438 174.704 226.955 173.256 225.705C173.322 225.619 173.203 224.997 173.454 224.66C176.411 220.698 178.752 220.46 182.622 217.781C185.486 217.066 188.621 215.882 190.91 214.004C191.565 213.468 192.233 212.383 192.709 212.019C192.967 211.821 193.166 211.503 193.43 211.298L199.919 206.972L199.913 206.966Z" fill="#EEBDBD"/>
<path d="M190.546 211.292V211.649C189.818 211.728 183.852 216.921 182.615 217.774C178.746 220.453 176.404 220.691 173.447 224.653C173.196 224.99 173.315 225.612 173.249 225.698C172.74 226.36 171.384 227.53 170.729 228.218C168.883 225.963 169.485 222.351 171.152 220.175L186.227 205.881L190.553 211.285L190.546 211.292Z" fill="#D44734"/>
<path d="M235.592 190.39C234.745 191.309 235.459 192.87 235.592 193.995C231.729 194.418 226.649 194.425 222.984 195.622C221.761 196.025 216.065 199.591 215.053 200.484C216.059 197.917 217.726 195.681 219.015 193.274C222.792 191.441 226.96 191.501 231.041 191.064C232.013 190.959 233.323 190.489 234.15 190.39C234.791 190.31 234.937 190.238 235.592 190.39Z" fill="#EEBDBD"/>
<path d="M206.765 194.359C206.051 194.63 204.979 195.589 204.411 196.152L193.41 207.866C193.073 208.236 193.033 208.666 193.073 209.136H192.716C192.187 206.675 189.435 205.372 188.754 203.011C189.342 202.859 196.658 195.503 197.399 194.544C198.232 193.466 200.455 189.755 201.004 188.598C203.048 190.212 205.588 191.984 206.772 194.366L206.765 194.359Z" fill="#D44734"/>
<path d="M188.383 203.003C188.496 204.147 186.538 204.987 186.22 205.523C181.934 201.23 176.576 198.121 170.445 197.334C168.764 197.123 164.061 197.863 163.856 195.595C163.81 195.072 164.419 193.987 164.776 193.987H171.265C174.585 193.987 181.279 197.242 184.024 199.246C184.878 199.868 187.96 202.891 188.377 202.996L188.383 203.003Z" fill="#EC8F87"/>
<path d="M202.075 185.349C202.036 185.455 202.115 185.607 202.075 185.706C201.824 186.381 201.315 187.545 200.997 188.226C198.55 187.611 196.413 186.136 193.986 185.329C191.558 184.522 187.45 183.53 184.97 183.51C183.753 183.504 180.558 184.535 180.148 183.312C178.726 179.072 187.371 180.414 189.541 180.765C193.979 181.486 198.166 183.232 202.075 185.342V185.349Z" fill="#EC8F87"/>
<path d="M208.922 191.474C208.492 192.242 208.055 193.346 207.48 194.358C207.261 194.398 206.924 194.292 206.759 194.358C205.575 191.977 203.035 190.204 200.991 188.59C201.037 188.491 200.944 188.326 200.991 188.233C201.308 187.545 201.824 186.388 202.069 185.713C204.754 186.732 207.407 189.02 208.915 191.481L208.922 191.474Z" fill="#DE695F"/>
<path d="M192.709 209.129L190.546 211.292L186.22 205.888C186.247 205.769 186.174 205.604 186.22 205.531C186.538 204.989 188.496 204.155 188.383 203.011C188.463 203.031 188.661 203.031 188.74 203.011C189.422 205.379 192.173 206.675 192.703 209.136L192.709 209.129Z" fill="#DE695F"/>
<path d="M234.15 190.389C233.323 190.489 232.02 190.965 231.041 191.064C226.96 191.494 222.786 191.435 219.015 193.273C220.094 191.269 221.251 189.172 222.257 187.148C226.444 187.016 231.219 186.87 234.15 190.389Z" fill="#9D3526"/>
<path d="M226.583 177.782L233.349 182.902C233.674 189.411 227.548 182.135 225.141 181.023C225.643 179.972 226.073 178.847 226.583 177.782Z" fill="#DE695F"/>
<path d="M218.295 173.456C217.779 174.567 216.939 175.718 216.495 176.697C215.464 176.128 213.367 175.421 212.249 175.328C211.23 175.242 209.113 176.155 208.617 174.66C207.169 170.294 216.482 172.636 218.295 173.463V173.456Z" fill="#DE695F"/>
<path d="M207.48 194.358C205.072 198.585 202.327 202.746 199.913 206.972L193.424 211.298C193.708 210.538 193.099 209.645 193.066 209.135C193.033 208.666 193.066 208.229 193.404 207.865L204.404 196.151C204.973 195.589 206.044 194.629 206.759 194.358C206.924 194.292 207.261 194.398 207.48 194.358Z" fill="#9D3526"/>
<path d="M192.709 212.013C192.233 212.383 191.565 213.461 190.91 213.997C188.615 215.876 185.479 217.066 182.622 217.774C183.859 216.921 189.825 211.728 190.553 211.649C191.049 211.596 192.041 212.204 192.716 212.006L192.709 212.013Z" fill="#9D3526"/>
<path d="M193.066 209.129C193.106 209.638 193.708 210.531 193.424 211.292C193.159 211.49 192.961 211.814 192.703 212.013C192.028 212.211 191.036 211.596 190.54 211.656V211.298L192.703 209.136H193.06L193.066 209.129Z" fill="#C25E56"/>
<path d="M41.7239 170.216C42.3589 175.065 37.6559 176.573 33.793 174.899C32.5759 171.771 31.2067 169.641 34.3553 166.75C34.5802 166.591 34.8183 166.439 35.0565 166.3C38.086 166.28 41.2807 166.863 41.7173 170.21L41.7239 170.216Z" fill="#EF893C"/>
<path d="M59.3784 163.369C58.7765 163.944 58.7103 165.744 58.3002 166.253C58.1811 166.398 55.2906 168.184 55.0723 168.25C52.228 169.11 50.3164 167.318 50.7331 164.454C51.421 162.641 52.2611 160.849 54.5431 160.511C57.2551 160.108 58.1746 161.305 59.3851 163.376L59.3784 163.369Z" fill="#EF893C"/>
<path d="M45.9243 169.554C47.3928 172.411 46.976 175.884 44.8659 178.312C42.7559 180.739 39.3825 181.639 36.3464 180.58C36.3199 179.568 37.7487 179.482 38.8401 178.861C40.4541 177.941 42.2136 176.982 43.1661 175.256C45.0116 174.039 45.1174 172.676 45.3357 170.744C45.4151 170.07 44.9057 169.289 45.9243 169.554Z" fill="#9D3526"/>
<path d="M45.9243 169.553C44.9056 169.289 45.4084 170.063 45.3357 170.744C45.1174 172.682 45.0115 174.038 43.166 175.255C44.231 173.33 44.1184 170.903 41.7239 170.208C41.2874 166.861 38.0926 166.279 35.0631 166.299C36.9285 165.247 39.1377 165.003 41.1883 165.618C43.2388 166.233 44.9453 167.655 45.9243 169.553Z" fill="#D44833"/>
<path d="M58.3002 166.246C58.9154 166.636 59.0345 167.371 59.0213 168.045C58.5186 168.68 58.2408 169.911 57.5793 170.566C55.3237 171.492 53.8684 171.836 51.8046 170.036C49.7409 168.237 49.8931 166.643 50.7331 164.44C50.3164 167.305 52.2281 169.104 55.0724 168.237C55.2906 168.171 58.1811 166.392 58.3002 166.24V166.246Z" fill="#E26912"/>
<path d="M34.362 166.749C31.2068 169.633 32.5826 171.77 33.7996 174.898C33.9253 175.216 33.7733 175.917 34.0709 176.598C34.8581 178.391 36.9946 179.191 38.8467 178.86C37.7553 179.482 36.3265 179.568 36.353 180.58C33.5748 179.614 31.5705 177.18 31.1472 174.27C30.7238 171.359 31.9675 168.456 34.362 166.749Z" fill="#D44833"/>
<path d="M60.4632 166.967C60.106 167.298 59.2726 167.728 59.0212 168.045C59.0345 167.364 58.9153 166.637 58.3002 166.246C58.7103 165.737 58.7765 163.938 59.3784 163.362C60.2383 164.837 60.6153 164.989 60.4565 166.967H60.4632Z" fill="#D44833"/>
<path d="M57.5793 170.573C58.2407 169.918 58.5185 168.688 59.0212 168.053C59.2726 167.735 60.106 167.299 60.4632 166.975C60.2846 169.243 59.4777 169.799 57.5793 170.58V170.573Z" fill="#9D3526"/>
<path d="M38.84 160.843C38.6747 159.864 39.4485 159.407 39.9181 158.68C42.0216 158.495 48.2592 154.87 48.5569 152.707C48.6296 152.197 48.4047 149.975 48.2063 149.671L48.5635 145.345C52.1221 152.614 47.6705 162.384 38.8334 160.843H38.84Z" fill="#9D3526"/>
<path d="M43.8869 146.793C46.5923 146.475 46.4998 147.725 47.4854 149.432C47.6772 149.756 48.193 149.644 48.2129 149.677C48.4113 149.974 48.6296 152.203 48.5635 152.713C48.2658 154.876 42.0282 158.5 39.9247 158.686C33.9584 159.215 33.8394 152.739 37.4047 152.197C38.3241 152.058 39.3691 152.329 40.3877 152.117C42.7028 151.635 44.2176 149.068 43.8935 146.793H43.8869Z" fill="#E26912"/>
<path d="M43.8869 146.793C44.211 149.068 42.6964 151.634 40.3812 152.117C39.3626 152.329 38.3175 152.058 37.398 152.197C36.0222 150.867 34.5272 150.622 34.1767 148.393C33.0786 141.316 43.1262 141.474 43.8802 146.793H43.8869Z" fill="#EF893C"/>
<path d="M26.9469 152.918C26.4574 154.234 25.4388 154.724 24.7839 155.802C17.2764 158.97 13.7044 151.503 19.3798 146.436C19.823 146.217 20.7292 145.364 20.8218 145.358C21.0004 145.331 24.1423 145.781 24.4466 145.88C27.0131 146.674 27.8134 150.61 26.9469 152.925V152.918Z" fill="#EF893C"/>
<path d="M19.3798 146.43C13.7045 151.496 17.2764 158.971 24.784 155.796C23.3949 158.078 23.5537 159.269 24.784 161.564C24.4599 161.637 21.3841 163.978 20.8218 164.448C14.6835 162.536 11.9583 152.436 16.6811 147.872C17.5344 147.045 18.4406 146.879 19.3798 146.43Z" fill="#D44833"/>
<path d="M34.1568 159.044C34.0642 159.408 32.0997 161.703 31.6366 162.113C28.9246 164.508 24.3011 165.533 20.8218 164.455C21.3841 163.985 24.4599 161.643 24.784 161.571C25.3727 161.438 26.4839 162.04 27.4562 161.928C29.5597 161.677 31.6962 157.741 31.63 155.803C32.7876 155.915 34.4346 157.906 34.1502 159.044H34.1568Z" fill="#9D3526"/>
<path d="M31.6367 155.802C31.7028 157.74 29.5664 161.676 27.4629 161.927C26.4906 162.039 25.3794 161.437 24.7907 161.57C23.5603 159.281 23.4016 158.084 24.7907 155.802C25.4455 154.724 26.4641 154.234 26.9536 152.918C29.1496 151.886 31.5573 153.401 31.6367 155.802Z" fill="#E26912"/>
<path d="M19.3798 128.055C19.4923 127.896 19.4659 127.466 19.7304 127.155C28.1971 117.173 48.967 127.638 41.0031 140.662C44.8329 141.138 46.8702 141.872 48.5701 145.352L48.2129 149.678C48.2129 149.678 47.6706 149.757 47.4854 149.433C46.4998 147.726 46.5923 146.483 43.8869 146.794C43.1263 141.476 33.0853 141.31 34.1833 148.394C34.5273 150.63 36.0289 150.875 37.4047 152.198C33.8461 152.74 33.9584 159.209 39.9248 158.687C39.4551 159.414 38.6813 159.871 38.8467 160.85C36.8821 160.506 35.8767 160.122 34.1635 159.051C34.4479 157.906 32.8008 155.922 31.6433 155.809C31.5639 153.408 29.1562 151.894 26.9602 152.925C27.8201 150.61 27.0264 146.668 24.4599 145.881C24.1556 145.788 21.0136 145.339 20.835 145.358C16.9919 141.151 15.9204 134.213 18.4736 129.113C18.7845 128.491 19.2013 128.346 19.3931 128.061C18.8838 130.35 18.1495 131.607 19.5915 133.809C21.0335 136.012 23.6066 137.804 26.2392 137.427C26.1664 138.975 26.1731 142.044 27.3174 143.195C24.9427 145.279 27.0462 148.057 29.7185 148.15C31.4449 148.209 32.1064 145.272 32.3577 143.916C35.3872 142.984 40.2093 138.373 40.3019 135.073C40.3879 132.175 35.5129 128.557 32.7149 130.581C33.0655 124.714 25.5315 124.562 21.6487 126.54C20.7954 126.976 20.4051 127.949 19.3798 128.055Z" fill="#D44833"/>
<path d="M32.3511 143.91C30.876 144.36 28.4419 144.326 27.3041 143.189C26.1664 142.051 26.1532 138.969 26.226 137.421C28.5212 137.097 32.5694 132.949 32.7149 130.575C35.5129 128.551 40.3879 132.169 40.3019 135.066C40.2026 138.367 35.3872 142.977 32.3577 143.91H32.3511Z" fill="#E26912"/>
<path d="M32.7148 130.574C32.5693 132.949 28.5277 137.096 26.2258 137.42C23.5932 137.791 20.9673 135.925 19.5782 133.802C18.1891 131.679 18.8704 130.343 19.3797 128.054C20.405 127.948 20.7953 126.976 21.6486 126.539C25.5247 124.561 33.0654 124.714 32.7148 130.581V130.574Z" fill="#EF893C"/>
<path d="M32.351 143.909C32.0997 145.265 31.4382 148.196 29.7118 148.143C27.0395 148.057 24.9361 145.272 27.3107 143.188C28.4484 144.326 30.8826 144.359 32.3577 143.909H32.351Z" fill="#9D3526"/>
<path d="M43.166 175.256C42.2135 176.983 40.454 177.942 38.8401 178.861C36.9946 179.192 34.8515 178.391 34.0643 176.599C33.7667 175.918 33.9187 175.216 33.793 174.899C37.656 176.572 42.3523 175.058 41.7239 170.216C44.1184 170.904 44.231 173.338 43.166 175.263V175.256Z" fill="#E26912"/>
<path d="M70.1933 46.2574C65.6689 47.1305 60.9658 50.2526 57.2551 52.958C56.2695 53.6724 52.0296 57.5816 51.5666 57.7205C50.2767 58.1042 47.7764 57.6742 46.2418 57.7999C44.2045 57.9653 35.3938 58.468 35.6849 61.5239C35.923 64.011 39.9711 62.6749 41.929 62.827C49.344 63.4157 44.8925 68.3105 41.8365 71.4061C38.0067 72.352 34.1436 73.3641 30.4725 74.8127C29.2752 75.2823 23.7654 77.6834 23.1899 78.3383C22.5218 79.0989 22.3035 80.9312 23.1502 81.6059C24.5723 82.7436 26.6427 80.7857 28.0582 80.3226C31.0745 79.3371 34.3156 80.0382 37.4178 79.4098C37.1334 84.179 34.3487 87.7376 30.6842 90.5158C28.4882 92.176 20.3257 96.6673 19.446 98.3739C18.8374 99.5579 18.6192 101.966 20.3125 102.118C21.6024 102.237 24.4599 99.8953 26.1598 99.6572C30.2146 99.0949 32.2915 103.494 31.3059 106.993C29.7846 112.404 23.0113 116.227 17.5939 116.161C17.5278 115.274 17.7064 114.328 17.5807 113.449C17.5013 112.867 17.2367 112.946 17.2301 112.913C17.2103 112.794 17.2566 112.668 17.2301 112.556C16.3107 108.183 13.9096 110.32 11.105 107.509C10.1988 105.848 9.88131 105.405 10.4832 103.474C11.019 101.767 14.2998 98.3276 14.3329 97.2428C14.3528 96.6806 10.331 88.8423 9.75557 87.0563C7.51983 80.111 10.4567 80.1374 15.7881 77.9612C17.3293 79.7141 22.1183 75.6196 20.974 74.687C20.081 73.966 19.3534 73.04 18.3083 72.5505C17.8783 69.1969 17.1111 64.1168 17.25 60.8624C17.283 60.0158 18.4339 57.1781 19.0226 56.51C21.6288 53.5798 26.5236 55.1474 29.8508 55.4649C30.757 51.8732 29.52 47.8846 32.1725 44.8022C35.8039 40.5887 41.1354 43.5189 45.329 45.166C45.6201 36.2164 52.4992 23.7479 61.4024 34.3312C61.9184 34.4569 67.0514 30.4419 68.6588 30.1111C71.4832 29.529 73.9107 31.2951 74.7243 33.9741C75.1212 35.2904 75.8423 41.6139 75.6041 42.8244C75.4189 43.7769 71.3508 45.5562 70.1999 46.2442L70.1933 46.2574Z" fill="#4F9A52"/>
<path d="M70.1932 46.2578C55.7271 54.8833 47.9483 70.0903 38.6813 83.3856C34.2164 94.9612 31.9873 107.304 29.3018 119.409C23.1899 122.954 14.9877 121.598 17.2234 112.92C17.2234 112.953 17.4946 112.867 17.574 113.456C17.6931 114.335 17.5211 115.281 17.5873 116.168C23.0046 116.234 29.7779 112.411 31.2993 107C32.2782 103.501 30.2079 99.0953 26.1532 99.6642C24.4598 99.9023 21.6023 102.244 20.3059 102.125C18.6125 101.973 18.8308 99.565 19.4393 98.3809C20.319 96.6678 28.4815 92.1831 30.6775 90.5228C34.342 87.7446 37.1201 84.1926 37.4112 79.4169C34.3089 80.0452 31.0678 79.3375 28.0515 80.3297C26.6294 80.7927 24.5657 82.7506 23.1436 81.6129C22.3035 80.9382 22.5217 79.106 23.1832 78.3453C23.7587 77.6904 29.2686 75.2893 30.4658 74.8197C34.1369 73.3711 38 72.3591 41.8298 71.4132C44.8858 68.3175 49.3373 63.4227 41.9224 62.834C39.9644 62.6819 35.9163 64.018 35.6782 61.5309C35.3872 58.475 44.1978 57.9657 46.2351 57.8069C47.7697 57.6879 50.2701 58.1112 51.5599 57.7275C52.0229 57.5886 56.263 53.686 57.2485 52.965C60.9659 50.2597 65.6622 47.1376 70.1866 46.2644L70.1932 46.2578Z" fill="#327435"/>
<path d="M18.3016 72.5576C19.3468 73.0405 20.0744 73.9665 20.9674 74.6941C22.1117 75.6202 17.3227 79.7212 15.7815 77.9684C16.701 77.5913 17.5211 76.4338 19.0226 76.8836C18.7713 75.468 18.4869 73.9864 18.3016 72.5642V72.5576Z" fill="#327435"/>
<path d="M11.0917 107.516C13.8963 110.327 16.2974 108.184 17.2168 112.563C14.7959 111.405 12.3617 109.844 11.0917 107.516Z" fill="#327435"/>
</svg>
