<svg width="260" height="260" viewBox="0 0 260 260" fill="none" xmlns="http://www.w3.org/2000/svg">
<path d="M137.019 194.361C151.682 201.933 163.947 208.99 180.279 213.422C183.124 214.191 186.47 215.091 189.342 215.586C191.266 215.916 196.358 216.727 198.027 216.445C185.543 228.016 169.492 234.873 152.871 238.102C148.837 238.886 141.884 240.494 138.139 240.775C138.359 239.69 137.603 240.095 136.95 239.923C130.251 238.151 129.55 237.512 123.792 234.351C111.527 227.617 99.3244 225.755 86.4824 232.544C74.5199 228.215 61.5679 223.261 53.3913 213.044C50.3886 209.292 53.4875 206.599 56.3596 204.104C77.5981 185.717 112.166 181.533 137.012 194.361H137.019Z" fill="#FEFEFE"/>
<path d="M198.034 216.445C196.358 216.727 191.266 215.916 189.349 215.586C186.47 215.091 183.124 214.191 180.286 213.422C163.954 208.99 151.689 201.933 137.026 194.361C143.052 195.976 147.669 199.46 153.936 200.848C156.808 201.48 158.903 201.157 161.501 201.521C166.269 202.194 170.825 203.61 175.765 203.342C184.697 202.861 195.41 200.188 203.943 197.453C209.447 195.694 212.092 194.987 216.579 191.372C218.393 189.916 220.846 188.81 219.458 192.383C217.438 197.577 209.598 207.471 205.331 211.189C204.369 212.027 198.831 216.308 198.041 216.438L198.034 216.445Z" fill="#D2D1FE"/>
<path d="M233.867 129.691C238.237 128.805 240.937 133.937 240.999 137.655C241.047 140.32 239.357 147.295 238.47 150.022C236.938 154.715 232.218 163.813 228.356 166.863C226.103 168.65 224.055 169.193 224.247 165.407C224.357 163.263 225.656 159.23 226.034 156.687C227.023 150.002 227.497 142.347 228.803 135.875C229.208 133.855 231.675 130.138 233.86 129.698L233.867 129.691Z" fill="#FEFEFE"/>
<path d="M86.4893 232.544C99.3313 225.755 111.534 227.617 123.799 234.351C129.557 237.511 130.265 238.15 136.957 239.923C137.61 240.095 138.366 239.696 138.146 240.775C120.886 242.06 102.616 238.37 86.4893 232.537V232.544Z" fill="#D3D2FE"/>
<path d="M66.6456 70.463C62.1862 71.8441 58.4346 72.9022 54.2845 75.1353C47.8944 78.5709 35.0936 86.9879 38.9483 95.5424C35.9388 93.9827 34.2485 92.6222 33.1491 89.1798C30.1052 93.969 27.2468 100.593 31.2664 105.657C33.0254 107.869 35.9594 108.941 38.5772 109.766C37.8833 113.352 36.7908 116.953 36.7083 120.622C27.7347 122.182 22.0248 121.371 18.4106 112.528C16.528 107.917 18.6168 101.177 19.4894 96.2914C23.3784 92.4436 26.1475 88.0873 32.2146 87.675L27.1644 78.3166C26.5941 77.6845 25.7696 78.0349 25.1031 77.9456C21.8805 77.5196 20.6437 80.0275 16.3974 79.3542C13.3948 78.8732 9.93174 75.2384 11.3128 72.2014C12.4122 69.7827 17.2494 67.1099 18.7473 65.0417C19.6337 63.8118 19.3863 62.6025 20.2383 61.4825C21.3515 63.1865 23.2891 61.6611 24.0587 60.2457C24.4297 59.5586 25.7764 55.484 25.7696 54.8519C25.7696 54.0136 25.0618 53.7319 24.3541 53.622C27.7278 48.7572 32.5857 45.0812 38.2062 43.1436C37.5397 50.5231 40.9546 56.6933 46.2454 61.4962C52.4293 67.1099 58.7851 68.5322 66.6524 70.4699L66.6456 70.463ZM43.332 81.2025C44.6238 80.1512 44.6925 76.3103 42.7961 75.7675C38.0619 74.4207 39.0376 84.693 43.332 81.2025Z" fill="#FEFDFD"/>
<path d="M61.7808 40.8896C64.8659 42.4494 67.8067 41.3157 70.8438 42.1264C73.3036 42.7792 74.5129 43.8373 74.1212 46.6614C73.6265 50.2343 69.0023 52.8041 65.9035 53.8004C68.1846 57.607 73.1387 60.163 75.6329 63.5367C76.7597 65.0552 76.8559 66.4776 77.5018 67.838C75.1931 70.5109 72.9188 70.4697 69.6413 70.8338C68.8305 70.6483 67.7449 70.7308 66.6455 70.4628C58.7782 68.5251 52.4155 67.1028 46.2384 61.4892C40.9477 56.6863 37.5397 50.516 38.1993 43.1365C43.3801 41.35 48.8563 41.0683 54.2982 41.2676C54.2845 41.7004 55.535 43.8442 55.906 44.1465C57.6307 45.5276 61.9595 43.2327 61.7877 40.8965L61.7808 40.8896Z" fill="#524B46"/>
<path d="M69.6413 70.8408C73.3036 71.6928 77.3919 72.4692 79.7487 75.7055C78.9516 81.5528 75.1657 84.4799 70.514 87.62C67.0372 89.963 64.1514 90.8769 60.5234 92.6015C52.5255 96.415 48.0731 100.277 38.9483 95.5423C35.1005 86.9878 47.8944 78.5708 54.2845 75.1352C58.4278 72.9021 62.1862 71.8508 66.6456 70.4629C67.7381 70.7309 68.8306 70.6484 69.6413 70.8339V70.8408ZM68.4664 84.6311C69.0917 84.2394 69.6551 81.223 66.8517 81.6971C64.0483 82.1712 66.3226 85.9778 68.4664 84.6311ZM58.1048 87.8673C58.1048 86.8985 57.3215 86.1152 56.3527 86.1152C55.3839 86.1152 54.6006 86.8985 54.6006 87.8673C54.6006 88.8362 55.3839 89.6195 56.3527 89.6195C57.3215 89.6195 58.1048 88.8362 58.1048 87.8673Z" fill="#FEBDEA"/>
<path d="M25.0962 77.9527C25.7627 78.042 26.5872 77.6916 27.1575 78.3237L32.2078 87.6821C26.1406 88.0944 23.3716 92.4438 19.4825 96.2985C20.6094 89.9702 21.1797 83.2915 25.0962 77.9596V77.9527Z" fill="#D3D2FE"/>
<path d="M36.7015 120.622C36.7908 116.953 37.8833 113.352 38.5704 109.766C40.8035 110.466 43.1053 109.738 44.0054 113.119C45.3178 118.045 40.6386 119.935 36.6946 120.615L36.7015 120.622Z" fill="#C78756"/>
<path d="M24.3472 53.6214C25.055 53.7314 25.7558 54.0131 25.7627 54.8514C25.7627 55.4835 24.4228 59.5649 24.0518 60.2452C23.2822 61.6606 21.3446 63.186 20.2315 61.482C19.4482 60.2864 17.4281 55.614 18.1701 54.3635C18.7473 53.4016 23.2204 53.4428 24.3472 53.6214Z" fill="#FEF6DE"/>
<path d="M61.7808 40.8897C61.9526 43.2259 57.6238 45.5277 55.8992 44.1398C55.5282 43.8443 54.2776 41.6936 54.2914 41.2608C54.3257 40.1751 57.4521 36.1143 58.6133 36.0044C60.118 35.8532 61.6846 39.6461 61.774 40.8897H61.7808Z" fill="#FDF5DD"/>
<path d="M79.7487 75.7052C77.3919 72.4621 73.3036 71.6925 69.6414 70.8405C72.9189 70.4832 75.1932 70.5176 77.5019 67.8447C78.5463 70.0572 80.0923 71.6582 80.1472 74.441C80.161 75.2174 79.7762 75.506 79.7487 75.7052Z" fill="#FBF9FA"/>
<path d="M43.332 81.2021C39.0376 84.6926 38.0619 74.4204 42.7961 75.7671C44.6994 76.3099 44.6307 80.1508 43.332 81.2021Z" fill="#58514D"/>
<path d="M56.3527 89.6195C57.3204 89.6195 58.1048 88.835 58.1048 87.8674C58.1048 86.8997 57.3204 86.1152 56.3527 86.1152C55.385 86.1152 54.6006 86.8997 54.6006 87.8674C54.6006 88.835 55.385 89.6195 56.3527 89.6195Z" fill="#B06398"/>
<path d="M68.4664 84.6314C66.3226 85.9712 63.9315 82.1853 66.8517 81.6974C69.7719 81.2096 69.0916 84.2466 68.4664 84.6314Z" fill="#AC6095"/>
</svg>
