<svg width="260" height="260" viewBox="0 0 260 260" fill="none" xmlns="http://www.w3.org/2000/svg">
<path d="M240.228 79.6457C235.297 81.2265 230.064 82.9227 224.802 82.2875C209.066 80.3819 202.664 68.3852 190.949 61.0876C188.134 59.3336 181.543 56.1937 178.36 54.8006C162.992 48.0876 142.969 54.5118 130.142 64.1409C124.974 68.0243 120.86 73.4885 114.912 76.8234C111.851 78.5413 98.2956 83.9694 95.3217 83.9694H85.8874C85.7069 83.9694 85.0428 84.3953 84.3282 84.4025C82.6392 84.4314 80.8274 83.2259 79.0084 83.5724C78.6692 83.1826 78.4454 82.5041 77.8318 82.3958C76.2727 86.5824 74.5476 92.1765 71.9274 95.764C66.1384 103.69 53.9829 119.902 43.7619 120.883C37.2294 121.511 33.0572 118.285 27.8818 115.029C27.3404 113.968 25.3193 109.024 25.0378 108.829C24.5181 108.468 21.8473 108.201 20.6635 107.501C15.5169 104.455 15.8129 97.6263 16.5924 92.5302C17.2276 88.3798 18.2021 84.3664 18.8445 80.2304C19.7829 74.167 22.9734 64.7256 26.8929 59.9688C28.9573 57.4569 33.1077 53.4147 35.5475 50.9244C60.6814 25.2058 84.2344 17.3813 119.423 12.112C139.945 9.04422 160.264 12.6894 179.97 18.5795C201.848 25.1192 212.163 34.7483 228.043 49.9427C233.493 55.1615 240.386 62.6035 240.964 70.4425C241.202 73.6835 240.184 76.3903 240.228 79.6313V79.6457Z" fill="#FEFEFE"/>
<path d="M240.227 79.6455C240.256 82.0131 240.877 84.3446 240.617 86.9143C239.628 96.6372 227.249 96.0309 226.036 86.7627C221.301 87.3474 217.865 85.3262 213.801 83.4639C196.608 75.5888 183.637 62.2568 163.765 61.1452C154.273 60.6183 144.29 61.9103 134.942 63.4261C129.153 69.244 122.541 74.1164 116.355 79.4434C111.129 83.9476 109.7 87.0586 102.201 89.2746C92.095 92.263 85.8801 91.505 79.0011 83.5722C80.8273 83.2257 82.632 84.4312 84.321 84.4023C85.0357 84.3879 85.6997 83.9692 85.8801 83.9692H95.3144C98.2883 83.9692 111.851 78.5411 114.905 76.8232C120.86 73.4811 124.967 68.0169 130.135 64.1407C142.962 54.5116 162.978 48.0946 178.353 54.8004C181.543 56.1935 188.126 59.3334 190.941 61.0874C202.649 68.385 209.052 80.3817 224.795 82.2873C230.057 82.9226 235.29 81.2263 240.22 79.6455H240.227Z" fill="#D3D2FE"/>
<path d="M27.8817 115.037C33.0572 118.285 37.2293 121.512 43.7618 120.891C53.9756 119.909 66.1311 103.697 71.9273 95.7715C67.8635 104.801 58.9201 125.554 47.7463 126.839C44.3826 127.229 38.7163 125.936 35.7424 124.291C31.5775 121.981 29.9245 119.065 27.8817 115.044V115.037Z" fill="#D3D2FE"/>
<path d="M189.108 233.791C186.74 234.332 184.337 235.898 181.825 235.797C179.768 235.711 178.8 233.848 177.025 233.487C171.683 232.39 166.818 235.357 163.151 238.901C162.083 238.172 161.52 238.093 161.058 236.476C157.788 225.071 170.485 222.22 178.901 224.58C184.481 220.892 190.277 211.493 198.051 214.034C199.17 214.402 202.621 216.467 202.498 217.831C202.317 219.809 193.583 230.521 191.656 232.203C190.812 232.939 189.895 233.264 189.115 233.791H189.108Z" fill="#FEFEFE"/>
<path d="M189.108 233.791C182.756 238.057 170.081 243.666 163.151 238.901C166.811 235.35 171.683 232.391 177.025 233.488C178.8 233.849 179.768 235.711 181.825 235.798C184.337 235.899 186.74 234.332 189.108 233.791Z" fill="#D3D2FE"/>
<path d="M21.5947 217.275C20.9956 216.936 19.7829 215.853 19.3642 215.781C18.6208 215.651 16.6141 217.874 14.9034 216.698C12.8101 215.261 16.9823 214.958 17.271 214.143C16.1666 213.652 10.8035 211.226 11.0056 210.057C11.4531 207.495 16.0006 211.522 16.4842 210.988C16.0439 205.748 18.3898 205.474 18.8662 210.815C18.924 211.486 18.4259 212.454 18.4764 212.526C18.5991 212.699 21.2699 214.345 21.9917 214.922C22.8362 215.601 25.0883 216.561 24.7419 217.867C24.3954 219.174 22.3454 217.708 21.5947 217.283V217.275Z" fill="#767473"/>
<path d="M64.4565 197.613C64.637 196.682 66.1456 195.39 66.2394 194.675C66.3694 193.715 65.6259 188.439 65.8063 188.164C67.1706 186.1 68.6142 189.651 67.9934 191.124C67.9501 191.463 68.7225 191.362 68.773 191.319C69.004 191.124 70.6064 187.991 70.8302 187.868C72.974 186.685 72.5048 189.745 71.5304 190.922C72.7069 190.597 73.6525 191.997 73.0678 192.856C72.9596 193.015 70.2094 193.506 69.3649 194.062C68.2533 194.798 66.9324 197.108 66.4199 198.393C66.3188 198.335 65.0123 197.858 64.4565 197.606V197.613Z" fill="#757372"/>
<path d="M75.8613 227.107C68.9318 249.548 41.6974 253.887 26.5031 236.548C20.8656 230.117 21.703 225.757 21.5947 218.062C23.8179 222.567 26.1133 226.313 30.4298 229.085C39.7702 235.076 55.7874 239.082 66.3333 234.693C69.8485 233.228 72.9018 229.438 75.8541 227.107H75.8613Z" fill="#D2D1FE"/>
<path d="M51.3987 202.659C51.0161 203.316 45.5736 206.16 44.4981 206.564C43.2855 207.026 36.8035 208.924 39.9218 205.921C40.7952 205.077 45.7325 203.345 47.4071 202.399C48.0495 202.038 49.9839 200.436 50.15 200.4C51.0089 200.248 51.839 201.879 51.3915 202.652L51.3987 202.659Z" fill="#D3D2FE"/>
<path d="M21.9845 214.915L24.7346 209.025C2.77681 199.352 10.6375 170.45 32.5015 166.646C46.4904 164.214 63.0778 174.377 61.2589 189.903C60.999 192.148 59.7141 193.895 59.3316 196.039C61.1217 196.219 62.8324 196.876 64.4421 197.612C64.9979 197.865 66.3116 198.341 66.4054 198.399C76.5976 204.325 79.1096 216.539 75.8397 227.106C72.8875 229.438 69.8341 233.227 66.3188 234.692C55.773 239.081 39.7486 235.075 30.4154 229.084C26.0917 226.312 23.8035 222.573 21.5803 218.062C21.5803 217.802 21.5803 217.535 21.5803 217.275C22.331 217.701 24.3737 219.188 24.7274 217.86C25.0811 216.531 22.8218 215.593 21.9772 214.915H21.9845ZM45.1838 179.921C43.8124 179.408 37.2654 181.732 36.5148 182.952C35.4104 184.728 38.1894 187.651 39.6908 187.233C41.1922 186.814 45.7758 182.505 45.5809 180.707C51.5576 182.144 46.7719 174.334 45.1911 179.921H45.1838ZM30.6391 183.847C25.4636 182.714 27.853 188.142 30.2711 186.431C30.8846 185.998 30.5886 184.54 30.6391 183.847ZM46.3676 187.002C44.8735 187.262 42.5276 187.493 41.1561 187.882C40.9757 187.933 38.0523 189.413 37.7491 189.586C37.3666 189.817 36.8324 190.221 36.9335 190.726C38.341 192.343 40.0301 190.336 41.25 189.939C42.9823 189.376 46.4109 189.564 46.3604 186.994L46.3676 187.002ZM51.3987 202.658C51.8463 201.886 51.0162 200.247 50.1572 200.406C49.9912 200.435 48.0568 202.044 47.4143 202.405C45.7397 203.351 40.7952 205.083 39.929 205.928C36.8108 208.931 43.2927 207.032 44.5054 206.57C45.5809 206.159 51.0234 203.322 51.406 202.665L51.3987 202.658Z" fill="#FEFEFE"/>
<path d="M45.1838 179.92C45.2272 179.935 45.5664 180.613 45.5737 180.707C45.7758 182.504 41.2427 186.792 39.6836 187.232C38.1244 187.673 35.4104 184.728 36.5075 182.952C37.2654 181.732 43.8052 179.408 45.1766 179.92H45.1838Z" fill="#FE7F25"/>
<path d="M46.3676 187.001C46.4181 189.571 42.9823 189.383 41.2571 189.946C40.0373 190.343 38.341 192.342 36.9406 190.733C36.8396 190.227 37.3737 189.816 37.7563 189.592C38.0523 189.412 40.9756 187.939 41.1633 187.889C42.5348 187.499 44.8807 187.268 46.3748 187.008L46.3676 187.001Z" fill="#787675"/>
<path d="M45.1838 179.92C46.7718 174.333 51.5576 182.143 45.5737 180.707C45.5664 180.613 45.2199 179.935 45.1838 179.92Z" fill="#413F3E"/>
<path d="M30.6391 183.848C30.5886 184.54 30.8846 185.999 30.2711 186.432C27.853 188.142 25.4636 182.714 30.6391 183.848Z" fill="#413F3E"/>
</svg>
