<svg width="260" height="260" viewBox="0 0 260 260" fill="none" xmlns="http://www.w3.org/2000/svg">
<path d="M132.637 17.3814C135.422 16.1409 137.995 16.5632 140.674 17.7906C141.42 18.1337 143.254 19.5062 143.584 19.5194C144.429 19.5656 147.332 18.2855 148.672 18.1337C153.39 17.6124 153.786 18.9057 157.435 20.0803C160.154 20.9513 162.754 20.6214 165.314 22.6208C165.802 23.0035 166.026 23.9999 166.673 24.1649C167.214 24.3035 169.293 23.1751 170.547 23.1091C175.258 22.8452 178.016 25.7155 179.369 29.9585C184.516 26.6592 190.686 31.7402 190.87 37.1511C194.691 36.2207 198.987 36.7089 201.303 40.193C201.686 40.7605 201.818 41.8361 202.181 42.1925C202.544 42.5488 205.744 43.5848 207.011 44.5548C208.957 46.0461 209.65 48.3292 210.647 49.187C211.241 49.7017 212.356 49.7875 213.134 50.289C215.919 52.0971 217.688 56.2344 218.229 59.3952C223.211 59.1115 226.477 63.1234 227.381 67.6963C227.539 68.4882 227.256 69.6759 227.355 69.8871C227.533 70.283 231.083 72.7179 232.139 74.7767C232.897 76.2548 233.208 79.5805 233.445 79.9434C233.571 80.1348 235.755 80.9267 236.481 81.5799C237.78 82.7479 238.843 85.2026 239.034 86.9315C239.206 88.4294 238.566 91.9069 238.731 92.6129C238.915 93.4047 241.179 94.8499 241.515 97.3838C241.733 98.9939 240.816 101.765 240.875 101.99C240.921 102.174 243.211 103.956 243.713 104.537C246.161 107.335 247.461 111.399 245.824 114.93C245.257 116.157 242.954 117.846 242.947 118.196C242.947 119.575 243.95 119.476 244.564 120.215C248.53 124.979 246.972 128.523 244.683 133.564C244.406 134.165 243.436 135.201 243.383 135.524C243.35 135.715 244.94 137.985 245.244 138.942C246.26 142.169 245.844 146.993 243.304 149.441C242.743 149.982 241.278 150.503 240.981 151.097C240.829 151.394 241.258 153.618 241.179 154.508C240.961 156.904 239.621 158.105 237.978 159.589C238.889 161.028 239.278 162.427 239.74 164.03C239.219 164.585 239.206 165.469 239.021 166.188C238.256 167.132 237.906 168.115 236.837 168.861C235.9 169.514 233.98 169.804 233.59 170.286C233.307 170.629 233.003 173.262 232.614 174.344C232.132 175.677 231.017 177.591 229.855 178.415C228.608 179.313 226.385 179.524 225.797 179.933C225.599 180.072 223.976 183.173 223.211 183.998C220.142 187.271 213.636 190.049 209.538 191.718L217.239 180.547C255.9 118.559 214.335 35.4222 141.598 29.2393C138.497 27.3388 134.472 27.583 131.172 25.643C132.215 22.7594 133.046 20.595 132.611 17.3749L132.637 17.3814Z" fill="#FEFEC7"/>
<path d="M141.625 29.2457C139.487 29.0609 137.137 29.3249 134.96 29.2589C133.218 29.2061 131.654 28.4869 129.76 29.2457C130.149 28.4143 130.889 26.5138 131.199 25.6494C134.498 27.5828 138.517 27.3453 141.625 29.2457Z" fill="#E9B056"/>
<path d="M155.64 225.522C156.148 225.463 157.851 225.166 157.976 225.166H164.086C166.158 225.166 169.9 227.212 172.025 227.654C176.083 228.505 180.972 228.32 185.116 228.399C182.173 232.174 178.373 234.998 173.397 235.552C171.761 235.737 168.633 235.143 167.722 235.315C167.511 235.354 165.347 237.426 164.595 237.895C160.814 240.264 156.868 240.224 153.298 237.446C150.143 240.554 143.637 242.626 139.308 242.389C138.668 242.356 138.008 241.834 137.481 241.848C136.517 241.874 134.194 243.141 132.446 243.167C130.44 243.194 128.17 241.874 127.055 241.848C126.527 241.834 125.867 242.356 125.227 242.389C120.905 242.626 114.392 240.554 111.238 237.446C107.668 240.224 103.728 240.27 99.9407 237.895C99.1885 237.42 97.0241 235.354 96.813 235.315C96.0013 235.163 92.9527 235.731 91.468 235.585C88.1885 235.269 83.7674 233.216 81.3985 230.914C80.5274 230.069 79.2803 227.66 78.9702 227.41C78.66 227.159 77.3073 226.987 76.654 226.664C73.9816 225.331 71.5664 223.8 69.7122 221.385C69.2833 220.824 68.6828 219.174 68.5706 219.109C68.2869 218.937 67.0859 219.043 66.4525 218.891C61.3517 217.637 55.6702 215.195 54.9708 209.342C49.5731 210.471 44.1753 205.792 43.4957 200.507C43.3505 199.405 43.7398 196.686 43.2977 196.026C43.1064 195.743 40.711 195.063 39.9852 194.667C37.8076 193.499 35.8742 191.335 35.3529 188.873C35.122 187.791 35.3991 186.478 35.0098 185.62C34.8712 185.317 31.7171 180.216 31.4927 179.972C30.5491 178.923 28.7081 178.705 27.6457 176.989C25.9828 174.303 24.828 169.394 25.1316 166.029C25.2306 164.966 26.029 163.369 25.7914 162.512C25.5341 161.555 23.3433 160.46 23.0002 158.091C22.7297 156.243 23.152 150.535 23.3301 148.417C23.4753 146.655 23.858 144.887 24.4057 143.197C26.1742 137.707 29.4933 132.587 33.0302 128.1C32.8916 188.543 85.2191 234.78 145.32 227.271C148.778 226.836 152.156 225.932 155.614 225.522H155.64Z" fill="#FEFEC7"/>
<path d="M209.202 212.219C207.077 215.558 203.764 217.491 200.049 218.699C198.532 219.194 197.001 219.273 195.542 219.768C187.472 222.499 180.874 224.684 171.978 224.453C169.491 224.387 166.68 223.456 164.265 223.364L171.814 219.768C173.668 219.847 175.258 220.183 177.205 220.124C177.68 220.111 178.392 220.309 178.643 219.768C184.529 219.662 203.045 214.423 209.202 212.219Z" fill="#D48E65"/>
<path d="M195.542 219.769C194.289 223.061 190.91 225.133 187.881 226.664C186.067 227.581 186.456 226.684 185.116 228.4C180.966 228.32 176.083 228.505 172.025 227.654C169.9 227.205 166.158 225.166 164.086 225.166H157.976C157.851 225.166 156.148 225.463 155.64 225.523C157.91 224.784 160.833 223.55 163.189 223.365C163.539 223.338 163.915 223.352 164.265 223.365C166.68 223.457 169.491 224.394 171.978 224.454C180.874 224.685 187.472 222.5 195.542 219.769Z" fill="#E9B056"/>
<path d="M209.202 212.22C203.045 214.424 184.529 219.664 178.643 219.769C178.168 219.776 177.455 219.591 177.205 220.126C175.258 220.185 173.668 219.848 171.814 219.769C169.959 219.69 168.013 219.941 166.244 219.769C163.479 219.499 157.706 217.328 155.997 215.097C155.515 214.47 155.027 213.131 154.941 212.366C154.452 207.779 158.992 207.641 161.223 205.048C164.766 200.923 162.371 195.427 163.202 190.854C163.295 190.339 164.021 189.085 164.502 188.92C167.762 187.799 172.381 192.121 175.41 193.348C182.51 196.225 189.828 196.278 197.331 195.691C208.172 194.839 215.609 191.811 224.405 185.562C232.211 180.012 236.619 175.756 239.028 166.214C239.212 165.495 239.226 164.611 239.747 164.057C242.644 174.186 238.249 184.724 232.706 193.144C227.084 201.689 218.928 208.736 209.188 212.227L209.202 212.22Z" fill="#FC5F50"/>
<path d="M197.344 195.684C201.699 194.793 205.48 193.394 209.565 191.731C213.649 190.069 220.169 187.284 223.237 184.011C224.009 183.193 225.626 180.085 225.824 179.946C226.404 179.537 228.628 179.326 229.882 178.428C231.037 177.597 232.152 175.69 232.64 174.357C233.036 173.275 233.333 170.649 233.617 170.299C234.013 169.817 235.926 169.527 236.863 168.874C237.932 168.128 238.282 167.145 239.047 166.201C236.632 175.743 232.224 179.999 224.425 185.548C215.629 191.804 208.192 194.833 197.35 195.677L197.344 195.684Z" fill="#C74D40"/>
<path d="M171.82 219.77L164.271 223.366C163.922 223.353 163.539 223.339 163.196 223.366C159.547 221.842 155 219.941 156.003 215.098C157.712 217.321 163.486 219.499 166.251 219.77C168.019 219.941 170.006 219.69 171.82 219.77Z" fill="#D19089"/>
<path d="M178.65 219.77C178.399 220.311 177.686 220.113 177.211 220.126C177.462 219.592 178.175 219.776 178.65 219.77Z" fill="#FC5F50"/>
<path d="M44.2017 40.7452C44.1754 42.7842 44.0632 44.5988 44.6637 46.5784C45.0398 47.8123 48.1873 52.1609 47.798 52.6096C47.5275 52.9197 45.2179 52.6228 44.6439 55.3876C43.1592 62.5802 50.6223 63.1015 50.8532 55.8429C53.6972 57.8885 56.8844 59.525 60.3751 60.1585C60.3751 61.9863 60.1111 63.4644 60.0188 65.1933C59.735 70.2808 59.6954 81.0037 57.6498 85.2862C57.2605 86.0979 56.4621 86.7907 56.0662 87.477C53.2551 89.2322 49.9492 89.252 46.7224 89.2718C43.4957 89.2916 40.5725 88.9287 37.4183 88.5922C33.5383 98.1734 30.5359 108.388 29.8298 118.748C27.5599 125.096 27.2629 129.735 26.1412 136.089C25.7321 138.406 24.5707 140.755 24.4387 143.19C23.8976 144.872 23.5149 146.647 23.3631 148.409C23.185 150.527 22.7627 156.229 23.0332 158.083C23.3763 160.458 25.5671 161.547 25.8244 162.504C26.0554 163.368 25.257 164.959 25.1646 166.021C24.861 169.386 26.0092 174.296 27.6787 176.981C17.5035 170.878 10.212 160.762 7.49992 149.168C4.70208 137.185 5.94923 118.049 10.1526 106.435C12.3235 100.443 15.8208 94.6432 19.2588 89.2982C20.0374 88.0841 24.2276 82.7061 24.1088 81.9341C18.0116 78.0871 12.0398 72.8147 10.2978 65.4836C7.84965 55.2095 13.8478 50.1087 22.0434 45.7074C29.7243 41.5832 35.4123 40.0655 44.2149 40.7386L44.2017 40.7452Z" fill="#FC5F50"/>
<path d="M105.312 20.2573C105.886 22.9891 106.163 25.7737 106.566 28.5254C109.595 25.7276 111.937 23.2531 113.765 19.5314C114.002 19.0431 113.838 18.3041 113.937 18.0995C115.032 15.79 120.601 13.6124 123.089 13.4145C125.887 13.1901 132.155 13.8961 132.631 17.3802C133.066 20.6004 132.235 22.7648 131.192 25.6484C130.882 26.5128 130.143 28.4132 129.754 29.2447C126.797 35.5662 122.601 42.2176 116.814 46.1373L104.811 46.4738C104.428 46.5794 104.045 49.1727 103.874 49.7335C103.656 50.4396 103.398 51.1919 103.154 51.8913C102.079 54.9663 102.085 55.8241 99.2017 57.6453C98.4956 57.3682 99.6372 56.7149 99.5118 56.0815C99.4524 55.7911 97.8357 54.181 97.5124 54.1085C97.0571 54.0029 94.3582 54.478 93.2563 54.4252C91.7782 54.3526 89.693 54.2074 88.2413 54.0491C85.5424 53.7521 75.8028 51.3568 74.1201 52.1618C72.8927 52.7491 73.1567 54.4054 73.678 55.4942C72.8532 54.9069 69.7386 52.0101 69.4746 51.9375C68.7554 51.7462 67.8316 52.8217 67.2113 53.3364C67.3499 51.3172 69.4614 49.331 69.633 47.3514C69.7452 46.0647 67.9173 43.5968 68.2737 42.0923C68.3661 41.7095 70.7614 41.0101 70.4578 38.8061C70.0751 36.0017 67.2443 38.6214 66.6636 38.6214C65.0667 38.6214 62.7968 30.5578 62.9024 28.9015C68.1483 18.5878 73.4668 10.5176 84.5856 5.83255C87.4296 4.63159 90.2803 3.45703 93.4674 4.26867C94.3384 4.49302 99.2215 7.52844 99.9407 8.22131C102.679 10.8608 104.547 16.6016 105.319 20.2771L105.312 20.2573Z" fill="#FC5F50"/>
<path d="M59.2995 33.1963C64.3805 38.858 67.7062 45.8789 66.8484 53.6852C65.5353 54.7937 64.1364 56.6612 62.5329 57.2814C61.774 57.5718 61.2197 57.7697 60.3751 57.6378C58.5803 57.3672 54.4759 54.9059 53.011 53.6786C50.101 51.2304 45.8514 44.9815 47.4285 41.1015C48.2401 39.1087 54.753 34.6942 56.891 33.8496C57.8016 33.4866 58.4813 33.4338 59.2929 33.1963H59.2995Z" fill="#FC5F50"/>
<path d="M47.4351 41.109C45.8514 44.989 50.1076 51.2314 53.0176 53.6861C54.4759 54.9134 58.5869 57.3813 60.3817 57.6453C60.3817 58.2458 60.3817 58.8463 60.3817 59.4401C60.3817 59.6777 60.3817 59.9218 60.3817 60.1594C56.891 59.5193 53.6973 57.8895 50.8598 55.8439C50.6223 63.1024 43.1658 62.5811 44.6505 55.3886C45.2246 52.6237 47.5275 52.914 47.8046 52.6105C48.194 52.1684 45.0398 47.8133 44.6703 46.5793C44.0698 44.5997 44.182 42.7917 44.2084 40.7461C45.1916 40.8187 46.3133 41.373 47.4417 41.1024L47.4351 41.109Z" fill="#C6493D"/>
<path d="M62.8958 28.8882C62.7903 30.551 65.0602 38.608 66.6571 38.608C67.2378 38.608 70.062 35.9883 70.4513 38.7928C70.7549 40.9967 68.3595 41.7028 68.2672 42.079C67.9108 43.59 69.7387 46.0579 69.6265 47.3381C69.4549 49.3243 67.3433 51.3039 67.2048 53.3231C67.0794 53.4287 66.9738 53.5738 66.8484 53.6794C67.7063 45.8732 64.3805 38.8522 59.2996 33.1905C59.7483 33.0585 60.7645 32.9596 61.0086 32.7484C61.1736 32.6098 62.5395 29.5745 62.8892 28.875L62.8958 28.8882Z" fill="#C6493D"/>
<path d="M113.943 18.1001C113.844 18.3046 114.016 19.0437 113.772 19.532C111.944 23.2536 109.595 25.7281 106.572 28.526C106.17 25.7743 105.893 22.9897 105.319 20.2579C108.374 20.2579 110.631 17.4798 113.943 18.1001Z" fill="#FEFAC4"/>
<path d="M46.7224 89.2783C42.9942 94.4186 39.2461 99.5722 36.1381 105.135C35.9204 105.524 36.0128 106.026 35.9336 106.177C35.4651 107.035 34.9438 107.788 34.4951 108.692C32.852 111.997 31.077 115.251 29.8232 118.755C30.5293 108.401 33.5383 98.1799 37.4117 88.5986C40.5725 88.9352 43.5287 89.2981 46.7158 89.2783H46.7224Z" fill="#C6493D"/>
<path d="M73.678 55.4881C78.1651 58.7017 82.1111 60.16 87.7002 60.5229C86.9876 61.1762 85.4765 60.8727 84.4669 60.8793C80.4813 60.9057 76.1987 61.0706 72.2461 60.8793C71.4807 60.8397 70.7284 60.9057 69.9564 60.8331C69.0062 60.7407 66.6042 59.8565 66.0961 59.9687C64.651 60.292 61.0944 63.941 60.0188 65.1882C60.1177 63.4659 60.3751 61.9878 60.3751 60.1534C60.3751 59.9159 60.3751 59.6717 60.3751 59.4342C61.5167 59.322 62.1237 58.22 62.5329 57.2764C64.1363 56.6561 65.5353 54.7887 66.8484 53.6801C66.9804 53.5679 67.0793 53.4294 67.2047 53.3238C67.825 52.8091 68.7488 51.7335 69.4681 51.9249C69.732 51.9975 72.8532 54.8943 73.6714 55.4816L73.678 55.4881Z" fill="#D1928C"/>
<path d="M33.0566 128.099C29.5131 132.586 26.2006 137.707 24.4321 143.197C24.5707 140.762 25.7255 138.413 26.1346 136.097C27.2564 129.742 27.5533 125.103 29.8232 118.755C31.077 115.245 32.852 111.998 34.4951 108.692C33.7231 115.298 33.0698 121.434 33.0566 128.106V128.099Z" fill="#E9B056"/>
<path d="M35.9336 106.172C36.0128 106.026 35.9204 105.518 36.1382 105.129C39.2461 99.5663 42.9876 94.4127 46.7224 89.2724C49.9492 89.2526 53.2617 89.2262 56.0661 87.4775C52.5623 93.5549 50.2527 95.8315 43.1393 97.7385L35.9336 106.172Z" fill="#D1938D"/>
<path d="M99.2017 57.6454C95.1105 60.2255 92.603 60.8391 87.7002 60.5224C82.1111 60.1661 78.1651 58.7078 73.678 55.4876C73.1567 54.4054 72.8928 52.7426 74.1201 52.1553C75.8028 51.3568 85.5358 53.7521 88.2413 54.0425C89.693 54.2009 91.7782 54.346 93.2563 54.4186C94.3582 54.4714 97.0637 53.9963 97.5124 54.1019C97.8291 54.1745 99.4524 55.7845 99.5118 56.0749C99.6372 56.7084 98.4956 57.3616 99.2017 57.6388V57.6454Z" fill="#C6493D"/>
<path d="M116.82 46.1436C113.455 48.4267 111.759 49.4957 107.476 49.7398C106.289 49.8058 105.075 49.6936 103.88 49.7398C104.052 49.179 104.434 46.5857 104.817 46.4801L116.82 46.1436Z" fill="#C6493D"/>
<path d="M107.47 49.7342L103.154 51.8919C103.398 51.1925 103.656 50.4402 103.874 49.7342C105.068 49.688 106.282 49.8002 107.47 49.7342Z" fill="#D1938D"/>
<path d="M60.3817 59.4393C60.3817 58.8388 60.3817 58.2383 60.3817 57.6444C61.2263 57.7698 61.7806 57.5784 62.5395 57.2881C62.1304 58.2317 61.5233 59.327 60.3817 59.4458V59.4393Z" fill="#D48E65"/>
</svg>
