<svg width="260" height="260" viewBox="0 0 260 260" fill="none" xmlns="http://www.w3.org/2000/svg">
<path d="M94.7575 41.3961C94.619 40.9198 93.5832 41.5235 93.345 41.6454C81.9626 47.644 71.4608 55.5314 60.3332 61.7405C59.9565 61.951 59.6408 62.2833 59.1534 62.2169L61.8619 59.3477C69.6884 52.2967 77.9303 45.7552 86.5156 39.6403C87.5403 38.9091 92.0102 36.328 92.3646 35.835C92.8133 35.2147 92.841 34.0294 92.2206 33.5198C90.9411 32.4729 89.0524 34.5389 88.0277 35.115C82.306 38.3275 76.817 41.2632 71.4276 45.0684C59.4248 53.554 48.1642 64.161 38.3327 75.0394C35.1035 75.8924 32.7384 73.6159 31.3869 70.9628C37.1861 58.7938 44.8021 48.2256 55.7359 40.2385C75.5541 25.7598 94.7851 16.6981 119.638 15.4518C122.491 15.3078 123.682 14.3884 126.656 15.6789C127.836 16.1885 129.403 17.3572 129.697 18.6699C130.733 23.306 127.232 25.5714 123.36 26.6903C112.255 29.8862 104.351 35.1981 94.763 41.3906L94.7575 41.3961Z" fill="#615B56"/>
<path d="M31.3924 70.9689C32.7439 73.622 35.1035 75.893 38.3382 75.0455C48.1698 64.1671 59.4303 53.5601 71.4331 45.0745C76.817 41.2637 82.306 38.3336 88.0332 35.121C89.0579 34.545 90.9467 32.479 92.2261 33.5258C92.8465 34.0299 92.8133 35.2207 92.3702 35.8411C92.0157 36.3341 87.5458 38.9207 86.5211 39.6463C77.9414 45.7558 69.6995 52.3027 61.8675 59.3538L59.1589 62.2229C59.6463 62.2894 59.9621 61.9571 60.3387 61.7466C71.4664 55.543 81.9681 47.6501 93.3506 41.6514C93.5887 41.5296 94.619 40.9258 94.763 41.4022C76.8114 53.0006 62.1776 64.793 45.7215 78.2082C38.244 84.3066 31.3481 87.3585 28.3793 97.528C26.4074 95.4786 23.5992 96.2429 21.1399 95.4176C21.1953 95.1905 21.9098 94.332 21.0125 94.5314C20.1152 94.7308 19.1791 95.4564 18.2818 95.7278C16.0385 96.4146 14.0944 96.7082 11.7847 97.528C13.3411 93.3461 18.099 89.131 22.0316 87.1037C23.1228 86.5443 27.565 85.37 27.7644 85.1429C28.069 84.794 27.0831 82.4953 27.1718 81.8362C31.0047 81.8085 28.5842 78.9671 28.7448 77.2445C28.9608 74.9846 30.4619 72.9241 31.3979 70.9744L31.3924 70.9689Z" fill="#383635"/>
<path d="M27.1718 81.8299C27.0831 82.489 28.069 84.7876 27.7644 85.1366C27.565 85.3637 23.1173 86.5379 22.0316 87.0974C18.1046 89.1246 13.3411 93.3342 11.7847 97.5216C11.5576 97.6047 11.3139 97.9149 10.9151 97.998C7.37573 98.7291 5.71961 95.5054 8.15119 92.8301C11.1533 89.5234 18.6197 82.8712 22.8847 81.9129C24.7845 81.4865 25.5267 81.8409 27.1773 81.8299H27.1718Z" fill="#615B56"/>
<path d="M28.3738 97.5215C27.5097 100.485 27.7257 106.838 22.868 105.907C18.6031 105.093 20.4254 98.1806 21.1344 95.4111C23.5936 96.2364 26.4074 95.4721 28.3738 97.5215Z" fill="#615B56"/>
<path d="M227.308 168.768C229.781 169.313 233.865 174.765 234.839 177.052C236.373 180.666 237.561 186.76 236.718 190.602C236.041 193.683 231.751 197.905 229.367 199.999C228.489 200.773 224.164 203.564 223.998 203.847C223.694 204.366 224.019 206.376 223.88 207.309C221.96 220.209 198.177 229.337 187.225 233.137C169.122 239.425 140.6 247.17 123.043 237.269C119.318 235.168 120.687 234.229 115.511 235.009C117.715 233.655 119.871 232.232 122.034 230.808C123.181 230.055 122.787 229.461 124.169 229.744C124.48 229.807 124.832 230.048 125.295 230.117C125.537 230.725 126.007 231.002 126.539 231.32C137.2 237.697 153.217 234.588 164.818 232.377C168.39 231.693 170.048 231.264 173.475 230.117C175.355 229.489 177.386 229.268 179.121 228.238C181.781 226.656 185.533 223.436 186.562 220.437C186.908 219.435 186.928 217.666 187.391 217.127C188.898 215.407 196.18 214.502 197.942 212.249C199.269 210.556 198.778 207.53 196.429 207.164C198.605 206.314 201.1 203.979 199.441 201.519C200.789 200.828 202.696 200.372 203.96 199.639C204.251 201.353 202.945 203.882 204.727 205.084C205.356 205.513 206.897 205.582 206.973 205.665C207.125 205.83 206.213 208.85 208.099 209.803C207.837 209.886 204.389 212.394 203.456 212.878C200.229 214.571 196.014 216.872 192.663 218.081C192.083 218.288 189.582 218.634 189.326 218.896C189.105 219.117 189.36 219.739 189.278 219.96C188.207 222.807 187.274 224.521 184.759 226.359C189.727 224.997 194.674 222.994 199.317 220.783C205.252 217.957 213.737 213.652 216.377 207.544C217.268 205.478 217.24 205.291 217.503 203.025C218.408 202.196 218.961 203.488 219.935 203.426C220.288 203.405 220.426 203.06 220.516 203.025C222.381 202.403 227.239 200.973 226.928 198.72C226.596 196.316 224.24 197.788 223.155 198.133C221.234 198.748 220.398 199.114 218.629 200.144C218.457 200.247 218.277 200.006 218.256 200.019L217.503 198.14C220.82 198.14 222.519 196.04 223.528 193.241H223.901C223.784 193.566 223.438 194.837 223.708 195.121C225.573 193.663 229.173 190.678 229.83 188.432C230.037 187.72 229.802 186.967 229.92 186.463C230.258 185.053 232.124 184.397 231.564 182.4C231.06 180.617 229.346 179.857 227.66 179.685C227.425 178.621 226.644 176.948 225.781 176.299C225.041 175.739 224.869 175.705 224.295 176.527C224.185 177.536 224.903 178.206 225.408 178.931C225.566 179.159 225.642 179.443 225.781 179.685C221.787 180.341 220.205 184.321 220.129 187.962C219.756 187.997 219.376 187.948 219.002 187.962C218.65 186.477 220.025 184.653 219.002 183.443C220.322 181.633 225.021 170.833 225.401 168.761C225.981 168.844 226.755 168.643 227.28 168.761L227.308 168.768Z" fill="#FDCB4A"/>
<path d="M123.789 180.812C122.234 180.853 120.251 180.984 118.897 181.565C117.328 181.406 113.362 182.242 111.746 182.691C110.467 182.152 108.139 182.532 106.764 182.788C103.192 183.458 96.6137 186.353 94.6375 189.483C93.6288 191.086 94.1677 191.667 94.4302 193.228C94.4648 193.428 94.8034 193.656 94.7135 194.092C94.679 194.251 93.228 196.835 93.0967 196.973C92.62 197.484 90.3536 198.231 89.7801 198.141C89.3932 198.079 86.1112 192.606 85.3926 191.715L86.8988 191.901C86.4704 185.856 92.1501 181.219 97.0421 178.711C105.679 174.289 116.631 173.211 123.782 180.798L123.789 180.812Z" fill="#F2961D"/>
<path d="M123.036 221.466C126.325 222.295 125.91 225.17 125.295 227.865C125.261 227.872 125.033 228.134 124.922 228.238L123.789 228.625C123.727 228.915 124.148 228.929 124.169 228.991C124.231 229.184 124.127 229.509 124.169 229.744C122.787 229.468 123.181 230.055 122.034 230.808C119.871 232.231 117.715 233.655 115.511 235.009C114.185 235.209 113.086 235.762 111.753 235.769V236.135L112.506 236.515C108.781 236.488 105.257 238.16 101.423 238.415C97.9679 238.643 91.3279 238.457 88.419 236.515C85.1922 234.366 86.2079 229.564 90.8304 230.145C93.2971 230.456 96.1646 231.914 99.1357 232.017C104.926 232.211 113.383 228.638 117.985 225.225C118.462 224.873 118.462 224.154 118.531 224.092C118.655 223.981 120.673 222.572 121.163 222.213C121.626 221.874 122.531 221.328 123.043 221.459L123.036 221.466Z" fill="#FEDF8F"/>
<path d="M117.391 220.333C117.156 221.791 117.888 222.876 118.517 224.099C118.448 224.161 118.448 224.88 117.971 225.232C113.369 228.639 104.912 232.218 99.1218 232.024C96.1507 231.928 93.2833 230.463 90.8165 230.152C86.1941 229.571 85.1784 234.367 88.4051 236.522C83.6514 235.279 79.8995 232.107 75.9818 229.371C80.0308 226.745 81.9793 227.471 85.7726 225.799C86.7745 225.357 88.3982 223.698 89.1582 223.726C90.4158 223.767 93.4422 224.88 95.1005 225.122C100.559 225.909 105.838 226.179 111.366 225.978L109.797 220.582C109.604 219.933 109.141 220.091 108.733 219.96L109.106 219.207C110.619 221.045 114.205 220.064 116.092 219.953C116.644 219.919 117.273 220.347 117.391 220.333Z" fill="#FDCB4B"/>
<path d="M236.718 190.602C237.561 186.76 236.373 180.666 234.839 177.052C236.649 170.875 234.666 164.069 227.308 168.768C226.783 168.65 226.002 168.851 225.428 168.768C225.58 167.939 225.38 166.688 225.428 165.755C225.504 164.284 225.767 162.867 225.428 161.236C229.083 160.2 231.681 159.544 235.419 160.85C247.401 165.023 242.053 182.988 236.725 190.602H236.718Z" fill="#F2961D"/>
<path d="M123.789 180.81C128.86 180.679 135.57 182.054 139.598 185.329C140.669 186.2 142.673 188.473 142.984 189.848C141.768 190.097 137.449 191.161 136.585 191.727C132.46 188.501 128.176 187.727 123.036 187.962C123.886 185.965 124.48 183.844 122.172 182.614C121.723 182.372 119.318 181.605 118.897 181.563C120.251 180.983 122.234 180.852 123.789 180.81Z" fill="#FDCB4A"/>
<path d="M165.198 181.191C165.039 183.451 165.136 185.766 165.571 187.97C163.754 188.053 161.902 187.859 160.085 187.956C159.594 187.984 159.221 188.35 159.173 188.35C158.924 188.364 158.668 188.336 158.419 188.35L158.226 187.977L157.666 188.35C152.595 188.633 148.028 188.826 142.984 189.856C142.673 188.481 140.669 186.208 139.598 185.337C141.526 185.427 143.502 185.206 145.43 185.337C147.724 185.496 151.683 186.719 153.68 186.45C156.561 186.063 161.833 181.668 165.191 181.191H165.198Z" fill="#F2961D"/>
<path d="M123.036 237.276C119.533 237.49 115.953 236.551 112.499 236.523L111.752 236.143V235.777C113.086 235.777 114.185 235.224 115.511 235.017C120.68 234.229 119.318 235.176 123.043 237.276H123.036Z" fill="#F2961D"/>
<path d="M225.421 161.243C225.76 162.867 225.497 164.283 225.421 165.762C219.03 173.763 213.109 184.065 204.465 189.786C193.458 197.076 180.558 201.926 168.203 194.367C166.994 192.281 166.055 190.387 165.571 187.969C165.129 185.772 165.039 183.45 165.198 181.191C166.255 165.907 185.367 155.625 198.502 151.825C208.065 149.061 222.879 148.896 225.421 161.243ZM178.374 168.014C175.79 170.211 174.242 172.727 173.102 175.919C171.859 179.415 171.624 181.398 173.413 184.832C180.33 198.147 207.235 191.707 202.357 175.463C198.875 163.855 187.792 160.027 178.374 168.014Z" fill="#FEFDFD"/>
<path d="M173.102 175.919C173.676 176.693 173.503 177.771 173.835 178.766C177.075 188.481 194.826 183.465 193.03 172.368C192.387 168.395 187.578 166.232 183.874 166.937L178.367 168.022C187.785 160.027 198.868 163.862 202.35 175.47C207.229 191.722 180.323 198.161 173.406 184.84C171.624 181.406 171.852 179.423 173.095 175.926L173.102 175.919Z" fill="#FDA229"/>
<path d="M225.421 168.767C225.041 170.833 220.336 181.64 219.023 183.45C217.627 185.371 215.527 186.857 214.504 189.095C212.86 190.235 212.57 191.12 211.492 192.481C211.195 192.861 211.05 193.593 210.739 193.987C210.131 194.761 207.477 197.083 206.6 197.753C206.171 198.078 204.237 199.473 203.967 199.632C202.71 200.365 200.796 200.828 199.448 201.512C199.345 201.36 198.219 200.544 197.942 200.385C195.855 199.156 193.147 199.135 191.917 201.512C191.786 201.76 191.661 202.009 191.544 202.265C190.121 202.154 188.704 202.472 187.405 203.018C187.336 202.735 186.528 202.154 186.279 201.892C184.703 200.213 182.237 199.128 180.129 200.745C179.756 201.028 179.922 201.47 179.881 201.519C179.735 201.678 179.259 201.74 179.127 201.892C175.963 201.277 173.303 200.233 170.843 198.126C170.276 197.642 169.06 195.728 168.584 195.494C168.521 195.1 168.411 194.713 168.21 194.367C180.565 201.926 193.458 197.076 204.472 189.786C213.115 184.065 219.037 173.756 225.428 165.762C225.38 166.695 225.58 167.945 225.428 168.774L225.421 168.767Z" fill="#F0E2E0"/>
<path d="M173.102 175.919C174.242 172.727 175.783 170.212 178.374 168.015L183.881 166.93C187.585 166.232 192.387 168.388 193.036 172.361C194.833 183.451 177.082 188.474 173.842 178.759C173.51 177.771 173.683 176.686 173.109 175.912L173.102 175.919Z" fill="#FAC746"/>
<path d="M165.571 187.963C166.055 190.381 166.994 192.274 168.203 194.361C168.404 194.713 168.514 195.094 168.577 195.487C167.671 195.031 162.392 194.727 161.045 194.734C162.337 191.832 162.317 189.697 159.166 188.336C159.214 188.336 159.587 187.97 160.078 187.942C161.895 187.845 163.747 188.046 165.564 187.956L165.571 187.963Z" fill="#FDCB4B"/>
<path d="M196.443 207.164C198.792 207.53 199.283 210.556 197.956 212.249C196.187 214.501 188.911 215.407 187.405 217.127C186.935 217.666 186.914 219.435 186.576 220.437C185.546 223.436 181.795 226.655 179.134 228.238C177.11 228.521 175.106 228.936 173.109 229.364C165.675 230.981 159.719 232.501 152.028 231.623C150.964 230.02 150.729 227.429 152.574 226.331C153.376 225.854 154.509 226.358 154.288 225.225C154.661 225.239 155.041 225.197 155.414 225.225C155.034 226.448 157.231 226.165 158.046 225.598C158.668 225.626 159.304 225.591 159.926 225.598C163.982 225.667 167.623 225.26 171.416 223.726L175.362 221.839C172.287 221.708 169.33 222.903 166.331 223.339C165.129 223.512 164.175 223.636 162.945 223.712C162.697 223.726 162.441 223.698 162.192 223.712C161.197 223.76 160.182 223.691 159.18 223.712C151.538 223.892 141.996 224.334 134.982 220.996C133.117 220.105 131.776 218.509 132.419 216.374C133.849 211.634 138.859 215.42 142.161 216.077C149.769 217.59 160.513 217.21 168.21 216.187C167.602 217.099 167.734 217.01 168.729 216.899C170.553 216.692 172.418 216.471 174.229 216.18C173.869 215.158 172.453 215.4 171.596 215.434C173.938 214.343 177.027 215.752 179.355 214.723C180.067 214.405 181.553 212.67 182.631 211.973C185.844 209.886 189.74 209.015 193.057 207.15C194.073 207.136 195.524 207.005 196.443 207.15V207.164Z" fill="#FEDF8F"/>
<path d="M227.681 179.685C229.367 179.858 231.08 180.618 231.585 182.4C232.144 184.39 230.279 185.047 229.94 186.463C228.966 187.057 226.99 187.797 226.174 188.342C224.965 187.493 224.295 186.829 224.723 185.206L227.674 183.077C224.295 182.684 223.279 186.587 223.563 189.248C223.791 191.41 224.495 190.588 223.535 193.234C222.526 196.026 220.826 198.126 217.51 198.133L218.263 200.013C217.192 200.78 217.634 201.975 217.51 203.025C217.247 205.292 217.275 205.471 216.384 207.544C215.409 209.389 211.692 208.131 211.506 208.311C211.436 208.373 211.54 209.161 211.119 209.61C210.103 210.709 208.769 209.596 208.099 209.804C206.213 208.85 207.125 205.831 206.973 205.665C206.897 205.582 205.356 205.506 204.727 205.084C202.945 203.882 204.25 201.36 203.96 199.64C204.237 199.481 206.164 198.085 206.593 197.76H209.605C207.643 198.804 206.075 200.586 205.84 202.88C205.549 205.72 209.778 206.065 210.283 204.276C210.787 202.486 209.647 201.747 212.238 200.773C212.452 201.194 211.651 202.196 212.051 202.279C214.601 202.818 216.142 200.455 213.371 200.393C215.043 198.057 213.44 196.33 210.739 197.007V193.994C211.05 193.601 211.195 192.868 211.492 192.488C211.941 194.216 214.394 193.849 214.504 193.994C214.788 194.361 213.73 195.287 215.631 195.121C216.833 195.017 218.83 194.603 219.569 193.601C220.737 192.011 220.17 191.238 218.263 191.355C218.574 189.199 217.703 189.027 216.004 188.342C217.144 188.018 217.862 188.011 219.016 187.969C219.389 187.956 219.769 188.004 220.142 187.969C220.218 184.321 221.801 180.348 225.794 179.692C226.257 179.616 227.183 179.643 227.674 179.692L227.681 179.685Z" fill="#229A26"/>
<path d="M132.073 224.099C134.561 225.964 137.56 226.69 140.358 227.864C144.891 229.764 146.957 231.05 152.028 231.63C159.718 232.508 165.668 230.994 173.109 229.371V230.124L164.825 232.383C153.224 234.601 137.207 237.704 126.546 231.326C126.014 231.008 125.544 230.732 125.302 230.124C126.235 230.262 127.32 230.062 128.308 230.497L125.675 227.864C126.532 225.978 128.197 226.04 129.703 225.308C130.74 224.803 130.581 224.479 132.073 224.099Z" fill="#F2961D"/>
<path d="M216.391 207.537C213.751 213.652 205.266 217.957 199.331 220.776C194.688 222.987 189.74 224.991 184.772 226.352C187.288 224.514 188.22 222.8 189.291 219.954L192.677 218.074C196.028 216.865 200.243 214.557 203.47 212.871C204.396 212.388 207.843 209.879 208.113 209.797C208.783 209.589 210.117 210.702 211.132 209.603C211.547 209.154 211.45 208.366 211.519 208.304C211.706 208.124 215.423 209.382 216.397 207.537H216.391Z" fill="#F2961D"/>
<path d="M199.448 201.519C201.107 203.986 198.612 206.314 196.436 207.164C195.517 207.019 194.059 207.15 193.05 207.164C192.553 207.164 192.041 207.136 191.544 207.164C189.333 205.015 190.915 204.974 191.468 203.495C191.634 203.06 191.468 202.438 191.544 202.265C191.661 202.009 191.793 201.761 191.917 201.512C194.004 202.141 196.913 203.122 197.942 200.386C198.218 200.552 199.345 201.36 199.448 201.512V201.519Z" fill="#229A26"/>
<path d="M223.162 198.126C224.53 200.33 221.372 201.325 220.529 203.018C220.44 203.046 220.301 203.391 219.949 203.419C218.975 203.481 218.422 202.196 217.517 203.018C217.641 201.968 217.199 200.779 218.27 200.005C218.284 199.992 218.463 200.233 218.643 200.13C220.412 199.107 221.248 198.734 223.169 198.119L223.162 198.126Z" fill="#3AB93F"/>
<path d="M220.529 203.018C221.372 201.325 224.53 200.331 223.162 198.126C224.247 197.781 226.603 196.309 226.935 198.714C227.245 200.966 222.395 202.396 220.522 203.018H220.529Z" fill="#229A26"/>
<path d="M219.023 187.962C217.869 188.004 217.158 188.017 216.011 188.335C215.637 188.439 214.788 188.888 214.504 189.088C215.527 186.843 217.621 185.364 219.023 183.443C220.046 184.646 218.671 186.47 219.023 187.962Z" fill="#F2961D"/>
<path d="M173.102 230.125H173.475C170.048 231.272 168.39 231.7 164.818 232.384L173.102 230.125Z" fill="#FDCB4B"/>
<path d="M225.801 176.299L225.428 178.932C224.924 178.206 224.205 177.529 224.316 176.527C224.889 175.705 225.062 175.74 225.801 176.299Z" fill="#FDA229"/>
<path d="M179.127 228.237C177.393 229.267 175.362 229.488 173.482 230.117H173.109V229.364C175.106 228.928 177.11 228.514 179.134 228.237H179.127Z" fill="#FDA229"/>
<path d="M157.666 188.343C157.915 188.329 158.171 188.357 158.42 188.343C158.668 188.329 158.924 188.357 159.173 188.343C162.323 189.704 162.344 191.839 161.052 194.741C159.76 194.741 158.592 195.059 157.286 195.114C156.291 195.163 155.262 195.031 154.274 195.114C151.261 194.237 146.957 194.651 144.49 196.621C144.372 196.648 144.234 196.593 144.117 196.621C138.9 197.906 134.305 200.607 131.873 205.637C129.828 209.866 129.821 211.759 126.808 216.188L120.03 219.574C119.332 219.802 118.047 220.265 117.398 220.327C117.28 220.341 116.651 219.913 116.099 219.947C114.212 220.058 110.626 221.032 109.113 219.201C107.69 217.48 108.567 214.143 110.882 213.632C114.682 212.789 120.424 213.97 122.822 209.762C123.388 208.761 123.202 207.621 123.416 207.158C124.197 205.479 125.938 202.494 127.023 200.787C128.107 199.08 130.374 196.911 130.94 195.487C131.866 195.073 132.771 194.064 133.573 193.608C134.775 192.924 135.722 192.295 136.585 191.729C137.449 191.162 141.768 190.098 142.984 189.849C148.021 188.82 152.595 188.626 157.666 188.343Z" fill="#FEDF8F"/>
<path d="M123.036 187.963C128.176 187.728 132.46 188.502 136.585 191.729C135.722 192.295 134.775 192.924 133.573 193.608C130.291 193.449 131.465 194.161 130.94 195.487C130.374 196.918 128.066 199.149 127.023 200.787C125.979 202.425 124.197 205.472 123.416 207.158C121.163 207.399 119.021 208.733 116.79 209.002C110.35 209.762 112.298 207.379 109.486 203.585C108.837 202.708 105.859 199.813 104.967 199.253L121.909 189.835L121.156 188.336C121.599 188.288 122.11 188.004 123.036 187.963ZM123.416 197.001L120.154 198.438L112.879 203.019C116.43 203.205 119.947 202.535 123.416 201.892C123.181 200.262 122.6 198.597 123.416 197.007V197.001Z" fill="#F2961D"/>
<path d="M118.897 181.564C119.318 181.605 121.723 182.379 122.172 182.614C124.48 183.844 123.886 185.965 123.036 187.962C122.11 188.004 121.599 188.294 121.156 188.335C113.984 189.095 105.935 191.148 101.209 196.993C100.151 196.212 97.8298 196.924 97.2148 193.994C96.7657 191.873 98.1545 191.127 98.9491 189.462C102.701 186.29 106.916 184.044 111.746 182.683C113.362 182.227 117.328 181.398 118.897 181.557V181.564Z" fill="#FEDF8F"/>
<path d="M103.088 218.454L89.1582 223.346C89.9321 221.66 90.7751 220.223 91.4177 218.454C91.8046 217.383 92.4265 215.773 92.5439 214.689L94.2644 213.942C97.2839 215.069 100.013 217.252 103.081 218.454H103.088Z" fill="#F2961D"/>
<path d="M104.221 208.67C102.431 208.228 101.195 207.931 99.3291 208.297C99.0804 208.117 98.2374 208.166 97.8159 207.744C96.9867 206.922 97.7192 205.588 97.8574 204.573C99.0251 203.591 103.309 206.362 104.021 207.564C104.262 207.979 104.131 208.511 104.221 208.67Z" fill="#F2961D"/>
<path d="M144.117 196.62L143.364 198.5C145.153 198.99 146.729 197.871 148.256 197.746C152.242 197.422 156.333 197.898 160.299 198.119C159.518 198.997 159.186 200.089 159.546 201.132C159.967 202.362 160.962 203.081 162.164 203.599C163.284 204.076 164.597 204.013 165.184 204.338C166.352 204.988 166.061 206.639 168.957 206.404C169.164 206.383 169.613 205.851 170.083 206.031C170.034 206.743 169.585 207.178 169.33 207.91C168.86 209.272 168.68 209.52 169.537 210.902C171.361 213.839 176.447 213.403 179.01 211.752C180.267 210.944 180.558 209.548 180.682 209.472C181.014 209.265 182.499 209.472 183.294 209.258C184.088 209.043 184.745 208.359 185.367 208.283C186.244 208.173 186.949 208.698 188.179 208.505C189.727 208.263 189.464 207.254 189.664 207.157C189.893 207.047 191.074 207.185 191.544 207.157C192.041 207.13 192.553 207.157 193.05 207.157C189.734 209.023 185.837 209.893 182.624 211.98C181.546 212.678 180.06 214.412 179.349 214.73C177.027 215.76 173.931 214.35 171.589 215.442C170.408 215.49 169.164 216.064 168.203 216.195C160.506 217.217 149.762 217.598 142.154 216.084C138.852 215.428 133.849 211.648 132.412 216.381C131.763 218.516 133.103 220.119 134.975 221.004C141.989 224.341 151.531 223.899 159.173 223.719C159.38 224.859 158.599 224.445 157.874 224.473C156.16 224.535 154.419 224.244 152.774 224.853C152.698 225.509 153.838 225.212 154.274 225.226C154.495 226.359 153.362 225.854 152.56 226.331C150.715 227.43 150.95 230.014 152.014 231.624C146.943 231.043 144.877 229.758 140.344 227.858C138.714 226.58 134.941 223.795 132.944 223.719C132.364 223.699 132.219 224.051 132.06 224.092C130.567 224.473 130.733 224.797 129.69 225.302C128.183 226.034 126.518 225.972 125.661 227.858C125.537 227.879 125.399 227.831 125.288 227.858C125.903 225.163 126.318 222.282 123.029 221.46C123.457 219.843 125.261 218.966 126.214 217.674C126.615 217.135 126.622 216.437 126.788 216.188C129.8 211.752 129.814 209.859 131.852 205.637C134.284 200.607 138.886 197.905 144.096 196.62H144.117ZM150.895 206.031C152.975 206.045 155.428 205.837 157.438 206.072C160.734 206.459 163.622 208.739 167.174 208.194C167.506 208.145 168.307 208.028 168.203 207.544C160.119 204.614 147.73 203.302 139.722 206.722C138.161 207.385 136.019 208.138 136.219 210.177C136.938 210.847 144.055 207.116 145.63 207.164C144.186 211.103 146.666 212.27 150.038 210.633C152.387 209.493 151.676 208.007 150.902 206.038L150.895 206.031ZM145.437 215.442C147.157 215.684 149.299 215.269 151.082 215.442C152.208 214.861 157.39 214.53 158.046 213.935C158.703 213.341 157.908 213.293 157.48 213.196C153.465 212.236 148.415 213.59 144.497 214.702C144.359 215.082 145.285 215.428 145.437 215.449V215.442Z" fill="#FDCB4B"/>
<path d="M126.801 216.195C126.636 216.444 126.629 217.135 126.228 217.681C125.268 218.973 123.471 219.85 123.043 221.467C122.531 221.336 121.619 221.882 121.163 222.22L120.037 219.588L126.815 216.202L126.801 216.195Z" fill="#F2961D"/>
<path d="M124.169 228.99C124.148 228.928 123.727 228.908 123.789 228.624L124.922 228.237C124.722 228.417 124.625 228.914 124.169 228.99Z" fill="#FDCB4B"/>
<path d="M158.419 188.343C158.171 188.357 157.915 188.329 157.666 188.343L158.226 187.97L158.419 188.343Z" fill="#FDCB4B"/>
<path d="M186.279 201.893C186.528 202.155 187.336 202.743 187.405 203.019C187.529 203.537 187.232 205.071 187.426 205.264C187.605 205.444 190.058 205.071 189.664 207.165C189.464 207.261 189.727 208.27 188.179 208.512C186.949 208.705 186.251 208.18 185.367 208.291C184.745 208.367 184.047 209.065 183.294 209.265C182.499 209.479 181.014 209.279 180.682 209.479C180.558 209.555 180.267 210.951 179.01 211.759C176.446 213.411 171.361 213.846 169.537 210.91C168.68 209.528 168.86 209.279 169.33 207.918C169.882 208.643 170.712 209.417 171.61 209.652C172.508 209.887 172.626 209.424 172.715 209.424C174.153 209.396 175.445 209.424 176.854 209.044C176.868 208.664 175.465 207.932 175.348 207.918L175.721 204.905C176.149 204.919 176.806 205.03 177.137 204.822C177.531 204.574 178.775 202.28 179.107 201.893C179.238 201.741 179.715 201.672 179.86 201.52C181.705 204.47 183.867 203.461 186.258 201.893H186.279Z" fill="#229A26"/>
<path d="M179.127 201.893C178.796 202.28 177.552 204.573 177.158 204.822C176.82 205.03 176.17 204.919 175.742 204.905C175.555 204.905 175.203 204.587 174.546 204.622C173.13 204.691 171.872 205.548 170.477 205.658C171.638 204.055 171.002 204.145 170.477 203.026C169.813 201.623 169.461 201.45 170.104 199.64C170.207 199.35 171.016 198.825 170.857 198.134C173.317 200.241 175.97 201.285 179.141 201.899L179.127 201.893Z" fill="#FDCB4B"/>
<path d="M216.011 188.343C217.703 189.027 218.581 189.2 218.27 191.355C217.835 191.383 217.517 191.576 217.144 191.728C216.038 192.178 215.126 192.958 214.511 193.988C214.401 193.843 211.948 194.209 211.499 192.482C212.577 191.113 212.867 190.236 214.511 189.096C214.794 188.896 215.644 188.446 216.018 188.343H216.011Z" fill="#3AB93F"/>
<path d="M161.059 194.74C162.406 194.733 167.678 195.037 168.59 195.493C169.067 195.735 170.283 197.642 170.85 198.126C171.009 198.817 170.2 199.342 170.097 199.632C169.572 199.004 169.585 198.409 168.97 197.753C167.354 196.032 163.415 196.412 161.439 197.38L157.3 195.12C158.606 195.058 159.774 194.747 161.066 194.747L161.059 194.74Z" fill="#F2961D"/>
<path d="M186.279 201.891C183.888 203.453 181.725 204.469 179.881 201.518C179.929 201.47 179.756 201.035 180.129 200.744C182.237 199.134 184.703 200.212 186.279 201.891Z" fill="#3AB93F"/>
<path d="M191.544 202.272C191.468 202.438 191.634 203.06 191.468 203.502C190.915 204.98 189.333 205.022 191.544 207.171C191.074 207.198 189.886 207.06 189.664 207.171C190.051 205.084 187.605 205.457 187.426 205.271C187.239 205.077 187.536 203.543 187.405 203.025C188.704 202.479 190.127 202.161 191.544 202.272Z" fill="#F2961D"/>
<path d="M197.942 200.385C196.913 203.128 194.011 202.147 191.917 201.511C193.147 199.135 195.855 199.155 197.942 200.385Z" fill="#3AB93F"/>
<path d="M210.746 197C210.676 197.014 210.11 197.49 209.619 197.753H206.607C207.491 197.083 210.144 194.761 210.746 193.987V197Z" fill="#F2961D"/>
<path d="M166.324 223.346C169.323 222.911 172.287 221.716 175.355 221.847L171.409 223.733C167.616 225.267 163.975 225.675 159.919 225.606C159.705 224.397 160.527 224.97 161.232 224.866C162.538 224.673 163.85 224.493 165.136 224.217C165.806 224.079 166.538 224.39 166.317 223.346H166.324Z" fill="#FDCB4B"/>
<path d="M166.324 223.347C166.545 224.39 165.813 224.079 165.143 224.217C163.85 224.494 162.538 224.666 161.239 224.867C160.534 224.97 159.712 224.397 159.926 225.606C159.297 225.599 158.668 225.634 158.046 225.606C157.639 225.592 156.312 225.288 155.414 225.233C155.041 225.205 154.661 225.247 154.288 225.233C153.845 225.219 152.705 225.516 152.788 224.86C154.433 224.245 156.167 224.542 157.888 224.48C158.613 224.452 159.401 224.867 159.187 223.727C160.188 223.706 161.197 223.775 162.199 223.727L162.759 224.1L162.952 223.727C164.182 223.651 165.136 223.526 166.338 223.354L166.324 223.347Z" fill="#FDA229"/>
<path d="M171.596 215.442C172.453 215.407 173.869 215.166 174.229 216.188C172.411 216.471 170.553 216.699 168.729 216.907C167.734 217.017 167.602 217.107 168.21 216.195C169.171 216.064 170.415 215.49 171.596 215.442Z" fill="#FDA229"/>
<path d="M158.046 225.606C157.231 226.165 155.034 226.449 155.414 225.232C156.312 225.295 157.639 225.592 158.046 225.606Z" fill="#FDCB4B"/>
<path d="M162.938 223.727L162.745 224.1L162.185 223.727C162.434 223.713 162.69 223.74 162.938 223.727Z" fill="#FDCB4B"/>
<path d="M213.378 200.386C212.95 200.379 212.618 200.621 212.252 200.759C209.661 201.733 210.808 202.41 210.296 204.262C209.785 206.114 205.563 205.706 205.854 202.866C206.088 200.572 207.657 198.79 209.619 197.746C210.117 197.484 210.683 197.007 210.746 196.993C213.447 196.316 215.057 198.043 213.378 200.379V200.386Z" fill="#3AB93F"/>
<path d="M218.27 191.355C220.177 191.245 220.737 192.012 219.576 193.601C218.837 194.603 216.84 195.017 215.637 195.121L217.144 191.735C217.524 191.583 217.835 191.383 218.27 191.362V191.355Z" fill="#FAC746"/>
<path d="M223.542 193.234C224.495 190.588 223.798 191.41 223.57 189.248C223.286 186.587 224.309 182.684 227.681 183.077L224.73 185.206C224.302 186.829 224.972 187.5 226.181 188.343C225.891 188.536 224.157 192.564 223.922 193.234H223.549H223.542Z" fill="#FAC746"/>
<path d="M213.378 200.386C216.149 200.448 214.615 202.811 212.058 202.272C211.658 202.189 212.459 201.187 212.245 200.766C212.618 200.628 212.95 200.379 213.371 200.393L213.378 200.386Z" fill="#FAC746"/>
<path d="M215.637 195.114C213.73 195.273 214.788 194.354 214.511 193.988C215.126 192.958 216.038 192.178 217.144 191.729L215.637 195.114Z" fill="#F2961D"/>
<path d="M45.8768 164.247C45.6903 165.581 45.2343 166.672 45.6696 168.034C46.1464 169.526 47.8668 169.692 48.1363 171.025C44.5295 172.283 42.1802 174.833 40.6049 178.177C39.0295 181.521 38.6011 183.103 39.6721 186.821C39.7896 187.214 40.8606 189.736 40.9849 189.84C41.8348 190.552 42.1043 188.313 42.1043 187.961L44.7368 184.195C53.0214 178.861 61.2575 179.089 70.7098 181.182C71.1589 182.937 70.5785 184.492 72.8794 185.618C74.0817 186.206 76.4724 185.584 77.1149 184.575C79.9202 185.922 81.9723 188.251 84.0107 190.483C84.1696 190.662 84.6049 190.545 84.6395 190.593C84.9158 190.918 85.1162 191.381 85.3926 191.72C86.1112 192.611 89.3932 198.083 89.7801 198.145C90.3536 198.235 92.62 197.489 93.0967 196.978C93.228 196.833 94.679 194.255 94.7135 194.096C94.8034 193.661 94.4648 193.433 94.4302 193.233C96.0401 192.777 96.7242 190.994 98.0094 189.833C98.3203 189.55 98.8385 189.564 98.9491 189.467C98.1545 191.132 96.7657 191.878 97.2148 194C97.8366 196.929 100.151 196.218 101.209 196.998C102.729 198.125 103.475 198.318 104.974 199.258C105.859 199.811 108.837 202.706 109.493 203.59C112.305 207.383 110.357 209.767 116.796 209.007C119.035 208.745 121.17 207.404 123.423 207.162C123.209 207.632 123.395 208.772 122.828 209.767C120.438 213.975 114.689 212.794 110.889 213.637C108.567 214.148 107.697 217.485 109.12 219.206L108.747 219.959C106.93 219.358 105.071 219.226 103.102 218.453C100.027 217.25 97.2977 215.06 94.2851 213.941L92.5647 214.687C93.8498 202.961 85.8417 196.618 77.4743 190.441C65.88 181.887 47.9083 186.669 37.6061 195.112C37.4127 195.271 37.0327 195.326 36.853 195.485C27.3593 185.073 33.2462 168.738 45.8838 164.24L45.8768 164.247ZM99.3222 208.289C100.773 209.325 102.839 211.211 104.774 211.315C106.329 211.398 104.47 209.152 104.214 208.669C104.131 208.51 104.262 207.978 104.014 207.563C103.302 206.361 99.0251 203.583 97.8505 204.571C97.7123 205.587 96.9799 206.921 97.809 207.743C98.2305 208.157 99.0735 208.116 99.3222 208.296V208.289Z" fill="#FDCB4A"/>
<path d="M77.115 177.051C77.7092 178.737 78.0892 183.049 77.115 184.583C76.4724 185.591 74.0886 186.213 72.8794 185.626C70.5785 184.507 71.1589 182.952 70.7098 181.19C69.8945 177.977 67.2274 175.068 63.9315 174.412L64.8644 174.039C59.8688 170.929 53.9334 169.002 48.1225 171.026C47.8599 169.693 46.1326 169.527 45.6558 168.034C45.2205 166.673 45.6766 165.581 45.8631 164.248C54.4033 161.208 63.6275 164.158 70.5094 169.527C72.3543 170.964 76.3549 174.923 77.1011 177.044L77.115 177.051Z" fill="#FEDF8F"/>
<path d="M84.6464 190.601C84.6049 190.553 84.1765 190.664 84.0176 190.491C81.9793 188.252 79.9271 185.924 77.1219 184.583C78.0961 183.049 77.7161 178.738 77.1219 177.052C83.3957 178.938 87.341 183.954 84.6532 190.601H84.6464Z" fill="#F2961D"/>
<path d="M63.9453 174.412C67.2342 175.068 69.9013 177.97 70.7236 181.19C61.2713 179.09 53.0351 178.862 44.7506 184.203C43.3963 185.073 41.6067 185.191 41.7311 187.388C41.7656 188.037 42.1181 187.934 42.1181 187.968C42.1181 188.321 41.8486 190.559 40.9987 189.848C40.8743 189.744 39.7964 187.229 39.6859 186.828C38.608 183.104 39.0433 181.535 40.6187 178.184C47.1205 174.571 56.6281 172.961 63.9591 174.419L63.9453 174.412Z" fill="#F2961D"/>
<path d="M34.5797 197.751C27.3661 209.083 37.9861 223.745 46.5125 231C46.8165 231.255 46.8787 231.905 46.9961 232.002C45.3102 236.334 37.7236 234.296 34.1237 233.397C19.0471 229.625 6.4924 215.509 22.564 203.237C24.7267 201.586 27.2625 199.796 29.9848 199.326C30.6965 199.202 31.3461 199.624 31.961 199.472C32.9422 199.223 33.4327 197.779 34.5797 197.744V197.751Z" fill="#DB707E"/>
<path d="M58.6733 230.123C61.5477 229.805 61.1746 229.701 63.5653 228.617C68.6714 226.309 72.9001 222.474 78.4761 221.514C82.836 220.76 87.8039 221.659 91.4176 218.46C90.775 220.235 89.932 221.666 89.1582 223.352V223.725C88.3981 223.697 86.7745 225.355 85.7726 225.797C81.9861 227.47 80.0376 226.744 75.9817 229.37C75.4911 229.688 73.7016 229.95 72.6168 230.71C69.7424 232.728 68.9409 234.835 64.8919 236.162C59.2468 238.007 51.5564 235.623 46.9961 232.009C46.8718 231.912 46.8096 231.263 46.5125 231.007C37.9861 223.752 27.3592 209.083 34.5797 197.759C35.2499 196.701 35.9755 196.273 36.8391 195.499C37.0188 195.34 37.3988 195.278 37.5923 195.126C35.015 201.552 36.1897 209.581 39.5477 215.564C42.9058 221.548 49.228 228.879 56.0131 230.337C57.6092 230.683 57.7198 230.233 58.6733 230.13V230.123Z" fill="#F68B98"/>
<path d="M92.5508 214.687C92.4334 215.772 91.8115 217.382 91.4246 218.453C87.8178 221.659 82.8429 220.761 78.483 221.507C72.9001 222.468 68.6715 226.302 63.5722 228.61C65.4862 221.224 55.9165 221.514 51.5565 218.225C46.2016 214.19 44.2393 204.344 49.456 199.625C51.4114 197.856 55.5018 197.365 55.9786 194.442C56.3448 192.218 53.9058 190.304 51.8122 190.656C51.0936 190.773 46.858 192.19 46.1325 192.535C42.4497 194.29 39.7827 201.193 39.4718 205.069C38.5804 216.221 43.7349 222.82 53.277 227.429C54.9975 228.258 57.3812 228.721 58.6802 230.116C57.7267 230.22 57.6162 230.669 56.0201 230.324C49.2349 228.866 42.8229 221.369 39.5547 215.551C36.2865 209.733 35.022 201.539 37.5992 195.113C47.9013 186.669 65.8731 181.881 77.4673 190.442C85.8348 196.619 93.8429 202.962 92.5577 214.687H92.5508ZM76.2651 198.222C69.9428 199.3 70.0119 209.471 71.456 214.142C73.3906 220.395 77.1356 221.521 83.0225 219.275C94.8033 214.791 87.7764 196.253 76.2651 198.215V198.222Z" fill="#FEA9B7"/>
<path d="M63.5654 228.617C61.1678 229.702 61.5477 229.806 58.6734 230.123C57.3744 228.728 54.9906 228.265 53.2701 227.436C43.7281 222.827 38.5736 216.235 39.4649 205.076C39.7758 201.2 42.4429 194.297 46.1257 192.542C46.8512 192.197 51.0936 190.78 51.8053 190.663C53.9058 190.311 56.338 192.232 55.9718 194.449C55.495 197.372 51.4045 197.863 49.4491 199.632C44.2324 204.351 46.1948 214.19 51.5497 218.232C55.9096 221.521 65.4724 221.224 63.5654 228.617Z" fill="#FEC0D0"/>
<path d="M76.265 198.222C87.7763 196.26 94.8033 214.798 83.0225 219.282C77.1356 221.521 73.3837 220.402 71.4559 214.149C70.0118 209.471 69.9428 199.307 76.265 198.229V198.222Z" fill="#FEC0D0"/>
<path d="M151.648 195.494L148.262 197.754C146.735 197.878 145.167 198.997 143.371 198.507L144.124 196.627C144.241 196.6 144.379 196.655 144.497 196.627C146.894 196.068 149.202 195.771 151.648 195.501V195.494Z" fill="#F2961D"/>
<path d="M154.281 195.114C153.493 195.183 152.54 195.39 151.648 195.487C149.202 195.764 146.894 196.061 144.497 196.613C146.964 194.644 151.275 194.23 154.281 195.107V195.114Z" fill="#FDCB4B"/>
<path d="M145.623 207.163C144.048 207.108 136.931 210.846 136.212 210.176C136.012 208.137 138.154 207.391 139.715 206.721C147.724 203.301 160.112 204.621 168.196 207.543C168.3 208.034 167.499 208.144 167.167 208.193C163.615 208.739 160.727 206.458 157.431 206.072C155.421 205.837 152.968 206.044 150.888 206.03C149.195 206.023 146.452 204.883 145.616 207.156L145.623 207.163Z" fill="#F2961D"/>
<path d="M170.09 199.632C169.447 201.443 169.806 201.616 170.463 203.018C169.613 204.027 168.936 205.008 168.957 206.404C166.061 206.646 166.359 204.994 165.184 204.338C164.59 204.006 163.277 204.075 162.164 203.599C160.962 203.087 159.967 202.369 159.546 201.132C160.886 201.719 162.697 199.936 163.491 199.978C163.636 199.985 163.367 201.277 165.64 200.337C165.951 200.206 165.972 199.812 166.248 199.66C167.271 199.094 168.245 199.142 168.957 197.739C169.571 198.396 169.565 198.99 170.083 199.619L170.09 199.632Z" fill="#229A26"/>
<path d="M150.895 206.032C151.669 208.001 152.381 209.487 150.031 210.627C146.66 212.264 144.179 211.097 145.623 207.158C146.459 204.885 149.202 206.018 150.895 206.032Z" fill="#3AB93F"/>
<path d="M168.963 197.753C168.252 199.156 167.278 199.107 166.255 199.674C165.979 199.826 165.958 200.22 165.647 200.351C163.374 201.291 163.636 199.999 163.498 199.992C162.704 199.95 160.893 201.733 159.553 201.146C159.193 200.102 159.525 199.011 160.306 198.133C160.354 198.085 161.329 197.435 161.432 197.38C163.401 196.413 167.347 196.033 168.963 197.753Z" fill="#3AB93F"/>
<path d="M170.47 203.018C170.995 204.137 171.631 204.047 170.47 205.65C171.866 205.546 173.123 204.69 174.54 204.614C175.196 204.579 175.548 204.89 175.735 204.897L175.362 207.91C174.892 207.861 172.287 208.545 172.729 209.416C172.639 209.416 172.501 209.872 171.624 209.644C170.746 209.416 169.896 208.642 169.344 207.91C169.592 207.177 170.048 206.735 170.097 206.03C169.627 205.857 169.178 206.389 168.97 206.403C168.95 205.008 169.627 204.026 170.477 203.018H170.47Z" fill="#3AB93F"/>
<path d="M175.362 207.917C175.472 207.931 176.875 208.657 176.868 209.044C175.458 209.424 174.159 209.396 172.729 209.424C172.287 208.553 174.892 207.869 175.362 207.917Z" fill="#FAC746"/>
</svg>
