<svg width="260" height="260" viewBox="0 0 260 260" fill="none" xmlns="http://www.w3.org/2000/svg">
<path d="M54.7382 184.347C54.9961 184.265 55.8579 184.026 55.7635 183.668C51.3917 183.812 46.5292 179.384 44.7365 175.673C43.8432 173.817 43.8369 171.143 42.0568 169.955C41.2516 166.319 40.4653 160.84 39.2261 157.531C38.8172 156.443 37.8107 155.776 37.6598 154.612C37.339 152.134 39.9306 152.996 41.4969 152.775C44.0697 152.417 46.806 151.989 49.3222 151.347C51.2973 150.844 57.1285 148.177 58.3111 148.36C60.4436 148.693 59.1477 151.536 59.1792 152.97C59.2547 156.688 62.5257 167.401 64.0606 171.081C64.8154 172.898 67.3945 176.088 67.0799 177.987C66.929 178.918 62.6641 181.554 61.5947 182.12C59.5441 183.208 57.0719 184.278 54.7319 184.341L54.7382 184.347Z" fill="#2B9C8F"/>
<path d="M77.6981 216.56C78.7926 220.133 81.8498 223.31 77.868 226.499C74.2636 229.386 67.5328 228.04 63.4629 226.512C57.1537 224.14 56.8958 217.894 53.9833 213.031C51.7691 209.333 48.561 205.747 46.2336 201.935C43.9061 198.123 42.2957 194.041 40.1885 190.159C36.5652 183.485 32.5142 177.044 29.4256 170.068C29.5325 168.785 30.6837 169.627 31.5895 169.634C34.2503 169.646 36.4897 169.816 38.943 168.608L43.5979 177.849C44.0571 177.83 42.2014 170.634 42.0567 169.961C43.8369 171.143 43.8432 173.823 44.7364 175.679C46.5292 179.39 51.3917 183.819 55.7635 183.674C55.8578 184.032 54.9961 184.278 54.7382 184.353C52.1151 185.165 49.8379 184.064 47.2023 184.014C47.7558 184.737 48.2842 186.813 48.9321 187.253C49.8505 187.876 53.5619 187.926 54.7444 187.782C51.7125 192.889 52.2283 197.777 54.908 202.866C57.0467 206.923 59.2735 209.634 63.1296 212.119C67.5328 214.962 72.3513 216.78 77.6981 216.567V216.56Z" fill="#1A6B72"/>
<path d="M54.7382 187.775C57.5122 187.442 61.8589 185.58 64.3059 184.152C65.1425 183.661 66.4383 182.259 67.0611 182.101C70.1434 181.29 69.3193 186.536 69.5583 188.216C72.6217 197.557 74.8297 207.175 77.6981 216.566C72.345 216.78 67.5328 214.962 63.1296 212.119C59.2735 209.634 57.0467 206.923 54.908 202.866C52.2283 197.777 51.7062 192.889 54.7444 187.782L54.7382 187.775Z" fill="#2B9C8E"/>
<path d="M19.8076 140.458C18.6816 134.501 17.5367 128.456 16.7567 122.436C16.4863 120.361 15.895 117.272 16.0019 115.284C16.2913 109.818 22.8459 108.491 24.8399 113.674L28.6205 138.565C28.2367 140.609 21.506 140.062 19.8139 140.458H19.8076Z" fill="#1A6B72"/>
<path d="M26.8088 143.226C27.7272 143.075 29.3124 141.497 29.7968 142.975L36.9426 164.997C36.9238 167.149 30.5516 166.74 28.8469 166.545C28.2493 166.476 28.0795 166.52 27.6957 165.985C27.2051 165.306 26.249 162.343 25.859 161.311C23.7894 155.769 22.3237 149.97 20.531 144.334C20.3171 143.975 20.7323 143.233 20.9839 143.233C22.6697 143.233 25.2865 143.478 26.8088 143.233V143.226Z" fill="#1A6B72"/>
<path d="M23.2107 182.97C28.0983 183.976 27.2491 187.404 23.6573 189.757C21.462 191.191 15.7503 194.676 14.4545 190.531C13.0769 186.102 18.9269 185.637 21.1537 183.316C17.5304 183.712 8.7176 181.819 9.00696 177.094C9.14535 174.842 11.3344 173.452 13.4543 173.358C16.2158 173.238 20.7197 173.817 23.1038 175.365C26.1357 177.327 25.7835 180.774 23.2107 182.963V182.97Z" fill="#2C9D8F"/>
<path d="M34.7724 56.2678C39.9683 55.3746 40.6036 60.3251 41.0251 64.244C42.2203 75.2271 43.4155 87.6758 46.3279 98.3506C46.894 100.439 49.3536 103.226 47.1834 105.006C44.749 107.006 32.5897 110.453 29.5703 109.963C26.5509 109.472 27.853 104.333 27.6769 101.917C27.3561 97.4826 25.708 90.2172 24.689 85.7132C23.6699 81.2093 20.0844 72.4279 20.4681 68.6851C20.6945 66.4457 22.2923 64.6278 23.8901 63.1999C25.3683 61.8726 33.181 56.532 34.7662 56.2615L34.7724 56.2678Z" fill="#2B9D8F"/>
<path d="M29.7841 113.127C30.1804 112.888 33.1621 112.819 33.961 112.674C38.2573 111.913 41.8303 110.824 45.8247 109.12C46.9695 108.629 48.1584 107.05 49.4102 108.635C50.3978 109.881 49.2026 112.089 49.2781 113.536C49.5423 118.524 53.3165 133.571 54.9835 138.704C55.6503 140.761 58.1538 143.553 56.2919 145.29C54.4299 147.026 44.2143 149.542 41.5472 149.731C35.2253 150.19 37.1313 148.762 36.496 144.17C35.955 140.27 34.2377 135.552 33.3256 131.577C32.3632 127.381 31.7342 122.355 30.4698 118.329C30.0484 116.989 28.9161 115.907 29.1048 114.699C29.1362 114.504 29.715 113.171 29.7904 113.127H29.7841Z" fill="#2B9D8F"/>
<path d="M228.597 77.083C226.509 76.0325 225.2 75.4286 222.709 74.9191C221.105 74.592 214.714 73.1829 215.62 76.498C215.935 77.6365 219.935 77.6303 221.401 77.9385C223.37 78.3537 227.396 80.1087 228.805 80.1653C229.861 80.2093 230.755 79.1525 230.648 78.1146C234.265 80.398 238.63 83.6816 240.524 87.6006C242.165 90.9974 240.348 93.4318 236.68 93.5261C229.692 91.1546 209.481 89.2235 208.386 79.9514C208.311 79.3098 208.789 78.5738 208.562 78.1146C207.883 76.7559 204.926 76.196 204.341 72.7237C203.228 66.1377 206.82 61.9168 212.827 60.1304C221.652 57.501 230.1 57.1613 238.945 59.7089C247.179 62.0804 250.569 64.6091 242.002 70.4529C237.831 73.2962 233.145 75.0072 228.591 77.0893L228.597 77.083ZM221.332 66.5654C219.344 66.7541 210.814 68.3016 212.318 71.5915C213.594 74.3844 218.954 71.6355 221.401 71.0819C222.955 70.7297 226.962 70.5095 227.918 70.0629C228.264 69.8994 228.836 69.0187 228.868 68.635C229.113 66.0182 222.898 66.4145 221.332 66.5591V66.5654Z" fill="#2B9C8E"/>
<path d="M204.863 41.1898C212.299 39.2524 211.28 52.6887 209.474 56.7586C208.455 59.0609 205.593 60.4762 203.24 59.432C198.548 57.3499 200.12 42.4228 204.863 41.1836V41.1898Z" fill="#2B9C8E"/>
<path d="M230.654 78.1144C230.761 79.1524 229.868 80.2154 228.811 80.1651C227.402 80.1022 223.376 78.3535 221.407 77.9383C219.941 77.6301 215.934 77.6364 215.626 76.4978C214.72 73.1828 221.105 74.5918 222.716 74.9189C225.207 75.4284 226.515 76.0323 228.603 77.0828C229.339 77.4539 229.861 77.6049 230.66 78.1081L230.654 78.1144Z" fill="#1A6C72"/>
<path d="M221.332 66.5652C222.898 66.4142 229.113 66.0179 228.868 68.641C228.83 69.0247 228.264 69.9054 227.918 70.0689C226.968 70.5218 222.961 70.742 221.401 71.088C218.96 71.6415 213.595 74.3841 212.318 71.5975C210.814 68.3076 219.338 66.7602 221.332 66.5715V66.5652Z" fill="#1A6C72"/>
<path d="M189.534 180.232C193.371 188.416 209.153 191.448 217.293 191.543C219.143 191.561 220.671 191.467 222.432 190.857C221.149 195.222 223.816 197.474 221.81 201.714C220.061 205.4 216.199 205.495 214.211 207.652C212.066 208.137 208.147 207.545 206.329 208.338C202.712 208.42 196.503 207.25 195.78 202.941C195.56 201.651 196.485 200.129 196.246 199.764C195.944 199.292 192.968 198.431 192.157 198.009C191.295 197.563 190.697 195.99 190.565 197.883C190.377 200.569 190.44 201.953 188.653 204.199C185.973 207.564 184.445 206.294 181.992 203.727C180.306 201.959 177.808 198.443 177.544 196.009C176.77 188.85 182.935 182.057 189.54 180.245L189.534 180.232ZM203.511 193.694C201.813 193.851 195.076 195.487 196.208 198.041C197.227 200.337 200.844 197.525 202.882 197.179C204.492 196.908 207.317 197.663 207.323 195.48C207.323 193.543 204.863 193.562 203.511 193.688V193.694Z" fill="#534C47"/>
<path d="M177.538 195.996C177.802 198.437 180.293 201.953 181.985 203.714C184.438 206.281 185.967 207.551 188.647 204.186C190.433 201.94 190.37 200.557 190.559 197.871C190.691 195.983 191.289 197.556 192.151 197.996C192.962 198.418 195.937 199.28 196.239 199.751C196.472 200.116 195.554 201.638 195.774 202.928C196.497 207.237 202.706 208.407 206.323 208.325C205.593 208.646 204.637 209.992 203.58 210.036C201.467 207.885 193.056 207.702 190.792 209.325C189.773 210.055 189.106 214.943 187.816 216.886C183.18 218.201 178.5 216.647 173.764 216.886C173.745 215.131 174.342 212.332 174.883 210.64C176.116 206.803 180.689 202.299 173.242 201.808C171.726 201.708 168.7 202.305 167.253 202.84L177.532 195.983L177.538 195.996Z" fill="#FCFBFB"/>
<path d="M203.58 210.049C203.939 210.414 204.945 212.509 205.128 213.125C205.455 214.239 205.631 215.78 205.297 216.9C205.084 217.617 204.134 218.919 203.599 219.485C201.523 221.699 191.742 227.895 188.867 228.399C184.445 229.179 181.444 227.04 182.677 222.385C183.608 218.862 185.967 219.693 187.816 216.9C189.106 214.956 189.773 210.068 190.792 209.339C193.056 207.716 201.467 207.898 203.58 210.049Z" fill="#534C47"/>
<path d="M173.77 216.9C173.789 218.548 174.525 219.441 174.456 221.014C165.8 227.801 158.912 223.379 160.063 212.616C160.485 208.672 163.46 204.25 167.259 202.853C168.706 202.318 171.732 201.727 173.248 201.822C180.696 202.312 176.123 206.816 174.89 210.653C174.349 212.345 173.751 215.145 173.77 216.9Z" fill="#534C47"/>
<path d="M187.816 216.9C185.967 219.692 183.608 218.862 182.677 222.385C179.834 222.548 177.066 222.108 174.456 221.013C174.531 219.447 173.789 218.554 173.77 216.9C178.5 216.66 183.187 218.214 187.823 216.9H187.816Z" fill="#E8D1D7"/>
<path d="M214.205 207.646C212.959 208.998 211.984 211.42 210.449 212.974C208.996 214.445 206.895 215.578 205.291 216.899C205.631 215.779 205.455 214.238 205.121 213.124C204.939 212.508 203.939 210.413 203.574 210.048C204.631 209.998 205.587 208.652 206.316 208.337C208.134 207.545 212.053 208.136 214.198 207.652L214.205 207.646Z" fill="#E7D0D5"/>
<path d="M203.511 193.694C204.863 193.569 207.329 193.55 207.323 195.487C207.323 197.664 204.492 196.909 202.882 197.186C200.844 197.532 197.221 200.343 196.208 198.047C195.076 195.494 201.813 193.858 203.511 193.701V193.694Z" fill="#31261D"/>
<path d="M203.926 162.412C208.606 162.859 213.349 162.985 217.111 166.186L220.715 169.608C219.344 170.527 221.835 173.968 222.256 175.433C222.841 177.465 222.074 181.044 224.483 180.573C224.345 181.818 224.647 183.252 224.483 184.686C222.288 187.19 219.935 189.524 217.287 191.543C209.147 191.449 193.365 188.417 189.527 180.233C188.181 177.358 189.207 174.716 191.062 172.345C192.566 170.42 192.27 170.69 193.459 168.57C193.836 167.891 195.252 165.532 195.698 165.155C197.434 163.683 201.926 163.96 203.92 162.412H203.926ZM198.007 170.036C195.466 170.476 191.924 174.012 195.094 175.528C197.076 176.471 197.346 174.433 198.648 173.766C200.064 173.037 201.945 173.76 201.523 171.175C201.265 169.583 199.215 169.835 198.007 170.042V170.036ZM213.783 174.49C213.494 174.2 212.739 174.056 212.324 174.056C208.713 174.056 208.996 181.849 212.745 182.214C213.695 182.309 215.073 181.774 215.236 180.723C215.337 180.069 214.148 174.848 213.783 174.483V174.49ZM203.832 178.773C205.782 177.195 200.328 176.119 199.863 176.855C198.63 178.811 202.46 179.881 203.832 178.773ZM205.983 181.95C205.926 181.894 204.901 181.931 204.36 181.686C203.693 181.384 202.58 180.352 202.335 180.302C201.737 180.183 199.806 181.378 198.781 180.925C198.258 183.227 200.359 181.994 202.02 182.309C202.989 182.491 204.297 184.083 205.643 183.158C206.021 182.894 206.109 182.089 205.977 181.956L205.983 181.95Z" fill="#FDFDFD"/>
<path d="M220.715 169.608C222.011 168.74 225.332 169.665 226.427 170.753C228.069 172.382 228.163 176.326 226.521 177.974C225.458 179.044 224.722 178.452 224.489 180.572C222.08 181.044 222.848 177.465 222.263 175.433C221.841 173.967 219.35 170.526 220.722 169.608H220.715Z" fill="#534C47"/>
<path d="M203.926 162.411C201.932 163.959 197.441 163.676 195.705 165.154C194.516 165.437 195.032 163.544 195.176 163.085C196.271 159.637 202.668 158.625 203.932 162.418L203.926 162.411Z" fill="#31261D"/>
<path d="M222.432 190.856C220.671 191.467 219.143 191.561 217.293 191.542C219.941 189.523 222.294 187.189 224.489 184.686C224.187 187.309 223.099 188.592 222.432 190.856Z" fill="#E8D1D7"/>
<path d="M213.783 174.489C214.148 174.854 215.343 180.075 215.236 180.729C215.073 181.78 213.689 182.308 212.745 182.22C208.996 181.855 208.707 174.068 212.324 174.062C212.745 174.062 213.494 174.2 213.783 174.496V174.489Z" fill="#56504B"/>
<path d="M198.007 170.035C199.215 169.828 201.265 169.576 201.523 171.167C201.945 173.753 200.064 173.029 198.648 173.759C197.346 174.432 197.076 176.464 195.094 175.52C191.924 174.011 195.466 170.469 198.007 170.029V170.035Z" fill="#56504B"/>
<path d="M205.983 181.949C206.115 182.081 206.027 182.893 205.65 183.15C204.31 184.075 203.001 182.484 202.026 182.301C200.359 181.987 198.259 183.22 198.787 180.917C199.806 181.37 201.743 180.175 202.341 180.295C202.586 180.345 203.7 181.37 204.366 181.678C204.907 181.924 205.927 181.886 205.989 181.943L205.983 181.949Z" fill="#56504B"/>
<path d="M203.832 178.773C202.46 179.88 198.623 178.811 199.863 176.855C200.328 176.119 205.782 177.194 203.832 178.773Z" fill="#56504B"/>
</svg>
