<svg width="260" height="260" viewBox="0 0 260 260" fill="none" xmlns="http://www.w3.org/2000/svg">
<path d="M237.843 198.22C234.687 198.721 232.939 201.537 230.744 203.298C227.754 205.707 218.966 213.1 215.77 213.768C213.068 214.328 208.711 212.42 205.855 211.846C193.457 209.35 178.01 208.443 169.862 220.027C168.648 216.557 168.381 212.42 169.389 208.83C172.265 198.581 187.972 192.095 197.841 192.022C199.255 182.58 209.925 178.93 218.386 179.684C227.541 180.498 238.057 188.318 237.837 198.214L237.843 198.22Z" fill="#F0F0EF"/>
<path d="M237.843 198.22C237.71 204.192 231.791 210.958 227.854 215.308C222.143 221.614 206.482 230.195 198.034 230.929C192.916 231.369 181.753 229.661 177.009 227.613C173.012 225.885 171.29 224.09 169.869 220.033C178.01 208.449 193.464 209.356 205.861 211.852C208.717 212.426 213.068 214.334 215.777 213.774C218.98 213.106 227.761 205.713 230.75 203.304C232.939 201.543 234.687 198.727 237.85 198.226L237.843 198.22Z" fill="#C7DFEC"/>
<path d="M205.855 78.2663C202.352 79.5074 200.67 81.983 198.742 84.8055C198.502 85.1525 197.881 85.1324 197.854 85.1791C177.596 63.3596 147.576 46.3044 116.788 52.2764C95.5958 56.3867 76.7189 68.8045 62.266 84.4518C62.1392 84.2583 59.7703 81.3758 59.37 80.9821C58.9696 80.5884 55.2864 78.0127 54.9929 77.906C56.7478 72.9882 61.0516 67.9371 64.6214 64.0869C92.8401 33.6731 139.095 26.9003 175.06 47.8057C187.465 55.0121 198.868 65.675 205.848 78.2663H205.855Z" fill="#89E2CC"/>
<path d="M225.479 70.2656C222.543 70.2923 218.459 71.5267 216.031 73.1749C201.858 47.3851 176.482 28.9887 147.396 23.8507C106.252 16.5842 64.1744 36.0216 44.4568 72.8079C41.8878 71.0263 37.0367 69.7518 33.9139 69.8986C40.9269 52.9634 53.6717 39.2045 69.2923 29.8495C107.22 7.14915 141.537 4.24654 181.139 24.9984C188.159 28.6751 196.046 33.1123 202.025 38.2836C212.007 46.9247 220.468 57.9746 225.479 70.2656Z" fill="#FE599B"/>
<path d="M216.03 73.1745C214.829 73.9886 212.514 77.1314 212.027 77.3516C210.893 77.8587 207.53 77.6719 205.848 78.2658C198.868 65.6745 187.458 55.0116 175.06 47.8051C139.095 26.8998 92.8401 33.6725 64.6214 64.0864C61.0516 67.9365 56.7477 72.9877 54.9928 77.9054C53.5515 77.3783 49.7548 77.5584 48.4536 76.9913C47.813 76.711 45.5977 73.6149 44.45 72.8142C64.1677 36.0279 106.252 16.5905 147.389 23.857C176.475 28.995 201.858 47.3915 216.024 73.1812L216.03 73.1745Z" fill="#FDC855"/>
<path d="M225.479 70.2663C231.017 70.2129 235.408 73.2423 237.91 78.0132C238.25 78.6671 238.417 80.0817 238.651 80.362C238.851 80.6088 243.549 82.0301 244.636 82.5573C252.036 86.1672 258.282 93.2401 256.02 101.888L251.836 102.609C244.89 101.027 237.73 99.7193 230.75 101.881C228.702 102.515 225.125 104.864 223.497 104.817C220.688 104.737 217.045 101.581 214.309 100.52C211.186 99.3123 205.348 97.8843 204.76 102.615C200.483 99.8194 197.234 95.4221 197.167 90.0373C197.167 89.5769 197.727 85.3798 197.854 85.1663C197.881 85.1262 198.502 85.1462 198.742 84.7926C200.67 81.9701 202.352 79.4945 205.855 78.2534C207.536 77.6596 210.899 77.8464 212.034 77.3393C212.521 77.1191 214.829 73.9763 216.037 73.1622C218.473 71.514 222.556 70.2796 225.486 70.2529L225.479 70.2663Z" fill="#F0F0EF"/>
<path d="M256.02 101.894C254.485 107.746 250.308 111.403 244.576 113.171C242.554 113.792 240.212 113.865 238.377 114.606C236.943 115.193 235.942 116.381 234.307 117.075C225.953 120.625 218.339 115.914 213.929 108.914C213.548 108.314 212.487 105.738 212.32 105.618C211.994 105.384 209.225 105.051 208.304 104.73C206.769 104.197 205.948 103.402 204.767 102.628C205.354 97.8976 211.186 99.3255 214.316 100.533C217.051 101.594 220.695 104.75 223.504 104.83C225.125 104.877 228.702 102.528 230.757 101.894C237.737 99.7325 244.896 101.04 251.843 102.622L256.026 101.901L256.02 101.894Z" fill="#C7DFEC"/>
<path d="M33.9139 69.9041C37.0367 69.7573 41.8878 71.0317 44.4567 72.8133C45.6044 73.6074 47.8198 76.7102 48.4603 76.9904C49.7615 77.5576 53.5516 77.3774 54.9996 77.9046C55.2931 78.0113 58.9897 80.607 59.3767 80.9807C59.7637 81.3544 62.1459 84.2502 62.2727 84.4504C63.7673 86.7992 63.12 92.164 62.1925 94.7263C60.8847 98.3362 58.7828 100.291 55.7334 102.26C54.6858 97.9425 49.2142 99.3571 46.1848 100.531C43.4491 101.592 39.8058 104.749 36.9966 104.829C35.3751 104.875 31.7987 102.527 29.7435 101.893C26.187 100.792 22.1833 100.552 18.4733 100.812C13.6757 101.152 9.05163 103.768 4.47419 101.532C2.21883 93.0648 8.35105 85.885 15.6242 82.3352C16.9721 81.6746 20.9756 80.6804 21.5562 80.2667C21.7697 80.1132 23.0576 76.6368 23.7982 75.6025C26.0469 72.4998 30.0504 70.0909 33.9139 69.9041Z" fill="#F0F0EF"/>
<path d="M55.7268 102.253C54.5391 103.02 53.7383 103.801 52.1903 104.355C51.3162 104.668 48.3336 105.122 48.1601 105.235C48.0067 105.335 46.9456 107.944 46.5653 108.545C42.3215 115.251 35.3552 119.862 27.1678 117.179C25.0793 116.492 23.7115 114.871 22.1234 114.223C20.2751 113.476 17.646 113.509 15.5375 112.809C9.92575 110.934 5.96222 107.164 4.46755 101.525C9.04499 103.754 13.6692 101.145 18.4668 100.805C22.1768 100.544 26.1803 100.785 29.7369 101.886C31.7854 102.52 35.3618 104.868 36.99 104.822C39.7991 104.742 43.4424 101.585 46.1782 100.524C49.2009 99.3567 54.6725 97.9354 55.7268 102.253Z" fill="#C7DFEC"/>
<path d="M9.91914 176.773C10.0726 174.177 13.1353 166.063 14.7101 163.928C16.6251 161.326 24.2786 155.781 27.3681 154.773C41.007 150.336 58.1891 157.202 58.4493 173.136C65.6958 176.059 71.7879 181.364 71.3741 189.838C80.7359 190.932 89.8041 197.665 86.6279 208.027C83.2782 202.336 74.8107 200.407 68.6518 200.014C59.7238 199.446 50.5222 201.748 41.7209 201.135C34.6546 200.641 25.0727 192.507 19.7413 187.856C17.973 186.315 14.2429 183.232 13.0085 181.504C11.9676 180.056 11.6741 177.767 9.9325 176.759L9.91914 176.773Z" fill="#F0F0EF"/>
<path d="M86.6213 208.034C85.4002 212.018 82.6376 214.9 78.5339 216.128C75.5179 217.029 71.2408 218.15 68.1514 218.837C56.0672 221.533 42.7953 215.22 33.0666 208.334C25.2395 202.796 9.32531 186.902 9.91918 176.779C11.6607 177.787 11.9542 180.076 12.9952 181.524C14.2363 183.252 17.9664 186.335 19.7279 187.876C25.0594 192.527 34.6413 200.661 41.7076 201.154C50.5088 201.768 59.7105 199.466 68.6385 200.033C74.7973 200.427 83.2649 202.356 86.6146 208.047L86.6213 208.034Z" fill="#C7DFEC"/>
</svg>
