<svg width="260" height="260" viewBox="0 0 260 260" fill="none" xmlns="http://www.w3.org/2000/svg">
<path d="M35.5721 155.024C35.3065 158.786 36.4761 159.949 40.1238 159.741C40.7054 159.709 41.2238 158.995 41.0847 160.189C39.5864 161.587 39.1186 162.478 39.1945 164.672C40.3893 164.02 42.2164 165.139 43.0003 163.628C43.4681 162.731 41.4513 161.226 41.426 160.189C41.464 160.158 41.3123 159.69 41.483 159.57C41.875 159.292 45.9526 156.972 46.2371 156.883C46.6101 156.763 47.0272 156.801 47.2738 157.092C48.0071 157.939 48.8417 160.733 50.2704 161.15C52.6348 161.245 55.0434 161.289 57.3888 161.612C59.7342 161.934 62.5348 162.958 64.6653 162.977C65.4998 162.984 66.2142 163.003 66.2142 161.915C66.2837 162.124 66.7705 162.358 66.8906 163.129C67.0613 164.273 67.2636 167.093 67.2825 168.307C67.2952 169.015 67.1561 169.179 66.5555 169.495C62.8699 169.818 59.2285 168.578 55.5365 168.117C55.2647 168.401 56.4216 170.02 56.567 170.526C57.1676 172.631 57.4521 175.292 56.9084 177.416C56.8641 177.454 56.7883 178.106 56.4153 178.46C55.6756 179.161 55.0118 179.958 54.152 180.52C53.052 180.097 51.5158 179.566 50.3652 179.49C50.4094 178.58 50.302 177.644 50.3652 176.734C50.3652 176.67 50.7066 176.348 50.7192 175.899C50.8457 172.327 50.5296 172.157 48.298 169.843C48.0767 169.615 48.4434 168.654 47.1664 168.857C46.4457 168.97 44.7135 170.583 44.1635 171.221C44.056 171.347 43.8979 171.455 43.8221 171.562C41.3692 167.181 37.6393 168.724 36.2421 172.941C33.3973 173.491 30.584 173.56 28.1501 175.349C20.7598 180.786 25.457 193.354 34.1749 193.942C33.5869 191.249 33.7956 189.074 34.4214 186.444C35.2053 183.131 36.5266 182.126 36.2421 178.447C37.6582 179.395 37.1208 181.494 38.9795 182.082C41.091 182.746 42.1531 181.772 43.8221 180.862V181.203C37.7404 184.585 34.0927 192.779 38.9985 198.765C39.599 199.499 40.1617 200.213 40.9014 200.826C43.4617 202.95 43.645 201.389 44.5111 205.315C44.6376 205.897 44.4985 206.567 44.7388 207.332C44.9664 208.052 45.4784 208.267 45.5416 208.413C46.9893 211.542 48.1399 212.832 51.7371 213.755C57.3825 215.196 59.0261 213.679 62.7624 210.138C65.8348 209.607 68.3067 210.663 71.0251 211.858C71.4424 210.828 71.7521 209.835 72.0619 208.76C72.0872 208.672 72.3337 208.545 72.4032 208.419C76.0889 208.115 79.7367 205.524 80.666 201.876L84.4528 201.18C84.889 200.599 81.8039 198.019 81.0074 198.083C80.9126 196.698 80.2677 194.7 79.5407 193.518C79.0665 192.747 77.7516 191.818 77.6125 191.287C77.3976 190.477 78.2004 188.707 78.2636 187.582C78.3332 186.406 78.0867 185.704 77.9033 184.642C80.5711 185.18 83.0304 186.76 85.8246 186.71C88.0563 187.917 90.3131 189.662 92.0264 191.533C89.5166 189.871 83.6689 186.817 80.7482 188.006C79.0982 188.676 78.3395 191.002 79.1108 192.57C79.2309 192.823 82.5625 195.586 83.2516 196.35C86.6212 200.106 87.481 202.287 87.5505 207.376C85.3378 207.515 83.0746 207.856 81.0579 208.805C81.0579 211.523 81.9873 214.121 82.7269 216.675C83.397 218.989 83.4096 220.247 85.1355 222.378C85.4832 222.808 86.1281 222.82 86.1723 222.877C86.5326 223.294 86.5579 223.642 87.2028 224.255C88.5809 225.558 89.8137 227.283 92.0264 227.353C91.3057 226.171 89.6746 224.982 88.9286 223.914C88.6441 223.509 88.0878 222.618 87.8982 222.194C87.2976 220.886 86.2545 217.042 86.1786 215.651C86.0269 212.945 87.0068 211.719 87.5568 209.449C88.1195 210.044 87.835 210.954 88.1637 211.776C88.8718 213.54 91.135 213.793 92.7281 213.243C92.3614 214.715 92.7913 217.484 93.4678 218.888C93.6195 219.204 94.0431 219.337 94.1063 219.444C95.2063 221.309 95.4212 221.05 96.5149 222.201C99.2775 225.102 101.117 226.506 105.157 227.852C108.065 228.826 111.081 228.952 114.083 229.433C113.647 230.394 113.148 232.486 113.053 233.567C113.002 234.143 112.983 235.072 113.053 235.635C108.741 234.794 105.947 237.544 102.369 238.903C97.6655 240.686 83.22 240.856 78.6177 238.903C75.5263 237.594 73.0987 234.825 72.3907 231.513C62.7624 235.451 41.129 228.156 39.7255 216.833C39.3652 213.938 41.3502 211.883 41.2996 211.011C41.2617 210.372 35.5784 203.184 35.9514 201.054C35.7364 200.757 32.5944 200.472 31.8358 200.276C13.8185 195.623 12.8701 170.058 32.1076 167.08C31.9812 163.698 32.626 159.652 34.2571 156.662C34.6364 155.966 35.3318 155.435 35.5657 155.043L35.5721 155.024ZM65.5377 225.968C66.9791 225.994 68.2624 225.968 69.6722 225.621C68.4458 224.015 68.9958 218.692 68.3257 217.845C68.2372 217.737 66.1004 216.543 65.8981 216.486C63.1797 215.721 61.1945 217.206 58.6532 217.706C54.8031 218.464 51.2377 217.257 47.7353 215.708C47.1284 215.436 46.3572 214.336 46.2371 215.816C46.1169 217.295 49.2399 220.405 50.4158 221.297C54.1837 224.141 60.8469 225.893 65.5377 225.975V225.968ZM82.7522 231.481C84.2948 232.594 85.9384 233.504 87.9171 233.201C88.1258 232.265 87.6327 232.613 87.2344 232.354C86.7666 232.044 85.597 231.222 85.1671 231.14C82.8913 228.895 80.6723 226.714 78.624 224.249C77.8275 227.448 80.3626 229.749 82.7522 231.481ZM96.7931 229.142C93.0505 229.736 93.3919 234.06 97.3431 235.318C100.289 236.254 105.448 236.937 104.784 232.366C104.417 229.812 98.8098 228.82 96.7931 229.142Z" fill="#F58229"/>
<path d="M189.516 143.316L195.73 144.511C197.052 145.504 198.133 145.978 199.846 145.731C198.601 150.258 202.153 150.884 205.359 152.097C205.991 152.338 206.503 152.97 207.059 153.147C209.683 153.962 210.296 152.363 211.554 150.549C213.008 156.2 216.599 162.004 218.786 167.422C219.33 168.768 220.411 173.573 221.024 174.313C221.492 174.875 222.099 174.546 222.579 174.654C224.83 175.141 227.65 175.16 227.77 178.276C227.814 179.446 226.96 180.192 227.055 181.197C226.113 180.521 225.481 181.545 224.482 181.557C223.698 181.564 222.775 180.988 221.89 181.197C221.663 183.599 221.669 186.027 221.543 188.429C220.683 189.441 220.847 190.996 220.512 192.216C220.177 193.436 219.539 194.58 218.793 195.661C215.328 194.612 209.74 195.478 207.084 198.07C206.572 197.672 206.041 197.855 205.504 198.013C203.089 198.721 199.802 202.299 198.822 204.613C195.579 205.018 188.125 209.323 186.861 212.452C185.982 214.627 186.323 215.468 187.803 217.01C189.118 218.382 189.693 218.515 191.571 218.92C192.968 219.223 197.747 219.881 198.961 219.76C200.27 219.634 201.338 218.06 202.356 217.617C203.892 216.947 206.907 216.568 208.893 215.885C211.522 214.981 218.141 212.364 220.171 210.809C220.032 212.964 218.521 214.987 216.89 216.309C214.892 217.933 207.28 221.467 204.872 221.132C204.252 221.044 203.721 220.487 203.184 220.532C202.406 220.595 199.707 222.017 198.474 222.352C196.672 222.839 194.131 222.865 192.595 223.364C191.52 223.712 188.479 226.784 187.101 227.688C179.774 232.518 170.974 233.144 162.648 230.786C162.553 230.761 162.3 230.356 161.972 230.267C158.779 229.401 155.745 228.099 152.318 228.036L154.84 229.812C155.808 230.217 156.775 230.982 157.824 231.134C160.271 233.643 166.441 232.246 168.319 234.933C168.66 235.42 168.793 236.52 169.191 236.646C167.244 242.469 160.233 238.467 156.105 238.024C153.797 236.172 150.889 235.192 148.557 233.346C146.445 231.677 145.37 228.7 142.418 229.679C141.065 230.128 137.165 232.916 139.225 234.238L138.151 236.779C136.69 238.985 134.661 238.631 132.682 237.342C135.565 234.566 137.538 230.666 137.847 226.664C138.182 226.076 139.048 224.451 139.225 223.908C139.712 224.053 141.109 223.56 141.23 223.016C141.337 222.529 140.654 220.854 140.604 220.121C140.553 219.387 140.73 216.157 140.604 215.986C140.559 215.929 140.111 216.018 139.915 215.986C143.126 214.596 146.515 213.205 150.08 212.895C152.716 212.667 158.722 214.096 157.768 209.355C157.009 205.612 148.892 206.636 146.116 207.035C146.331 206.712 146.831 206.143 147.147 206.004C148.335 205.473 150.972 204.733 152.299 204.443C153.627 204.152 155.081 203.937 156.446 203.937C157.129 205.378 157.357 207.003 158.235 208.52C160.853 213.047 166.182 215.86 171.145 216.985C171.771 217.124 172.497 216.656 172.289 217.719C166.176 217.813 166.283 216.928 160.998 215.405C156.668 214.159 151.92 214.52 147.488 214.962C147.431 214.994 147.855 215.613 147.836 215.651C147.817 215.683 147.368 215.525 147.159 215.904C146.268 217.56 147.526 220.045 147.488 221.853H156.269C158.937 221.853 164.443 224.761 167.516 225.419C173.041 226.601 179.35 225.482 183.991 222.194C184.13 221.505 183.668 221.373 183.2 221.101C182.214 220.519 179.578 219.463 178.484 219.451C177.479 218.774 176.215 218.344 175.039 218.073C176.594 217.541 178.004 217.693 179.597 216.947C180.754 216.404 181.576 215.512 182.448 214.621C182.707 214.355 183.276 214.324 183.308 214.286L185.027 214.975C185.097 213.818 186.184 212.547 185.894 211.536L183.656 212.914C183.656 212.56 183.087 210.246 182.891 209.715C182.486 208.602 181.487 207.875 181.241 206.712C183.099 205.903 184.996 204.398 186.406 202.925C187.025 202.843 190.268 201.712 190.85 201.345C193.606 199.6 193.278 196.237 189.851 195.693C191.507 195.358 195.566 193.601 196.755 192.425C197.007 192.172 196.995 191.653 197.083 191.559C198.923 189.542 199.726 188.315 201.218 186.046C201.73 185.268 202.356 184.541 202.931 183.802L202.596 183.631C204.809 182.683 206.566 178.359 209.177 177.271L209.424 176.639C209.43 176.405 209.139 176.159 209.145 176.057C209.202 163.654 200.794 160.088 197.437 149.885C197.267 149.36 197.305 148.728 197.02 148.07C196.103 145.934 195.351 146.718 193.651 145.921C192.367 145.32 191.172 144.555 189.857 144.031C189.819 143.866 189.623 143.493 189.516 143.342V143.316ZM214.999 185.332C211.839 185.066 211.162 189.232 210.182 191.527L213.274 192.564C214.14 190.25 214.93 187.841 214.999 185.332Z" fill="#F5822A"/>
<path d="M123.737 189.807C123.377 190.402 123.851 191.122 123.674 191.97C123.244 194.03 120.658 194.625 118.913 193.942C110 184.446 96.0977 186.413 84.3074 185.325L85.8499 186.71C83.0557 186.76 80.5965 185.18 77.9287 184.642C77.0436 179.522 73.7752 174.989 68.2878 174.312C68.0792 174.148 67.7883 173.693 67.5987 173.623C68.351 172.568 66.7832 170.949 67.251 169.489C67.0234 169.502 66.7895 169.47 66.5619 169.489C67.1561 169.173 67.3015 169.008 67.2889 168.3C67.2636 167.087 67.0676 164.267 66.897 163.123C66.7832 162.358 66.2901 162.118 66.2205 161.909C63.6349 153.88 59.2728 153.273 51.402 154.835C50.4158 155.031 46.8692 155.625 47.2802 157.085C47.0273 156.795 46.6101 156.757 46.2434 156.877C45.9589 156.965 41.875 159.285 41.4894 159.564C41.3187 159.684 41.4703 160.152 41.4324 160.183C41.3629 160.24 41.148 160.126 41.0911 160.183C41.2302 158.988 40.7118 159.703 40.1302 159.734C36.4824 159.943 35.3128 158.78 35.5784 155.018C36.2105 153.962 36.5836 152.843 37.3612 151.807C45.921 140.332 72.6119 143 73.4591 158.988C73.655 162.636 73.3326 166.379 73.9585 170.191C74.7804 175.198 79.5913 178.283 84.3516 178.738C99.404 180.173 112.32 177.48 123.743 189.801L123.737 189.807Z" fill="#FEA14B"/>
<path d="M147.159 188.429C145.832 189.896 145.105 191.331 146.464 193.082C148.101 195.194 150.276 193.657 152.324 194.625C151.319 194.65 149.587 194.207 149.916 195.314C147.943 194.922 147.128 196.818 146.129 198.07C143.999 200.732 143.765 201.098 143.373 204.613C143.259 205.644 143.158 206.68 143.031 207.711C140.901 208.368 137.588 209.898 135.451 210.809C136.653 208.413 136.267 205.391 136.829 202.887C137.196 201.256 138.467 199.107 138.827 197.482C138.947 196.945 139.112 196.584 138.378 196.686C136.849 196.894 130.76 200.826 130.097 202.217C129.749 202.951 130.305 203.456 130.28 203.576C130.021 204.98 129.041 208.337 128.213 209.43C127.239 210.714 124.989 211.776 124.078 213.217C118.325 212.996 119.602 219.451 124.42 219.76C121.556 221.107 118.079 223.787 116.157 226.304C110.486 225.26 104.695 223.041 101.977 217.586C101.642 216.916 101.591 216.226 101.351 215.632C103.772 217.244 106.08 216.96 106.864 213.913C106.889 213.982 107.667 214.608 107.894 214.943C110.48 218.793 114.817 220.121 119.387 219.722C119.76 219.691 121.284 219.564 121.322 219.084C118.768 218.186 117.485 216.271 117.535 213.571C117.548 212.762 117.978 211.991 117.877 211.163C114.21 212.357 110.284 211.814 106.516 211.504C105.618 208.394 103.728 204.664 102.04 201.863C104.386 202.508 106.263 204.449 108.583 205.132C111.612 206.023 115.67 205.448 118.572 204.272C119.754 203.791 123.313 201.244 123.01 200.024C122.915 199.638 122.397 199.518 122.359 199.448C121.278 197.191 120.702 195.845 118.913 193.936C120.658 194.618 123.244 194.024 123.674 191.963C123.851 191.116 123.377 190.395 123.737 189.801C125.343 191.54 126.936 193.114 128.042 195.307C131.905 192.229 136.412 190.237 141.23 189.213C143.113 188.815 145.402 188.84 147.153 188.423L147.159 188.429Z" fill="#F6822A"/>
<path d="M50.7256 113.699C49.3854 119.445 46.0663 123.194 41.5841 126.772C37.1019 130.35 27.1892 137.816 21.6134 132.31L18.699 127.822C19.3122 120.438 21.9926 116.872 27.6823 112.181C34.2697 106.751 50.1883 99.1393 50.7256 113.705V113.699ZM41.325 109.981C39.1187 110.645 37.8605 115.064 40.4778 116.189C46.1865 118.642 47.413 108.154 41.325 109.981ZM30.3186 117.903C29.2881 118.111 25.2991 120.387 24.7491 121.297C21.4933 126.709 31.014 128.207 33.8019 123.46C35.4836 120.583 33.5175 117.264 30.3186 117.903Z" fill="#E66B7C"/>
<path d="M176.43 187.398C176.55 187.499 177.928 189.775 178.061 190.072C178.547 191.153 178.44 192.222 179.186 193.252C180.292 194.788 181.158 193.872 181.253 193.941C181.298 193.973 181.253 194.453 181.443 194.605C182.897 195.749 185.748 195.73 187.449 195.661C188.182 195.629 189.225 195.787 189.857 195.661C193.29 196.204 193.613 199.568 190.856 201.312C190.275 201.679 187.031 202.811 186.412 202.893C185.268 203.045 182.682 203.209 181.588 203.234C180.893 203.253 180.166 203.133 179.521 202.893C178.535 202.526 175.108 199.612 173.888 198.714C172.965 198.031 172.219 197.336 171.252 196.697C169.444 195.49 167.642 194.289 165.227 194.289H158.336C156.667 194.289 154.24 194.586 152.312 194.63C150.263 193.657 148.089 195.199 146.451 193.088C145.092 191.337 145.819 189.895 147.147 188.435C149.163 187.954 151.433 186.722 153.69 186.197C158.849 184.996 168.268 184.711 173.326 186.197C173.73 186.317 176.291 187.297 176.417 187.411L176.43 187.398Z" fill="#FDA14B"/>
<path d="M209.152 176.032C209.152 176.14 209.436 176.386 209.43 176.614L209.183 177.246C206.572 178.333 204.821 182.658 202.602 183.606C200.908 184.333 196.489 184.592 201.224 186.014C199.732 188.284 198.936 189.51 197.09 191.527C195.971 190.983 192.525 189.593 191.47 189.858C190.635 190.06 187.815 194.581 187.449 195.662C185.742 195.731 182.891 195.75 181.443 194.606C181.247 194.454 181.298 193.974 181.253 193.942L181.936 191.533L179.186 193.253C178.44 192.216 178.548 191.154 178.061 190.073C177.928 189.782 176.544 187.506 176.43 187.399C179.363 184.643 183.479 183.701 187.316 182.961C191.362 182.183 191.071 181.57 194.447 179.762C199.188 177.221 203.759 176.26 209.145 176.032H209.152Z" fill="#C16D2D"/>
<path d="M50.7256 113.698C50.7635 114.805 50.6749 115.93 50.6876 116.992C50.6876 117.182 50.0491 117.099 50.0302 117.34C49.3095 126.848 41.8496 134.503 33.3973 138.556C28.4283 140.939 24.142 142.646 20.2731 137.443C17.7001 133.985 18.3765 131.709 18.6989 127.821L21.6133 132.31C27.1955 137.816 36.8996 130.514 41.5841 126.772C46.2686 123.029 49.3853 119.445 50.7256 113.698Z" fill="#CA5263"/>
<path d="M222.579 174.654C222.099 174.553 221.492 174.881 221.024 174.312C220.417 173.573 219.33 168.762 218.786 167.421C220.038 164.147 229.812 150.858 232.992 158.211C234.484 161.662 230.823 162.111 229.002 163.344C225.488 165.727 224.324 170.968 222.573 174.654H222.579Z" fill="#C16D2D"/>
<path d="M227.055 181.197C227.15 182.17 227.959 183.795 228.086 185.161C228.237 186.886 228.288 190.344 228.061 192.013C227.669 194.884 225.051 196.9 223.958 199.448C223.104 197.905 221.625 197.393 220.171 196.692C219.69 196.458 218.875 195.686 218.793 195.661C219.545 194.58 220.177 193.417 220.512 192.216C221.935 191.438 221.479 189.744 221.543 188.429C221.669 186.02 221.656 183.599 221.89 181.197C222.775 180.988 223.698 181.563 224.482 181.557C225.475 181.544 226.107 180.52 227.055 181.197Z" fill="#C16D2D"/>
<path d="M187.107 227.694C183.491 231.431 179.262 235.034 174.034 236.147C172.984 236.368 170.064 236.924 169.198 236.652C168.799 236.526 168.667 235.426 168.325 234.939C166.448 232.252 160.277 233.656 157.831 231.14C159.348 231.355 161.143 231.058 162.654 230.798C170.98 233.156 179.78 232.531 187.107 227.701V227.694Z" fill="#C26E2D"/>
<path d="M156.111 238.024C154.948 237.898 153.658 238.17 152.501 238.024C149.271 237.594 141.887 235.932 139.238 234.244C137.171 232.922 141.078 230.134 142.431 229.686C145.377 228.706 146.458 231.683 148.569 233.352C150.902 235.198 153.81 236.178 156.118 238.031L156.111 238.024Z" fill="#C26E2D"/>
<path d="M92.0517 191.526C95.7942 194.005 99.7264 198.019 102.04 201.856C103.728 204.657 105.618 208.393 106.516 211.497C106.699 212.123 106.693 213.508 106.857 213.906C106.074 216.953 103.766 217.244 101.345 215.625C99.8149 211.883 99.3598 210.132 97.2103 206.674C96.7994 206.01 96.6223 205.169 95.9712 204.297C95.6804 203.905 93.8281 201.401 93.4235 201.856C93.7648 203.999 93.5436 206.414 94.4539 208.4C94.397 208.583 94.5108 208.893 94.4539 209.089C94.4413 209.127 94.2327 209.31 94.1126 209.778C93.8787 210.682 93.7522 211.643 93.4235 212.534C93.297 212.616 92.747 213.166 92.7344 213.223C91.1476 213.773 88.8781 213.527 88.17 211.756C87.8413 210.941 88.1258 210.024 87.5631 209.43C87.835 208.305 87.5695 207.982 87.5631 207.363C87.4936 202.274 86.6275 200.093 83.2642 196.337C82.5752 195.572 79.2498 192.81 79.1234 192.557C78.3584 190.989 79.1108 188.663 80.7608 187.993C83.6815 186.804 89.5292 189.857 92.039 191.52L92.0517 191.526Z" fill="#FDA14B"/>
<path d="M97.2229 206.68C99.3723 210.139 99.8275 211.89 101.357 215.632C101.604 216.227 101.655 216.916 101.983 217.586C104.702 223.048 110.493 225.267 116.163 226.304C115.733 226.866 114.336 228.883 114.096 229.401C111.099 228.927 108.078 228.794 105.17 227.821C101.13 226.474 99.2965 225.071 96.5275 222.169L99.973 221.821C99.4419 220.506 98.8287 219.147 98.9362 217.693L94.1189 219.419C94.0557 219.312 93.6321 219.179 93.4804 218.863C92.8039 217.466 92.374 214.69 92.7407 213.217C92.7533 213.16 93.3033 212.61 93.4298 212.528C94.1884 212.022 98.5063 210.726 98.6011 210.284C98.089 208.887 96.9511 207.92 95.8448 207.022C96.2177 206.908 96.6097 206.447 97.2229 206.68Z" fill="#C26E2D"/>
<path d="M43.841 171.556C43.1014 172.574 42.0836 174.243 42.1341 175.545C42.1658 176.354 43.0761 176.367 43.5123 176.879C44.4732 178.023 44.1255 179.534 43.8474 180.849C42.1784 181.759 41.1226 182.733 39.0048 182.069C37.1461 181.487 37.6899 179.382 36.2674 178.434C36.1094 176.386 35.5214 175.172 36.2674 172.921C37.6582 168.705 41.3881 167.162 43.8474 171.543L43.841 171.556Z" fill="#FDA14B"/>
<path d="M58.647 217.705C61.1883 217.206 63.1734 215.72 65.8918 216.485C66.0941 216.542 68.2309 217.737 68.3194 217.845C68.9895 218.698 68.4332 224.015 69.6659 225.62C68.2562 225.962 66.9728 225.993 65.5314 225.968L58.6406 217.705H58.647Z" fill="#C26E2D"/>
<path d="M96.7931 229.142C98.8098 228.826 104.417 229.812 104.784 232.366C105.441 236.937 100.289 236.254 97.3431 235.318C93.3919 234.06 93.0505 229.736 96.7931 229.142Z" fill="#FDA14B"/>
<path d="M50.3842 176.721C50.0808 176.057 49.2843 176.569 48.8291 176.715C46.7934 177.347 45.5164 177.625 45.9084 180.166C45.725 180.236 44.1256 181.045 43.8411 181.197V180.855C44.1193 179.541 44.467 178.03 43.506 176.885C43.0761 176.367 42.1595 176.354 42.1279 175.551C42.0773 174.249 43.1014 172.58 43.8348 171.562C43.917 171.455 44.0687 171.347 44.1762 171.221L48.3106 169.843C50.5486 172.157 50.8584 172.327 50.732 175.899C50.713 176.348 50.3779 176.67 50.3779 176.734L50.3842 176.721Z" fill="#C16D2D"/>
<path d="M67.5987 173.624C67.7883 173.693 68.0792 174.148 68.2878 174.313C66.3596 174.072 63.6095 174.578 61.7446 175.172C61.0049 175.406 57.3193 177.056 56.9273 177.41C57.4647 175.286 57.1866 172.625 56.586 170.52C58.963 170.994 61.1504 172.075 63.4705 172.764C64.7096 173.13 66.4481 173.213 67.605 173.624H67.5987Z" fill="#C16D2D"/>
<path d="M87.9235 222.182L86.204 222.871C86.1597 222.82 85.5149 222.801 85.1672 222.371C83.4413 220.241 83.4349 218.989 82.7585 216.669C83.9976 216.745 85.1356 216.195 86.204 215.639C86.2798 217.029 87.3292 220.873 87.9235 222.182Z" fill="#C26E2D"/>
<path d="M85.1672 231.133C84.5856 231.019 83.1125 230.975 82.7585 231.474C80.3688 229.742 77.8338 227.441 78.6304 224.242C80.6787 226.708 82.8976 228.882 85.1735 231.133H85.1672Z" fill="#C26E2D"/>
<path d="M81.0326 198.077C81.8292 198.007 84.908 200.593 84.4781 201.174L80.6913 201.87C81.0263 200.548 81.1338 199.448 81.0326 198.083V198.077Z" fill="#C16D2D"/>
<path d="M88.9539 223.9C89.6999 224.969 91.3373 226.157 92.0517 227.339C89.839 227.27 88.6126 225.544 87.2281 224.242L88.9476 223.9H88.9539Z" fill="#C26E2D"/>
<path d="M139.927 215.979C138.328 216.675 136.76 217.478 135.104 218.047C132.335 216.883 127.069 218.527 124.426 219.766C119.609 219.456 118.332 213.002 124.085 213.223C127.479 213.356 129.262 213.811 132.79 212.458C133.751 212.091 134.434 211.308 134.762 211.162C134.996 211.061 135.217 210.916 135.451 210.821C137.582 209.91 140.895 208.381 143.031 207.723C143.758 207.495 144.726 207.527 145.44 207.382L145.781 207.04C145.895 207.021 146.015 207.059 146.123 207.04C148.898 206.642 157.015 205.618 157.774 209.36C158.735 214.102 152.723 212.667 150.086 212.901C146.521 213.21 143.132 214.601 139.921 215.992L139.927 215.979Z" fill="#FDA14B"/>
<path d="M147.849 215.639C150.978 216.176 153.968 217.915 156.996 218.718C158.381 219.084 161.181 219.773 162.484 219.773H176.607C177.119 219.773 178.352 219.426 178.503 219.432C179.603 219.445 182.233 220.5 183.219 221.082C183.687 221.36 184.149 221.493 184.01 222.176C179.369 225.463 173.06 226.582 167.535 225.4C164.462 224.742 158.956 221.834 156.288 221.834H147.507C147.545 220.026 146.281 217.542 147.178 215.886C147.381 215.506 147.836 215.664 147.855 215.633L147.849 215.639Z" fill="#C26E2D"/>
<path d="M156.111 203.241C156.408 203.564 156.339 203.677 156.453 203.93C155.093 203.93 153.633 204.145 152.305 204.436C150.978 204.727 148.342 205.466 147.153 205.997L143.366 204.619C143.758 201.104 143.986 200.738 146.123 198.076C148.367 200.087 154.24 201.218 156.111 203.241Z" fill="#C26E2D"/>
<path d="M139.927 215.98C140.117 216.011 140.572 215.923 140.616 215.98C140.743 216.15 140.559 219.374 140.616 220.114L139.232 219.95C139.769 221.29 139.681 222.554 139.232 223.907C138.884 223.8 137.512 219.065 135.097 218.053C136.747 217.484 138.321 216.681 139.921 215.986L139.927 215.98Z" fill="#C26E2D"/>
<path d="M186.418 202.894C185.009 204.367 183.106 205.871 181.253 206.68H180.912C180.899 206.269 181 205.618 180.912 205.302C182.619 204.91 182.157 204.455 181.601 203.235C182.695 203.21 185.28 203.045 186.425 202.894H186.418Z" fill="#C26E2D"/>
<path d="M171.265 196.698C167.231 195.971 164.266 194.435 160.157 196.098C159.847 196.224 157.584 197.602 157.489 197.735C154.841 197.64 152.306 195.801 149.91 195.326C149.587 194.22 151.313 194.663 152.318 194.637C154.246 194.587 156.68 194.296 158.343 194.296H165.234C167.649 194.296 169.457 195.503 171.259 196.705L171.265 196.698Z" fill="#C26E2D"/>
<path d="M130.28 203.583C130.305 203.463 129.743 202.957 130.097 202.223C130.76 200.833 136.848 196.9 138.378 196.692C139.112 196.591 138.947 196.951 138.827 197.488C138.467 199.119 137.19 201.269 136.829 202.894C134.623 202.868 132.373 202.748 130.286 203.583H130.28Z" fill="#C26E2D"/>
<path d="M134.762 211.162C134.427 211.308 133.751 212.092 132.79 212.458C129.262 213.818 127.479 213.356 124.085 213.223C124.995 211.782 127.246 210.72 128.219 209.437L134.762 211.156V211.162Z" fill="#C26E2D"/>
<path d="M106.516 211.504C110.29 211.814 114.21 212.358 117.877 211.163C117.978 211.991 117.548 212.763 117.535 213.572C114.64 213.471 112.187 213.49 109.38 214.198C108.817 214.343 108.116 214.172 107.894 214.95C107.667 214.608 106.889 213.983 106.864 213.919C106.693 213.515 106.699 212.137 106.522 211.511L106.516 211.504Z" fill="#C26E2D"/>
<path d="M118.572 204.272C119.04 202.11 120.886 200.858 122.359 199.448C122.39 199.518 122.915 199.638 123.01 200.024C123.313 201.237 119.754 203.791 118.572 204.272Z" fill="#C26E2D"/>
<path d="M30.3186 117.902C33.5174 117.263 35.4836 120.589 33.8019 123.459C31.0203 128.207 21.4933 126.708 24.749 121.297C25.2991 120.38 29.2818 118.104 30.3186 117.902Z" fill="#F68A98"/>
<path d="M41.325 109.981C47.413 108.154 46.1928 118.642 40.4778 116.189C37.8542 115.063 39.1187 110.638 41.325 109.981Z" fill="#F68A98"/>
<path d="M216.725 129.882C216.801 131.525 214.987 133.257 213.425 133.308C212.445 133.34 211.712 132.429 210.871 132.986C210.524 132.739 210.081 132.771 209.841 132.644C208.602 131.98 208.513 131.456 206.566 131.272C204.233 131.051 203.677 131.62 201.92 131.955C201.174 132.101 200.263 132.088 199.511 132.297C197.633 132.821 196.059 133.428 194.346 134.364C193.499 134.825 191.95 135.154 191.937 136.431C198.43 136.463 205.479 136.039 211.219 139.535C211.301 139.643 211.478 139.718 211.56 139.876C211.794 140.332 212.585 143.303 212.603 143.853C212.667 145.345 211.674 146.799 212.25 148.139C211.952 148.43 211.371 148.689 211.263 149.062C211.143 149.479 211.447 150.105 211.56 150.554C210.302 152.368 209.689 153.962 207.066 153.152C206.503 152.982 205.991 152.343 205.365 152.103C202.16 150.883 198.607 150.263 199.852 145.737C198.139 145.983 197.058 145.509 195.737 144.517L189.522 143.322C188.688 142.152 186.273 142.209 184.863 140.578C180.564 135.609 188.384 130.482 192.279 128.516C199.985 124.628 210.372 122.573 216.732 129.894L216.725 129.882Z" fill="#FDA14B"/>
<path d="M197.437 149.859C196.698 149.808 196.464 148.531 196.394 148.487C196.116 148.291 193.537 150.877 191.059 148.487C189.706 147.185 190.199 145.415 189.857 144.005C191.172 144.53 192.367 145.295 193.651 145.895C195.351 146.692 196.097 145.901 197.02 148.045C197.305 148.708 197.267 149.341 197.437 149.859Z" fill="#7E7B77"/>
<path d="M194.34 134.358L194.517 135.053C195.756 134.838 197.633 134.396 198.816 134.358C199.334 134.339 200.061 134.288 200.535 134.358C201.724 134.541 206.642 135.964 207.767 136.425C207.824 136.45 208.671 137.013 208.798 137.114C209.013 137.279 211.036 139.302 211.206 139.523C205.46 136.027 198.417 136.45 191.925 136.419C191.937 135.142 193.486 134.813 194.333 134.352L194.34 134.358Z" fill="#F5822A"/>
<path d="M198.816 134.357C197.627 134.395 195.756 134.838 194.517 135.053L194.34 134.357C196.053 133.422 197.627 132.821 199.505 132.29L198.816 134.357Z" fill="#7E7B77"/>
<path d="M223.958 199.448C224.994 201.326 224.678 202.963 223.559 204.733C223.167 205.347 222.27 205.909 222.074 206.345C221.403 207.856 222.105 209.336 220.171 210.815C218.135 212.376 211.522 214.994 208.893 215.891C206.907 216.574 203.892 216.947 202.356 217.624C201.338 218.072 200.27 219.64 198.961 219.767C197.747 219.887 192.968 219.223 191.571 218.926C189.687 218.521 189.118 218.389 187.803 217.017C187.607 215.917 189.845 214.267 190.66 213.849C192.456 212.926 193.897 213.375 195.724 213.23C197.551 213.085 200.377 211.858 202.267 211.163C203.765 210.613 204.549 210.24 206.402 209.785C206.433 209.778 206.56 210.113 207.072 209.993C207.717 209.841 214.197 207.009 214.506 206.699C215.202 205.998 215.259 204.721 215.745 203.81C216.049 203.241 216.909 202.748 217.073 202.375C217.427 201.566 216.081 201.939 215.701 201.863C218.337 200.915 221.612 200.416 220.177 196.698C221.631 197.4 223.11 197.906 223.964 199.455L223.958 199.448Z" fill="#239926"/>
<path d="M208.804 205.999C208.128 206.985 207.78 208.837 206.395 209.785C204.543 210.241 203.759 210.614 202.261 211.164C200.453 210.196 196.552 211.284 195.718 213.231C193.891 213.376 192.449 212.927 190.654 213.85C189.838 214.274 187.6 215.918 187.796 217.018C186.317 215.469 185.976 214.634 186.855 212.459C188.119 209.33 195.572 205.025 198.816 204.62C201.06 204.342 202.071 205.486 203.639 203.242C204.328 205.752 206.326 206.833 208.804 205.999Z" fill="#2D792C"/>
<path d="M218.793 195.662C218.875 195.687 219.69 196.465 220.171 196.692C221.606 200.409 218.331 200.909 215.695 201.857C212.148 201.174 210.694 203.242 208.804 205.992C206.326 206.826 204.322 205.745 203.639 203.235C204.632 201.813 205.814 199.309 207.084 198.07C209.746 195.478 215.328 194.612 218.793 195.662Z" fill="#39B83F"/>
<path d="M207.084 198.077C205.814 199.316 204.638 201.819 203.639 203.242C202.071 205.486 201.06 204.342 198.815 204.62C199.802 202.3 203.083 198.728 205.498 198.02C206.041 197.862 206.566 197.678 207.078 198.077H207.084Z" fill="#C16D2D"/>
<path d="M215.695 201.863C216.081 201.939 217.427 201.566 217.067 202.375C216.902 202.748 216.049 203.235 215.739 203.81C215.252 204.72 215.195 206.004 214.5 206.699C214.19 207.009 207.71 209.841 207.065 209.993C206.553 210.113 206.427 209.778 206.395 209.784C207.786 208.836 208.134 206.984 208.804 205.997C210.688 203.247 212.148 201.18 215.695 201.863Z" fill="#F4822A"/>
<path d="M202.261 211.163C200.371 211.858 197.583 213.085 195.718 213.23C196.552 211.289 200.453 210.195 202.261 211.163Z" fill="#C26E2D"/>
<path d="M208.804 65.1332C209.032 65.247 209.272 65.3734 209.493 65.4745C209.278 66.4987 209.948 66.0309 210.182 66.1636C211.845 67.0929 211.725 68.1613 213.628 68.2309C213.64 69.2487 215.12 70.0516 215.948 70.2159C217.749 70.5889 218.388 69.47 219.829 69.9504C219.779 70.2033 218.015 73.5539 217.882 73.7309C216.264 75.8171 214.715 76.3734 212.066 76.1648C207.47 75.8044 196.173 65.7527 193.929 61.5866C191.874 57.7808 193.663 54.7779 196.413 52.0469C197.033 52.8687 196.236 53.7601 196.476 54.898C196.596 55.467 196.957 55.7704 197.267 56.1877C198.695 58.1095 206.534 64.0142 208.81 65.1332H208.804Z" fill="#CA5263"/>
<path d="M216.384 62.0358C216.201 61.9536 215.568 62.118 215.025 61.8588C213.773 61.2583 211.889 58.6157 210.783 58.1668C207.508 56.8329 204.663 59.6525 206.579 62.7123C207.217 63.7301 208.602 63.9324 208.798 65.1398C206.522 64.0146 198.683 58.1163 197.254 56.1944C196.944 55.7772 196.584 55.4674 196.464 54.9048C196.224 53.7668 197.02 52.8818 196.401 52.0536C198.582 49.8852 199.138 49.43 202.394 50.707C203.974 51.3266 209.714 55.8847 211.371 57.2249C213.16 58.6726 214.936 60.2278 216.371 62.0358H216.384Z" fill="#E66B7C"/>
<path d="M216.725 129.882C217.446 130.71 219.071 132.689 219.482 133.327C219.602 133.517 220.518 137.259 220.525 137.645C220.569 139.422 219.577 142.405 218.274 143.657C217.168 144.719 215.36 145.08 214.329 145.908C213.76 146.369 212.951 147.444 212.249 148.133C211.674 146.793 212.667 145.339 212.603 143.847C212.578 143.297 211.794 140.319 211.56 139.87C216.024 139.333 213.4 135.135 211.219 133.327C211.093 133.22 210.985 133.062 210.878 132.986C211.712 132.436 212.452 133.34 213.432 133.308C214.993 133.258 216.808 131.526 216.732 129.882H216.725Z" fill="#F5822A"/>
<path d="M216.384 62.0358C217.642 62.6174 217.661 63.6289 218.104 64.1031C217.497 64.691 217.857 65.7088 217.604 66.537C217.067 68.3008 215.139 68.2945 213.621 68.2376C211.718 68.168 211.839 67.1059 210.176 66.1703C210.372 65.1841 209.771 65.614 209.487 65.4812C209.266 65.3801 209.025 65.2473 208.798 65.1398C208.602 63.9324 207.211 63.7301 206.579 62.7123C204.657 59.6525 207.508 56.8329 210.783 58.1668C211.883 58.6157 213.767 61.2582 215.025 61.8588C215.568 62.118 216.201 61.9536 216.384 62.0358Z" fill="#F68A98"/>
<path d="M219.823 69.9576C218.382 69.4771 217.743 70.5961 215.941 70.2231C215.113 70.0524 213.634 69.2495 213.621 68.238C215.139 68.2949 217.067 68.3012 217.604 66.5374C217.851 65.7156 217.49 64.6914 218.104 64.1035C218.748 64.7863 219.931 64.6029 220.291 66.607C220.43 67.3909 219.918 67.5236 219.848 68.0863C219.766 68.7185 219.931 69.4708 219.823 69.9639V69.9576Z" fill="#E66B7C"/>
<path d="M237.044 97.5088C232.056 102.908 226.341 107.965 221.713 113.693C220.866 114.742 217.598 119.319 217.813 120.331C217.914 120.792 218.843 121.728 219.14 122.474C220.474 125.768 221.391 130.085 219.475 133.335C219.064 132.696 217.44 130.718 216.719 129.889C210.359 122.569 199.972 124.623 192.266 128.511C195.269 121.677 200.181 117.062 208.039 117.075C209.879 113.939 212.148 111.101 214.304 108.193L237.038 97.5151L237.044 97.5088Z" fill="#7E7B77"/>
<path d="M237.044 97.5092L214.31 108.187C219.172 101.637 223.958 96.3965 229.3 90.2833C232.208 86.9516 236.058 81.047 239.453 78.5689C240.749 77.6269 242.892 76.7418 244.276 75.8125C246.381 76.1476 247.974 79.1821 248 81.1482C248.057 86.4775 240.483 93.7919 237.044 97.5092Z" fill="#9A9B97"/>
<path d="M244.276 75.812C242.898 76.7414 240.749 77.6264 239.453 78.5684C240.483 77.0196 242.31 75.5023 244.276 75.812Z" fill="#7E7B77"/>
<path d="M209.841 132.639L207.774 136.426C206.648 135.964 201.73 134.542 200.541 134.359L201.92 131.95C203.677 131.608 204.233 131.04 206.566 131.267C208.513 131.457 208.602 131.981 209.841 132.639Z" fill="#7E7B77"/>
<path d="M211.56 139.871C211.478 139.713 211.301 139.637 211.219 139.529C211.048 139.308 209.025 137.285 208.81 137.121L211.219 133.334C213.4 135.142 216.03 139.34 211.56 139.877V139.871Z" fill="#7E7B77"/>
<path d="M209.493 65.4814C209.778 65.6142 210.378 65.1843 210.182 66.1705C209.948 66.0441 209.278 66.5056 209.493 65.4814Z" fill="#E66B7C"/>
<path d="M97.223 206.68C96.6161 206.453 96.2178 206.914 95.8448 207.022C95.6172 207.091 95.1241 206.864 94.8839 207.079C94.8333 207.123 94.5615 208.103 94.4666 208.4C93.5563 206.415 93.7775 204 93.4362 201.857C93.8408 201.402 95.6994 203.905 95.9839 204.297C96.6287 205.176 96.812 206.017 97.223 206.674V206.68Z" fill="#F6822A"/>
<path d="M94.119 209.784C94.2391 209.316 94.454 209.133 94.4603 209.095L94.119 209.784Z" fill="#F6822A"/>
<path d="M132.695 237.334C128.7 241.178 120.639 244.914 115.86 240.571C114.627 239.452 113.274 237.309 113.066 235.614C112.996 235.058 113.015 234.122 113.066 233.547C115.253 239.679 122.03 236.815 126.493 235.09C131.222 233.269 135.281 231.189 137.866 226.656C137.557 230.658 135.584 234.559 132.701 237.334H132.695Z" fill="#CA5263"/>
<path d="M135.104 218.046C137.519 219.064 138.89 223.799 139.238 223.9C139.061 224.444 138.195 226.069 137.86 226.657C135.274 231.19 131.216 233.263 126.487 235.09C122.024 236.81 115.253 239.68 113.059 233.548C113.16 232.473 113.654 230.374 114.09 229.413C114.33 228.888 115.721 226.878 116.157 226.315C118.085 223.799 121.562 221.119 124.42 219.772C127.062 218.527 132.328 216.883 135.097 218.053L135.104 218.046ZM132.607 221.909C128.693 222.668 129.452 228.509 133.523 228.022C137.797 227.517 137.24 221.005 132.607 221.909ZM124.35 222.263C122.144 222.522 117.933 224.457 117.56 226.853C116.764 232.043 121.531 232.448 125.387 231.24C131.886 229.205 130.286 221.568 124.344 222.263H124.35Z" fill="#E66B7C"/>
<path d="M124.35 222.263C130.293 221.568 131.892 229.205 125.393 231.24C121.531 232.448 116.77 232.043 117.567 226.853C117.933 224.457 122.15 222.523 124.356 222.263H124.35Z" fill="#F68A98"/>
<path d="M132.606 221.909C137.24 221.011 137.797 227.517 133.523 228.022C129.452 228.503 128.693 222.668 132.606 221.909Z" fill="#F68A98"/>
<path d="M145.434 207.37C145.434 207.37 145.535 207.066 145.775 207.028L145.434 207.37Z" fill="#F5822A"/>
<path d="M180.912 206.68H181.253C181.5 207.843 182.499 208.564 182.903 209.682C183.093 210.214 183.662 212.527 183.668 212.881C183.668 212.951 183.365 214.203 183.327 214.26C183.302 214.297 182.726 214.329 182.467 214.595C181.595 215.486 180.773 216.384 179.616 216.921C178.023 217.667 176.613 217.515 175.058 218.046C173.939 217.787 173.503 217.686 172.302 217.705C172.504 216.643 171.777 217.117 171.157 216.972C166.195 215.846 160.865 213.033 158.248 208.507C157.369 206.989 157.142 205.365 156.459 203.923C156.339 203.67 156.415 203.557 156.118 203.234C156.32 202.672 156.377 202.096 156.459 201.515C158.356 205.738 161.175 209.853 165.455 211.971C169.254 213.849 175.102 213.817 178.744 211.573C180.684 210.372 180.981 208.848 180.912 206.68Z" fill="#CA5263"/>
<path d="M171.265 196.698C172.232 197.342 172.972 198.032 173.901 198.714C175.121 199.618 178.548 202.526 179.534 202.893C179.502 203.721 180.773 204.802 180.912 205.302C181 205.618 180.899 206.269 180.912 206.68C180.981 208.848 180.684 210.372 178.744 211.573C175.102 213.817 169.254 213.849 165.455 211.971C161.169 209.853 158.356 205.738 156.459 201.515C156.604 200.548 156.952 198.461 157.489 197.728C157.584 197.595 159.854 196.217 160.157 196.091C164.266 194.428 167.231 195.964 171.265 196.691V196.698ZM164.791 202.843C164.791 201.11 163.388 199.701 161.649 199.701C159.911 199.701 158.507 201.104 158.507 202.843C158.507 204.581 159.911 205.984 161.649 205.984C163.388 205.984 164.791 204.581 164.791 202.843ZM167.042 203.664C164.096 204.271 162.838 208.033 165.436 209.936C167.175 211.206 174.843 212.439 176.253 210.467C179.736 205.618 170.614 202.931 167.042 203.664Z" fill="#E66B7C"/>
<path d="M167.042 203.664C170.614 202.924 179.736 205.618 176.253 210.466C174.837 212.439 167.175 211.206 165.436 209.935C162.838 208.033 164.096 204.277 167.042 203.664Z" fill="#F68A98"/>
<path d="M161.649 205.984C163.384 205.984 164.791 204.577 164.791 202.842C164.791 201.107 163.384 199.7 161.649 199.7C159.914 199.7 158.507 201.107 158.507 202.842C158.507 204.577 159.914 205.984 161.649 205.984Z" fill="#F68A98"/>
<path d="M68.2878 174.313C73.7752 174.989 77.0499 179.522 77.9287 184.643C78.112 185.705 78.3585 186.4 78.289 187.582C78.2195 188.765 77.4166 190.478 77.6378 191.287C77.7769 191.812 79.0919 192.747 79.566 193.519C80.2867 194.694 80.9315 196.699 81.0327 198.083C81.1338 199.468 81.0264 200.549 80.6913 201.87C79.762 205.518 76.1079 208.109 72.4286 208.413C67.1941 208.843 63.028 207.711 58.3056 205.657C58.6343 205.164 58.7102 204.222 59.3423 203.419C59.9303 202.666 61.2642 202.066 61.4096 201.87C64.7096 202.793 66.2521 203.115 69.6723 202.559C71.5246 202.262 74.8625 201.87 74.7993 199.278C74.7108 195.63 69.5332 196.907 68.9832 193.948C68.9263 193.645 68.9326 192.886 68.9832 192.57C69.3183 190.421 71.2907 190.509 71.6574 188.531C71.9165 187.14 71.6574 184.548 71.0505 183.271C74.6729 182.506 74.4263 178.82 71.7142 176.924C68.882 174.939 66.1446 175.855 63.2366 177.012C61.4032 177.739 56.94 180.97 55.9854 181.153C54.74 181.387 54.7021 180.717 54.171 180.515C55.0308 179.958 55.6946 179.162 56.4343 178.454C56.8073 178.1 56.8831 177.455 56.9273 177.41C57.3256 177.056 61.0113 175.406 61.7446 175.173C63.6096 174.578 66.3596 174.079 68.2878 174.313Z" fill="#239926"/>
<path d="M71.0442 183.264C70.7597 182.664 69.9188 181.848 69.3246 181.545C67.5228 180.616 65.3229 180.774 63.4516 181.368C63.0912 181.482 62.9142 181.836 62.7814 181.893C61.8142 182.31 61.0366 182.462 60.2337 183.302C58.6848 184.921 59.2159 188.208 56.6745 188.72C53.9561 189.27 53.3745 186.514 51.1681 186.109C49.79 185.856 48.1716 186.046 46.9452 186.716C45.1687 184.915 45.1877 181.178 47.9567 180.325C49.3411 179.901 50.3273 180.78 50.3906 179.484C51.5475 179.56 53.0774 180.097 54.1774 180.514C54.7084 180.717 54.7463 181.387 55.9917 181.153C56.9463 180.97 61.4096 177.739 63.2429 177.012C66.1447 175.855 68.882 174.939 71.7206 176.924C74.4327 178.82 74.6793 182.506 71.0568 183.271L71.0442 183.264Z" fill="#39B83F"/>
<path d="M50.3842 179.478C50.321 180.774 49.3348 179.895 47.9503 180.319C45.1813 181.166 45.1624 184.909 46.9388 186.71C46.4394 186.982 44.8589 188.461 44.5112 188.942C44.1445 189.448 44.2963 189.947 44.1888 190.149C44.1256 190.269 43.6515 190.434 43.4745 190.971C42.2859 194.613 44.9727 196.414 48.1273 197.407C50.3463 198.102 53.5199 197.628 53.5136 201.004C53.5136 203.906 51.2251 203.653 50.7256 204.285C50.6055 204.443 51.6043 206.706 52.1038 207.029C51.8129 207.048 49.9606 208.179 49.0945 208.325C47.925 208.527 46.7302 208.356 45.5606 208.407C45.4911 208.262 44.9853 208.047 44.7577 207.326C44.5175 206.555 44.6566 205.891 44.5302 205.309C46.9388 205.467 49.7267 205.543 49.7267 202.382C49.7267 199.221 47.1348 199.955 45.9147 198.93C45.5607 198.633 45.4595 197.862 45.0612 197.369C43.2215 195.099 40.2376 196.642 39.0175 198.766C34.1117 192.779 37.7595 184.586 43.8411 181.204C44.1256 181.046 45.725 180.237 45.9084 180.173C47.2549 179.687 48.9555 179.39 50.3842 179.484V179.478Z" fill="#239926"/>
<path d="M72.4223 208.407C72.3527 208.54 72.0999 208.666 72.0809 208.748L64.305 209.753C63.9952 209.753 64.3998 208.919 63.8245 209.102C63.951 209.829 63.1418 209.791 62.7877 210.133C59.0515 213.673 57.4142 215.196 51.7624 213.749C48.1653 212.832 47.0147 211.536 45.567 208.407C46.7365 208.363 47.9376 208.527 49.1009 208.325C49.9606 208.179 51.8193 207.048 52.1101 207.029C52.4262 207.01 53.8486 207.673 54.5188 207.718C56.3521 207.831 57.3193 207.13 58.3056 205.65C63.028 207.705 67.1878 208.837 72.4286 208.407H72.4223Z" fill="#2D792C"/>
<path d="M44.5238 205.31C43.6641 201.384 43.4744 202.945 40.9141 200.821C40.1744 200.208 39.6117 199.493 39.0112 198.76C40.2313 196.636 43.2153 195.1 45.0549 197.363C45.4532 197.856 45.5543 198.621 45.9084 198.924C47.1285 199.949 49.7205 199.089 49.7205 202.376C49.7205 205.664 46.9261 205.461 44.5238 205.303V205.31Z" fill="#39B83F"/>
<path d="M72.0809 208.748C71.7711 209.822 71.4614 210.815 71.0441 211.845C68.3257 210.65 65.8538 209.595 62.7814 210.126C63.1417 209.784 63.9446 209.822 63.8182 209.095C64.3998 208.912 63.9889 209.746 64.2986 209.746L72.0746 208.741L72.0809 208.748Z" fill="#C16D2D"/>
<path d="M71.0441 183.265C71.6447 184.542 71.9102 187.128 71.651 188.525C71.2843 190.504 69.3119 190.415 68.9769 192.564C68.0792 192.704 67.251 192.305 66.3849 192.223C65.974 192.185 64.8993 191.983 65.1837 192.735C65.2533 192.918 68.4332 193.873 68.9769 193.943C69.5269 196.901 74.7045 195.624 74.793 199.272C74.8562 201.864 71.5182 202.25 69.6659 202.553C67.605 200.157 65.3418 199.462 62.4337 198.766C61.2958 198.494 60.7205 197.881 59.1906 198.09C58.4194 198.197 57.9326 198.722 57.2751 198.95C56.3774 199.259 55.7325 198.747 55.2015 199.797L51.0796 196.863C49.8658 196.237 48.5003 191.129 48.2537 190.908C47.9882 190.668 44.8779 190.39 44.1825 190.156C44.29 189.947 44.1382 189.454 44.5049 188.948C44.8526 188.468 46.4394 186.989 46.9325 186.717C48.1589 186.047 49.7773 185.857 51.1555 186.11C53.3681 186.521 53.9435 189.277 56.6619 188.721C59.2033 188.209 58.6722 184.921 60.2211 183.303C61.0303 182.462 61.8015 182.31 62.7687 181.893C64.8613 181.691 67.3458 182.336 69.312 181.552C69.9062 181.862 70.747 182.671 71.0315 183.271L71.0441 183.265Z" fill="#F4822A"/>
<path d="M62.4337 198.766C62.086 199.398 61.6751 201.491 61.4033 201.864C61.2578 202.059 59.9302 202.666 59.336 203.412C58.7101 204.215 58.6279 205.157 58.2992 205.65C57.313 207.13 56.3457 207.825 54.5124 207.718C54.6451 205.454 54.1647 201.838 55.2015 199.796C55.7325 198.747 56.3773 199.259 57.275 198.949C57.9325 198.722 58.4256 198.191 59.1906 198.089C60.7205 197.881 61.2958 198.494 62.4337 198.766Z" fill="#C16D2D"/>
<path d="M68.9769 192.565C68.9263 192.881 68.92 193.639 68.9769 193.943C68.4332 193.873 65.2596 192.919 65.1838 192.735C64.893 191.989 65.9677 192.185 66.3849 192.223C67.251 192.305 68.0792 192.704 68.9769 192.565Z" fill="#C26E2D"/>
</svg>
