<svg width="260" height="260" viewBox="0 0 260 260" fill="none" xmlns="http://www.w3.org/2000/svg">
<path d="M35.2862 48.0846C32.7294 34.4481 14.517 41.0498 12.8334 51.8919C11.9462 51.5846 10.4932 50.376 9.96223 49.6215C5.48425 43.2574 17.7795 34.6996 23.3542 34.4132C26.0159 34.2805 35.7264 38.5279 37.1864 40.6586C39.1844 43.5647 38.2552 46.5407 35.2792 48.0846H35.2862Z" fill="#FDFEFE"/>
<path d="M35.2863 48.0856C33.924 48.7912 27.5249 50.8869 25.9321 51.0965C24.7026 51.2642 23.4242 50.9847 22.2016 51.1664C19.023 51.6484 16.2356 53.0805 12.8405 51.8859C14.5241 41.0438 32.7364 34.4421 35.2932 48.0786L35.2863 48.0856Z" fill="#C8DFEC"/>
<path d="M69.161 93.3745C65.6261 96.2807 60.3099 95.5611 56.6003 93.3745C55.8179 91.4185 54.9516 91.1111 55.7131 88.4914C56.4327 86.0114 61.1691 83.0703 63.6352 83.0703C66.7439 83.0703 70.8935 86.7938 70.663 90.0981C70.5652 91.4883 69.685 92.3336 69.154 93.3745H69.161Z" fill="#50904A"/>
<path d="M57.3617 96.0371C58.5144 96.1209 59.6461 96.6797 60.4076 97.56C61.6022 98.9502 61.6581 100.767 61.5463 102.506C59.9815 106.02 56.9076 110.589 52.5694 110.142C52.0384 110.086 51.7311 109.75 51.6542 109.743C51.7869 109.185 52.9257 105.74 52.7929 105.573C52.6532 105.384 50.5644 105.063 49.9566 103.26C48.266 98.2306 53.0444 95.7227 57.3617 96.044V96.0371Z" fill="#66AA5F"/>
<path d="M45.9468 113.928C46.6524 120.53 40.4698 122.039 36.0547 118.112C33.0927 110.645 41.888 106.725 45.9468 113.928Z" fill="#51904B"/>
<path d="M57.3617 95.6598V96.037C53.0514 95.7087 48.2661 98.2166 49.9567 103.253C50.5644 105.063 52.6532 105.384 52.7929 105.566C52.9257 105.74 51.787 109.178 51.6542 109.736C48.301 109.212 45.9747 109.024 43.6623 106.313C43.2641 104.434 43.0406 103.414 44.1024 101.612C44.808 100.417 49.761 97.0989 51.1722 96.4981C53.254 95.6179 55.1192 95.5201 57.3687 95.6528L57.3617 95.6598Z" fill="#51904B"/>
<path d="M43.6624 106.313C45.9747 109.031 48.301 109.212 51.6543 109.736C51.7381 109.75 52.0385 110.086 52.5694 110.135C56.9077 110.582 59.9815 106.013 61.5464 102.499C60.9735 111.699 45.7092 115.912 43.6624 106.306V106.313Z" fill="#B7BBB7"/>
<path d="M69.161 93.375C68.8187 94.0526 68.7908 94.8979 68.19 95.6454C66.2339 98.0905 63.1182 97.4897 60.4077 97.5665C59.6462 96.6863 58.5145 96.1344 57.3618 96.0436V95.6664C56.9636 94.9887 56.8448 93.9967 56.6003 93.382C60.3099 95.5686 65.6262 96.2881 69.161 93.382V93.375Z" fill="#B9BBB9"/>
<path d="M36.0477 118.112C40.4698 122.038 46.6454 120.529 45.9398 113.928C50.4248 121.878 39.0447 125.692 36.0477 118.112Z" fill="#B9BBB9"/>
<path d="M32.6246 151.98C31.4021 152.762 28.3282 152.93 26.9031 152.559C24.8702 152.028 20.6926 148.319 19.3024 146.649C17.4581 144.442 16.2496 141.934 17.7027 139.153C18.0869 138.42 18.7715 138.064 19.0859 137.491C20.1826 135.465 19.6727 133.655 23.005 133.041C27.3991 132.23 31.6256 134.403 32.5338 138.937C32.7434 139.985 32.5058 140.998 32.7992 142.094C33.0577 143.072 34.0986 143.96 34.3641 145.098C34.8391 147.117 34.5248 150.757 32.6246 151.973V151.98Z" fill="#50904A"/>
<path d="M36.0477 153.502C40.3929 155.13 41.7342 159.251 38.339 162.751C37.9897 163.115 37.6335 162.968 37.5636 163.017C34.895 163.967 32.415 164.365 30.3192 162.081C27.7484 159.279 29.4949 154.955 32.9878 154.061C34.0567 153.788 35.2513 154.18 36.0477 153.502Z" fill="#51904B"/>
<path d="M48.9926 158.832C48.7481 154.941 50.9487 151.378 55.252 152C55.9576 152.105 56.4885 152.664 57.1592 152.692C62.4405 152.915 67.8197 149.464 73.4853 153.188C74.0372 153.551 77.6349 156.471 77.9353 156.841C79.9193 159.272 79.102 161.096 77.9283 163.401C74.135 167.111 70.3416 163.576 67.1141 161.152C60.9246 161.696 53.1074 165.364 49.0066 158.839L48.9926 158.832Z" fill="#50904A"/>
<path d="M48.9926 158.832C53.0934 165.357 60.9106 161.689 67.1001 161.144C70.3276 163.568 74.121 167.103 77.9144 163.394C77.7048 163.813 77.7537 164.316 77.3345 164.896C75.1759 167.837 71.6759 168.137 68.4135 167.006C65.3187 165.93 63.719 161.99 60.4146 164.162C60.3168 164.854 61.1411 164.442 61.5533 164.54L56.2231 166.062C52.304 164.225 49.307 163.869 48.9926 158.832Z" fill="#B9BBB9"/>
<path d="M32.6246 151.98L32.2474 153.118C33.4559 152.713 34.8671 153.062 36.0547 153.503C35.2653 154.18 34.0637 153.789 32.9949 154.061C29.5019 154.956 27.7554 159.28 30.3262 162.081C32.422 164.366 34.909 163.967 37.5707 163.017C31.5767 167.453 25.0169 162.214 28.0558 155.41C23.9621 154.676 19.6517 151.009 19.3024 146.649C20.6926 148.319 24.8702 152.029 26.9031 152.559C28.3283 152.93 31.4021 152.762 32.6246 151.98Z" fill="#B3B6B3"/>
<path d="M80.9602 183.571C81.6239 186.33 83.5799 187.902 83.9223 189.558C84.4741 192.22 85.6059 196.565 85.8644 199.031C86.6188 206.324 83.056 212.877 74.8545 211.186C73.0312 210.809 72.0043 209.447 70.663 208.909C69.3217 208.371 67.7009 208.406 66.2968 207.945C61.9655 206.527 60.5264 203.823 57.3408 201.294C50.9557 196.243 42.845 194.797 41.0077 185.471C43.3829 186.547 45.6953 183.438 46.9527 183.292C48.0425 183.166 50.278 183.676 51.8499 183.564C53.6732 183.431 55.9995 182.453 57.5853 182.411C59.1711 182.369 61.3996 183.431 63.2649 183.578C66.7928 183.857 71.9624 184.074 75.4763 183.962C77.2856 183.906 79.088 183.285 80.9742 183.564L80.9602 183.571Z" fill="#50904A"/>
<path d="M65.7379 172.156C64.5713 174.413 63.1042 174.867 61.5533 176.718C63.3696 177.095 67.2468 179.477 68.9304 179.282C70.8865 179.058 72.6539 175.181 76.7058 176.215C80.6738 177.235 80.2337 180.525 80.9672 183.571C79.081 183.292 77.2717 183.914 75.4693 183.969C71.9554 184.081 66.7858 183.865 63.2579 183.585C61.3926 183.438 59.1082 182.377 57.5783 182.419C56.0484 182.46 53.6662 183.438 51.8429 183.571C50.2711 183.683 48.0355 183.173 46.9457 183.299C45.6883 183.445 43.3759 186.554 41.0007 185.478C40.5187 183.019 39.5546 178.52 39.89 176.187C40.1415 174.455 41.364 172.743 42.9428 172.01C44.0256 171.507 45.0945 171.583 45.9328 171.192C47.8329 170.305 49.2581 168.782 52.0385 167.594C54.5883 169.061 56.8239 166.085 59.1013 165.715C63.6561 164.982 66.2409 167.685 65.7379 172.163V172.156Z" fill="#66AA5F"/>
<path d="M65.7379 172.156C66.2409 167.678 63.6561 164.981 59.1013 165.708C56.8238 166.071 54.5883 169.054 52.0385 167.587C53.4007 167.007 54.6373 166.064 56.2231 166.064L61.5533 164.541C64.9415 165.351 67.3097 167.678 66.3317 171.429C66.2339 171.792 65.8357 171.974 65.7379 172.156Z" fill="#51904B"/>
<path d="M23.1097 72.8219C25.1985 74.4986 27.0009 74.8409 29.4669 73.6602L44.6683 62.2103C49.6772 65.3121 60.5543 69.3499 64.5293 63.0556C65.4584 61.5886 65.4934 59.3531 66.0872 58.5218C66.4295 58.0467 74.7777 52.3323 75.7417 51.8083C76.9712 51.1447 79.4583 50.7814 80.094 50.2574C80.7297 49.7335 82.8325 46.1427 83.8105 45.032C87.2895 41.036 96.4131 34.4134 101.848 35.7687C102.442 35.9154 102.749 36.1249 103.036 36.6629C102.756 37.5431 101.653 39.6528 101.136 40.4702C100.165 41.9931 98.2225 43.544 97.3842 44.8993C93.5698 51.0888 93.7794 59.6046 88.023 64.844C85.4173 67.2122 81.5959 67.0306 79.9892 63.7053C78.5291 60.6664 80.3874 57.6206 81.3375 54.7354C76.7058 55.7973 76.9503 59.1086 75.5391 62.6365C71.8995 71.7531 69.161 76.5035 58.9755 78.8019C57.4037 79.1582 56.5584 78.7041 54.8957 79.6681C50.0754 82.4625 47.6373 88.6311 44.0605 92.4244C40.4628 96.2387 35.384 99.0051 30.0049 98.3484C28.7474 102.428 29.5019 106.725 28.447 110.867C26.2534 114.06 24.9959 118.831 19.5609 116.519C15.4811 114.779 15.2715 105.048 15.4881 101.15C15.7885 95.7078 18.003 92.1729 19.1278 87.2828C20.5599 81.0444 20.3224 78.9835 23.1237 72.8149L23.1097 72.8219Z" fill="#50904A"/>
<path d="M103.029 36.67C102.742 36.1321 102.435 35.9225 101.841 35.7758C96.4062 34.4205 87.2895 41.0432 83.8035 45.0391C82.8325 46.1569 80.7018 49.7686 80.087 50.2646C79.4513 50.7885 76.9643 51.1518 75.7348 51.8154C74.7707 52.3394 66.4226 58.0539 66.0802 58.5289C65.4864 59.3532 65.4515 61.5887 64.5224 63.0628C60.5474 69.3501 49.6703 65.3192 44.6614 62.2175L29.46 73.6674C26.9939 74.848 25.1986 74.5057 23.1028 72.8291C28.6985 60.5129 44.0745 37.648 56.7121 32.4226C63.0064 29.8238 69.7408 28.8318 76.3146 27.2879C81.7636 26.0025 85.6618 24.3468 91.4322 24.1023C92.0958 24.0744 92.7525 24.4446 93.3254 24.4237C96.1686 24.3399 97.1397 22.8658 100.486 24.9406C104.391 27.3578 104.237 32.8277 103.022 36.677L103.029 36.67Z" fill="#66AA5F"/>
<path d="M101.129 40.4707C101.478 43.5724 98.1386 45.1513 97.1257 47.3169C96.3922 48.8748 96.1337 51.1801 95.5189 52.9406C92.5918 61.3516 88.526 76.3992 76.7687 67.4922C74.0162 72.9831 65.0882 81.499 58.9755 82.6237C57.9136 82.8193 56.1811 82.463 55.4546 82.9031C55.0215 83.1686 53.5754 85.5089 52.9816 86.1446C49.8239 89.5188 45.5136 94.1644 41.6225 96.4768C40.1205 97.371 35.3561 99.1803 34.5247 100.04C34.1265 100.452 32.946 104.21 32.2963 105.426C31.2414 107.403 29.6765 109.058 28.426 110.882C29.4809 106.732 28.7264 102.443 29.9839 98.363C35.363 99.0196 40.4419 96.2532 44.0396 92.4389C47.6164 88.6456 50.0545 82.477 54.8747 79.6826C56.5374 78.7186 57.3827 79.1657 58.9546 78.8164C69.14 76.525 71.8785 71.7676 75.5182 62.651C76.9294 59.1231 76.6848 55.8118 81.3165 54.7499C80.3734 57.6351 78.5082 60.6809 79.9682 63.7198C81.568 67.0451 85.3963 67.2267 88.0021 64.8585C93.7585 59.6191 93.5489 51.1033 97.3632 44.9137C98.2015 43.5515 100.144 42.0076 101.115 40.4847L101.129 40.4707Z" fill="#BCBEBC"/>
<path d="M225.96 65.5921C223.655 64.8795 219.247 65.1799 217.214 64.2508C216.732 64.0342 214.545 61.0861 213.581 60.2758C211.562 58.5712 208.768 57.9145 207.287 56.678C205.596 55.2669 200.322 48.267 198.673 47.785C197.402 47.4147 194.461 47.5265 192.77 47.2191C183.758 45.5635 171.896 42.7342 163.248 39.828C161.389 39.2063 159.328 37.8231 157.708 37.376C155.661 36.8101 153.293 37.0337 150.98 36.4888C145.573 35.2243 141.465 30.5787 136.617 29.922C126.781 28.5947 116.197 34.4419 109.505 41.2392C109.791 36.1115 114.346 27.7005 119.949 27.1416C124.797 26.6526 131.483 29.3422 135.974 27.945C139.949 26.7085 140.872 23.1806 143.366 20.491C147.362 16.1807 157.065 11.577 162.863 12.0311C171.666 12.7227 187.58 23.0618 194.873 28.3711C204.786 35.5876 226.205 52.4935 225.96 65.599V65.5921Z" fill="#66AA5F"/>
<path d="M225.96 65.5919C225.96 65.7177 225.96 65.8434 225.96 65.9691C225.96 66.018 225.597 66.3883 225.562 66.8843C225.269 70.7824 225.723 74.4989 220.441 75.0997C216.62 75.5329 211.318 75.3931 207.951 73.5069C202.648 70.5379 197.639 67.2895 191.163 68.2745C190.06 68.4422 188.753 69.3503 187.601 69.6647C179.986 71.7395 168.41 66.7097 164.861 59.5142C162.905 55.5392 164.1 55.2178 160.083 52.1091C155.353 48.4485 143.484 40.5823 137.742 40.1632C136.771 40.0933 125.426 41.9795 124.504 42.3428C120.354 43.9565 116.91 54.1909 110.259 47.3168C109.589 44.9066 109.351 43.8587 109.498 41.225C116.19 34.4278 126.774 28.5736 136.61 29.9079C141.458 30.5645 145.573 35.2102 150.973 36.4746C153.286 37.0125 155.654 36.789 157.701 37.3618C159.321 37.8089 161.382 39.1921 163.241 39.8139C171.889 42.72 183.751 45.5563 192.763 47.205C194.447 47.5124 197.388 47.4006 198.666 47.7708C200.315 48.2529 205.589 55.2528 207.28 56.6639C208.761 57.9004 211.555 58.5641 213.574 60.2617C214.538 61.072 216.732 64.0201 217.207 64.2366C219.24 65.1658 223.648 64.8654 225.953 65.5779L225.96 65.5919Z" fill="#50904A"/>
<path d="M225.96 65.969C226.086 67.8971 227.798 69.0288 227.791 71.1036C227.784 74.9319 223.823 79.7522 219.966 80.332C217.912 80.6464 211.101 79.2981 209.075 78.4668C206.106 77.2442 204.835 75.0926 202.411 73.3391C201.384 72.5986 196.99 70.0068 195.984 69.8392C194.6 69.6086 189.71 71.7533 187.894 72.2493C183.388 73.4788 177.876 74.5966 173.433 72.6265C171.966 71.9769 166.964 68.1276 165.825 66.9191C162.968 63.9011 161.068 57.5021 158.602 54.7356C157.261 53.2337 151.546 49.9643 149.548 49.3285C145.21 47.9523 143.163 48.4832 139.02 48.4763C136.051 48.4763 129.96 47.7288 127.605 48.106C122.778 48.8745 118.23 56.2236 112.544 51.7037C110.951 50.4393 110.783 49.1539 110.266 47.3166C116.917 54.1907 120.361 43.9494 124.511 42.3426C125.433 41.9863 136.778 40.0932 137.749 40.163C143.491 40.5822 155.353 48.4483 160.09 52.1089C164.1 55.2107 162.905 55.539 164.868 59.514C168.417 66.7095 179.993 71.7393 187.607 69.6645C188.76 69.3502 190.06 68.442 191.17 68.2743C197.653 67.2963 202.655 70.5378 207.957 73.5068C211.325 75.393 216.627 75.5327 220.448 75.0996C225.73 74.4988 225.276 70.7823 225.569 66.8841C225.604 66.3811 225.967 66.0179 225.967 65.969H225.96Z" fill="#BCBDBC"/>
<path d="M194.37 185.854C176.493 183.402 189.061 157.393 199.057 153.048C208.104 149.115 219.177 153.97 221.447 163.722C227.127 164.016 232.15 164.994 235.845 169.688C240.316 175.368 240.847 184.708 232.052 185.854C231.172 177.149 223.299 177.569 216.466 177.848C215.935 172.874 211.122 167.935 205.987 167.935C200.322 167.935 190.444 175.347 191.359 181.453C191.568 182.829 193.189 185.211 194.384 185.854H194.37Z" fill="#FEFEFE"/>
<path d="M194.37 185.854C193.182 185.212 191.555 182.83 191.345 181.453C190.43 175.355 200.308 167.943 205.974 167.936C211.115 167.936 215.921 172.875 216.452 177.849C223.285 177.569 231.165 177.15 232.038 185.854C227.679 186.42 222.202 185.044 217.766 185.17C213.33 185.296 208.509 186.462 204.08 186.63C201.614 186.728 196.396 186.958 194.356 185.847L194.37 185.854Z" fill="#C8DFEC"/>
<path d="M235.852 202.976C235.231 204.716 233.638 205.764 231.821 205.987C230.501 206.148 225.045 205.443 223.662 205.079C222.062 204.66 220.909 203.193 220.253 201.831C222.474 198.554 226.4 198.191 229.907 199.595C232.206 200.517 233.491 202.557 235.859 202.969L235.852 202.976Z" fill="#C8DFEC"/>
<path d="M235.852 202.977C233.484 202.565 232.206 200.525 229.9 199.603C226.393 198.198 222.467 198.562 220.246 201.838C218.276 197.765 221.496 194.342 225.751 194.601C226.973 194.678 230.927 195.481 232.122 195.858C235.377 196.878 237.026 199.686 235.845 202.977H235.852Z" fill="#FDFEFE"/>
</svg>
