<svg width="260" height="260" viewBox="0 0 260 260" fill="none" xmlns="http://www.w3.org/2000/svg">
<path d="M153.343 32.8026C154.577 27.7595 157.978 25.2918 162.454 22.9603C163.336 22.5012 164.492 22.5657 165.431 22.0277C166.436 21.4609 167.311 20.1482 168.71 19.4451C171.622 17.9817 173.365 18.3834 176.185 17.9315C180.604 17.2141 184.513 14.7105 189.435 16.8411C190.611 17.3504 192.268 18.943 192.706 19.0649C193.524 19.3016 195.963 18.6632 197.326 18.7206C199.794 18.8282 202.563 20.2127 204.507 21.7049C207.261 23.8211 206.228 23.857 209.729 25.4711C213.947 27.408 215.848 28.936 218.288 32.9318C218.668 33.5559 219.034 35.1485 219.364 35.378C219.579 35.5287 220.454 35.1054 221.035 35.2202C224.88 36.0093 228.697 39.7396 228.977 43.7354C229.055 44.8115 228.481 45.9808 228.826 47.0138C229.077 47.7599 232.893 49.0225 233.675 52.7169C234.278 55.5649 233.073 56.0671 233.037 57.6094C233.037 57.8677 234.113 62.2652 234.249 62.5952C234.321 62.7602 236.387 64.3097 236.975 64.8549C237.155 65.687 236.53 65.7086 236.014 66.0242C233.108 67.832 229.787 69.0874 226.423 67.7818C225.368 67.3729 221.257 64.0228 221.387 63.1691C221.516 62.3154 223.137 61.72 222.843 60.07C222.032 55.5434 214.672 62.0356 212.749 63.1045C207.455 66.0601 202.498 67.7531 196.329 66.4188C195.332 65.5938 194.442 64.5751 193.201 64.073C193.603 63.4273 194.105 62.8391 194.37 62.1217C198.631 60.7587 201.465 57.8892 202.577 53.5204C205.246 49.7829 205.777 46.4327 203.294 42.4441C202.835 41.7052 202.096 41.2677 201.616 40.6077C201.171 39.9979 201.042 38.721 200.64 38.4555C199.973 38.0108 198.868 38.4484 198.28 38.2762C197.792 38.1327 196.25 37.3795 195.547 37.1069C194.865 35.2274 192.218 32.939 190.224 32.817C189.385 32.7668 188.681 33.2115 187.964 33.1613C186.73 33.0681 184.341 32.9461 183.315 32.7237C181.371 32.2933 181.249 29.6319 179.327 29.639C178.193 29.639 176.916 31.0809 175.726 31.5544C171.077 33.3837 169.377 30.672 166.127 31.332C163.803 31.8055 161.715 35.5215 160.984 35.5358C160.689 35.5358 160.431 35.1485 160.367 35.1556C160.094 29.8901 156.83 29.3951 153.329 32.8098L153.343 32.8026ZM214.199 49.4959C216.824 46.8632 212.642 40.3853 208.345 41.4972C201.185 43.3552 210.432 53.2622 214.199 49.4959Z" fill="#FEFDFD"/>
<path d="M172.885 61.3326C168.2 59.7831 158.875 55.2493 158.408 49.8188C157.827 43.0539 160.202 36.9061 166.809 34.3522C169.958 33.1327 169.621 33.5774 172.325 33.972C175.525 34.4311 178.316 31.4612 179.291 31.6047C179.442 31.6262 180.561 33.434 181.285 33.9792C182.813 35.1198 186.436 35.9519 188.316 35.9376C189.471 35.9304 190.848 35.0552 191.824 35.1557C192.039 35.1772 194.449 36.6837 195.54 37.1141C196.243 37.3867 197.785 38.1471 198.273 38.2834C200.174 41.0596 201.996 44.3596 202.771 47.6595C203.216 49.539 203.051 51.6624 202.57 53.5276C201.458 57.8964 198.624 60.7659 194.363 62.1289C188.337 64.0515 178.868 63.3341 172.871 61.3469L172.885 61.3326ZM162.383 51.2248C160.747 53.8074 167.203 55.0269 169.09 54.6037C170.353 54.3167 171.902 52.5376 170.281 52.0139C168.911 51.5692 167.447 52.5017 166.084 52.3367C164.944 52.2004 163.193 49.9479 162.39 51.2248H162.383ZM186.422 54.3382C185.604 54.6108 185.554 56.0456 185.955 56.6553C186.637 57.6883 195.238 59.3957 195.877 57.1431C196.659 54.3813 192.756 56.0241 191.092 55.8232C189.428 55.6223 187.993 53.8145 186.422 54.331V54.3382Z" fill="#534C47"/>
<path d="M196.329 66.4114C202.498 67.7529 207.455 66.0527 212.749 63.0971C214.665 62.0282 222.032 55.536 222.843 60.0626C223.137 61.7126 221.516 62.3295 221.387 63.1617C221.258 63.9938 225.368 67.3655 226.423 67.7744C229.78 69.08 233.108 67.8246 236.014 66.0168C236.523 65.694 237.155 65.6797 236.975 64.8475C237.025 64.8905 237.484 64.7542 237.771 65.1129C240.777 68.8791 236.868 73.0184 232.678 71.103C232.635 76.3542 229.945 78.327 226.222 81.261C223.905 77.4589 221.143 73.8649 218.23 70.4932C217.19 69.2952 215.913 67.4659 215.095 66.5979C213.998 65.4357 212.068 64.5462 210.504 65.156C208.33 66.0025 204.033 68.9437 201.802 70.3211C199.722 69.2737 198.058 67.8461 196.329 66.4114Z" fill="#ECD8E6"/>
<path d="M195.547 37.1008C194.449 36.6703 192.039 35.1639 191.831 35.1424C190.855 35.0419 189.471 35.9171 188.323 35.9243C186.443 35.9386 182.82 35.1065 181.292 33.9658C180.561 33.4206 179.449 31.6129 179.298 31.5913C178.323 31.4479 175.532 34.4178 172.332 33.9587C169.621 33.5713 169.965 33.1265 166.816 34.3389C160.209 36.8927 157.834 43.0406 158.415 49.8055C158.882 55.236 168.207 59.7698 172.892 61.3193C172.756 61.4413 172.598 61.556 172.505 61.7067L160.388 59.3609C160.367 58.8013 160.984 58.0409 160.74 57.2805C160.553 56.6994 159.599 56.5273 159.212 56.0395C156.809 53.0193 154.376 50.4511 154.95 46.2975C155.087 45.3362 156.091 43.6863 156.005 43.2056C155.933 42.7967 154.448 40.2285 154.118 39.2457C153.745 38.141 153.602 37.0362 153.351 35.9099C154.384 36.8856 156.091 36.8784 157.432 36.6632C158.566 36.4767 160.08 35.1423 160.388 35.128C160.453 35.128 160.711 35.5154 161.005 35.5082C161.737 35.4939 163.824 31.7779 166.149 31.3044C169.398 30.6444 171.099 33.3561 175.747 31.5268C176.938 31.0605 178.215 29.6186 179.348 29.6114C181.271 29.597 181.393 32.2657 183.337 32.6961C184.356 32.9185 186.752 33.0476 187.986 33.1337C188.703 33.1839 189.406 32.7391 190.245 32.7893C192.24 32.9113 194.887 35.1998 195.568 37.0793L195.547 37.1008Z" fill="#E8D4E2"/>
<path d="M196.329 66.4112C198.058 67.846 199.722 69.2735 201.802 70.3209C199.758 71.5835 198.675 73.5706 195.769 73.4558C193.337 73.3626 191.716 72.9752 191.35 70.4214C190.948 67.6092 191.809 66.2965 193.208 64.0654C194.442 64.5676 195.339 65.5862 196.336 66.4112H196.329Z" fill="#534C47"/>
<path d="M172.49 61.7277C171.687 63.0333 171.708 63.7578 170.274 64.7909C165.618 68.1266 160.567 64.7191 160.374 59.3818L172.49 61.7277Z" fill="#554E49"/>
<path d="M160.374 35.1491C160.065 35.1634 158.552 36.4978 157.418 36.6843C156.084 36.8995 154.369 36.9066 153.336 35.931C153.272 35.644 152.719 35.2854 152.719 34.5752C152.719 33.9152 153.2 33.3556 153.336 32.8104C156.837 29.3957 160.101 29.8907 160.374 35.1563V35.1491Z" fill="#554E49"/>
<path d="M214.198 49.4958C210.432 53.262 201.185 43.3479 208.345 41.4971C212.642 40.3852 216.824 46.8702 214.198 49.4958Z" fill="#554E49"/>
<path d="M202.584 53.5152C203.058 51.65 203.223 49.5266 202.785 47.6471C202.01 44.3471 200.195 41.0472 198.287 38.271C198.875 38.4432 199.98 37.9984 200.647 38.4503C201.049 38.7158 201.171 39.9927 201.623 40.6024C202.111 41.2624 202.842 41.7 203.302 42.4389C205.784 46.4275 205.246 49.7705 202.584 53.5152Z" fill="#E8D4E2"/>
<path d="M186.422 54.3382C187.993 53.8146 189.392 55.6151 191.092 55.8303C192.792 56.0456 196.659 54.3884 195.877 57.1503C195.238 59.4029 186.644 57.6884 185.955 56.6625C185.546 56.0528 185.604 54.6108 186.422 54.3454V54.3382Z" fill="#BCB3AC"/>
<path d="M162.382 51.2263C163.186 49.9494 164.936 52.202 166.077 52.3383C167.447 52.5033 168.911 51.5707 170.274 52.0155C171.895 52.5392 170.345 54.3182 169.083 54.6052C167.203 55.0284 160.747 53.8089 162.375 51.2263H162.382Z" fill="#BCB3AC"/>
<path d="M60.6745 181.702C63.6516 180.734 66.5498 179.478 69.6704 178.962C68.3146 174.191 75.3519 171.429 76.7436 176.566C84.7065 175.253 92.5475 172.706 100.704 171.975C100.582 165.403 108.66 164.909 108.746 171.544C120.296 170.353 132.161 170.31 143.711 171.544C143.84 165.174 152.398 165.382 151.781 171.874C159.945 172.778 167.901 175.188 175.914 176.566C177.305 171.429 184.35 174.191 182.987 178.962L200.441 184.421C201.682 184.801 201.553 183.252 202.263 182.599C203.942 181.042 207.184 181.53 208.102 183.754C208.31 184.256 208.762 186.975 208.791 187.563C208.92 190.619 207.005 195.569 203.31 194.837C201.452 194.471 201.259 192.979 200.197 192.255C198.64 191.193 185.369 186.875 183.102 186.48C182.671 186.408 182.262 186.344 181.825 186.387C182.133 187.183 181.523 187.872 181.43 188.345C181.014 187.585 180.634 189.357 180.01 189.852C177.628 191.731 175.247 190.038 174.4 187.563C174.572 186.501 174.436 185.174 174.795 184.048C166.609 182.52 158.604 179.651 150.21 179.399C149.658 180.841 149.909 182.341 149.751 183.811C149.715 184.127 149.399 184.349 149.392 184.435C144.471 187.484 142.484 183.137 143.137 178.574C142.821 178.474 142.785 178.962 142.749 178.962C141.035 179.256 137.613 178.18 135.913 178.18H116.766C115.489 178.18 112.512 178.704 111.099 178.962L112.268 178.187H109.148C109.262 179.471 109.779 180.777 109.535 182.09C108.954 185.239 104.477 184.844 102.892 182.477C102.756 181.48 102.835 180.397 102.462 179.392C94.0755 179.643 86.0696 182.513 77.8771 184.041C78.1139 185.605 78.4009 187.169 78.6591 188.725C76.0407 191.458 74.0463 192.075 71.2342 189.113C71.1051 188.438 70.9903 187.578 70.8396 186.975C70.6962 186.415 71.1768 186.379 70.2585 186.365C68.2786 186.336 63.6013 188.395 61.4635 189.113C57.8192 187.499 57.8409 184.156 60.6817 181.688L60.6745 181.702Z" fill="#FED988"/>
<path d="M141.573 191.473C143.955 191.617 146.681 191.638 148.998 191.861C156.501 192.6 164.228 194.156 171.667 195.771C174.371 196.359 177.205 196.66 179.874 197.334C184.393 198.482 189.408 200.498 193.941 202.026C194.544 204.953 194.178 208.26 190.426 208.282C187.141 208.303 181.925 204.939 178.31 205.154C178.202 204.085 177.011 204.071 175.964 203.784C174.264 203.324 172.757 203.468 171.272 203.195C163.216 201.739 156.817 200.541 148.603 199.68C145.82 199.386 143.596 199.056 140.784 198.898C131.831 198.396 120.791 198.253 111.866 198.898C109.241 199.092 106.665 199.422 104.047 199.68C95.3237 200.548 89.7999 201.675 81.3779 203.59C79.0321 204.121 76.6792 204.566 74.3406 205.154C72.1669 205.706 69.9143 206.065 67.6976 206.718C63.8812 205.964 62.8769 202.284 65.7464 199.68C67.9272 199.006 70.8038 197.851 72.7837 197.334C75.065 196.746 77.5113 196.273 79.8212 195.771C87.4469 194.113 95.9622 192.636 103.66 191.861C105.97 191.631 108.717 191.617 111.085 191.473C121.192 190.857 131.458 190.857 141.566 191.473H141.573Z" fill="#FED988"/>
<path d="M60.6745 181.701C57.8337 184.169 57.8121 187.512 61.4563 189.126C58.5007 190.123 55.5094 191.013 52.6328 192.232L55.208 203.194C58.7088 201.981 62.2096 200.769 65.7534 199.671C62.8839 202.275 63.8956 205.948 67.7048 206.709C64.161 207.756 60.6315 208.954 57.3172 210.604C57.0518 211.049 61.2698 218.488 56.0832 219.543C51.4418 220.482 51.3127 214.083 50.2654 213.768C49.1176 213.416 45.8966 216.465 43.2638 213.768C39.8562 210.267 45.0428 207.039 48.1921 206.486L45.6312 194.987C45.3155 194.427 43.2566 195.36 42.697 195.59C40.4588 196.508 36.3412 199.858 34.5334 196.314C31.8289 191.013 40.1002 188.473 43.8593 187.569C43.8234 188.279 45.832 192.369 46.327 192.921C47.7474 194.506 50.7532 194.162 51.8364 192.225C53.1564 189.872 51.9441 188.014 51.3773 185.697C51.241 185.13 51.6929 184.52 51.6786 184.442C54.7274 183.731 57.6974 182.67 60.6673 181.708L60.6745 181.701Z" fill="#E6A30C"/>
<path d="M208.791 187.563C212.55 188.532 220.398 190.734 218.26 196.057C216.546 200.332 210.706 195.562 207.901 194.88C207.514 194.787 207.45 194.364 207.019 194.974L204.458 206.473C207.521 207.126 212.572 209.888 209.58 213.561C207.127 216.581 203.504 213.424 202.385 213.762C201.338 214.077 201.208 220.483 196.567 219.536C191.373 218.482 195.591 211.043 195.333 210.598L190.419 208.267C194.171 208.245 194.537 204.945 193.934 202.011C194.494 202.198 197.263 203.324 197.449 203.188L200.19 192.24C201.251 192.965 201.445 194.457 203.303 194.823C207.005 195.555 208.913 190.605 208.784 187.549L208.791 187.563Z" fill="#E6A30C"/>
<path d="M43.8663 187.563C43.895 186.96 44.3398 184.263 44.555 183.754C45.4517 181.58 48.1705 181.193 50.0141 182.362C50.3369 182.563 51.6641 184.306 51.6857 184.435C51.7 184.514 51.2481 185.117 51.3844 185.691C51.9511 188.015 53.1634 189.866 51.8435 192.219C50.7602 194.156 47.7545 194.493 46.3341 192.914C45.8391 192.362 43.8376 188.273 43.8663 187.563Z" fill="#FED988"/>
<path d="M171.272 203.193C172.757 203.459 174.264 203.315 175.964 203.782C177.011 204.061 178.202 204.076 178.31 205.152C178.568 207.684 176.839 211.931 176.358 214.528C174.558 213.294 171.444 213.007 169.321 212.964L171.272 203.193Z" fill="#E7A40E"/>
<path d="M81.385 203.588L82.167 208.279C81.5931 208.588 79.6777 211.3 79.5199 212.082C79.3047 213.158 79.649 215.59 80.2157 216.486C79.1827 217.247 78.3577 218.294 77.4825 219.219L74.3548 205.152C76.6863 204.564 79.0463 204.119 81.3922 203.588H81.385Z" fill="#E7A40E"/>
<path d="M110.31 182.097C110.604 185.21 111.192 188.323 111.092 191.473C108.717 191.616 105.977 191.631 103.667 191.86C103.408 188.747 103.301 185.576 102.885 182.484C104.47 184.844 108.947 185.239 109.528 182.097H110.31Z" fill="#E7A40E"/>
<path d="M149.385 184.436C149.134 186.817 149.356 189.443 148.998 191.861C146.681 191.631 143.947 191.617 141.573 191.473L142.742 178.969C142.742 178.969 142.814 178.482 143.13 178.582C142.477 183.144 144.464 187.499 149.385 184.443V184.436Z" fill="#E7A40E"/>
<path d="M174.4 187.563C175.254 190.038 177.628 191.739 180.01 189.852C180.634 189.357 181.014 187.578 181.43 188.345C180.885 191.208 180.914 194.536 179.866 197.334C177.198 196.66 174.364 196.358 171.66 195.77C173.044 195.899 172.635 195.878 172.893 194.874C173.417 192.807 174.063 189.658 174.393 187.563H174.4Z" fill="#E7A40E"/>
<path d="M79.8212 195.77C77.5112 196.272 75.0649 196.745 72.7837 197.333C71.9156 194.693 71.7363 191.838 71.2198 189.127C74.0319 192.082 76.0263 191.472 78.6447 188.739C79.0321 191.078 79.6203 193.402 79.814 195.777L79.8212 195.77Z" fill="#E7A40E"/>
<path d="M109.528 182.097C109.772 180.777 109.255 179.471 109.14 178.194H112.261L111.092 178.976C110.74 179.041 110.295 178.926 109.915 178.976C110.331 180.038 110.209 181.049 110.31 182.097H109.528Z" fill="#F2CD58"/>
<path d="M148.603 199.679L147.434 212.965C145.325 212.111 142.118 212.126 140.009 212.965L140.791 198.897C143.603 199.055 145.827 199.385 148.61 199.679H148.603Z" fill="#E6A30C"/>
<path d="M111.873 198.897C111.873 202.656 112.046 206.516 112.655 210.232C112.455 210.232 109.348 211.545 108.932 211.781C107.663 212.499 106.386 213.919 105.231 214.924L104.061 199.679C106.673 199.421 109.255 199.091 111.881 198.897H111.873Z" fill="#E6A30C"/>
<path d="M77.0879 220.001C77.1381 220.037 77.1238 220.719 77.7121 221.12C79.9718 222.656 81.6433 223.667 84.1254 224.693C85.718 225.353 86.0048 226.078 88.1857 225.841C89.2904 225.719 90.1728 224.944 91.0552 224.779C93.6019 224.306 97.0955 224.779 98.975 222.347C100.905 223.186 101.715 225.389 103.538 226.58C105.116 227.613 107.239 228.258 109.14 228.208C108.064 230.597 109.485 233.072 112.067 233.301C113.789 233.459 114.356 232.677 115.259 232.591C116.658 232.455 117.283 234.385 120.08 233.093C122.692 231.888 121.888 230.877 122.426 228.99C126.221 227.907 127.412 231.099 130.532 231.63C135.016 232.398 141.609 228.696 144.091 225.052C144.772 224.054 145.339 221.486 146.508 221.264C146.867 221.199 153.366 222.369 153.696 222.534C154.686 223.036 154.435 224.707 154.837 225.69C155.483 227.268 157.549 227.957 159.17 227.806C160.928 230.719 163.137 229.628 165.526 230.245C167.413 230.733 168.044 232.828 171.287 232.893C170.289 234.019 168.675 233.839 167.384 234.27C149.909 240.059 138 244.894 118.911 240.913C105.984 238.215 94.1399 236.307 81.3993 232.304C78.7809 231.479 74.9072 230.482 72.5326 229.449C67.0017 227.039 69.3115 219.693 74.5555 219.6C74.8138 219.6 76.9946 219.922 77.1022 219.994L77.0879 220.001Z" fill="#4FB957"/>
<path d="M175.964 230.555C177.062 228.776 176.696 227.305 177.234 225.763C177.449 225.132 178.13 224.787 178.396 224.192C179.393 221.946 179.723 221.351 179.092 218.833C185.893 222.377 182.011 229.091 175.964 230.555Z" fill="#4FB957"/>
<path d="M84.1255 224.692C81.6505 223.666 79.9719 222.655 77.7122 221.12C77.1239 220.718 77.1453 220.036 77.088 220.001C77.2386 219.778 77.3175 219.391 77.4754 219.219C78.3506 218.293 79.1756 217.246 80.2086 216.485C80.5243 216.98 82.4684 218.135 82.7625 218.838C83.114 219.692 81.9159 223.25 84.1183 224.692H84.1255Z" fill="#80DB87"/>
<path d="M112.648 210.231C113.064 210.231 115.998 211.272 116.536 211.616C117.577 212.283 119.141 214.034 119.298 215.31C121.214 214.579 122.878 213.144 125.016 212.993C128.588 212.742 132.878 215.755 133.753 219.22C135.518 216.896 137.111 214.112 140.002 212.965C142.111 212.125 145.318 212.111 147.427 212.965C148.259 213.302 150.024 215.145 150.404 215.217C151.774 215.49 156.2 213.56 158.374 214.916C157.147 218.381 159.292 219.464 159.156 221.336C159.106 221.996 158.51 222.599 158.395 223.338C158.152 224.959 158.309 226.408 159.156 227.814C157.535 227.965 155.469 227.276 154.823 225.698C154.421 224.708 154.672 223.037 153.682 222.542C153.359 222.377 146.853 221.2 146.494 221.272C145.325 221.494 144.758 224.062 144.077 225.06C141.595 228.704 134.995 232.398 130.518 231.638C127.398 231.107 126.207 227.908 122.412 228.998C123.079 226.638 124.499 225.095 122.627 222.728C121.171 220.884 119.097 221.243 117.239 220.691C116.214 220.382 115.482 219.407 113.947 219.371C111.515 219.306 109.485 221.279 109.478 223.725C109.478 224.808 110.324 226.301 110.217 226.803C110.13 227.226 109.363 227.685 109.119 228.223C107.218 228.273 105.094 227.628 103.516 226.595C101.694 225.404 100.883 223.202 98.9536 222.362C99.4414 221.731 100.051 219.83 100.051 219.041C100.051 217.699 99.0612 216.738 98.9536 215.877C98.8245 214.859 99.4773 213.567 99.341 212.197C101.629 212.757 102.949 214.213 104.226 216.1C104.685 215.863 104.915 215.181 105.202 214.937C106.35 213.933 107.627 212.52 108.904 211.795C109.32 211.559 112.426 210.246 112.627 210.246L112.648 210.231Z" fill="#80DB87"/>
<path d="M122.419 228.991C121.881 230.878 122.685 231.89 120.073 233.095C117.276 234.386 116.644 232.463 115.252 232.593C114.348 232.679 113.782 233.461 112.06 233.303C109.47 233.073 108.057 230.598 109.133 228.209C109.377 227.671 110.137 227.212 110.231 226.789C110.331 226.287 109.492 224.795 109.492 223.711C109.492 221.265 111.529 219.292 113.961 219.357C115.496 219.4 116.228 220.369 117.254 220.677C119.112 221.237 121.185 220.878 122.641 222.714C124.514 225.082 123.1 226.624 122.426 228.984L122.419 228.991ZM119.636 226.789C119.636 224.902 118.108 223.374 116.221 223.374C114.334 223.374 112.806 224.902 112.806 226.789C112.806 228.676 114.334 230.204 116.221 230.204C118.108 230.204 119.636 228.676 119.636 226.789Z" fill="#FBFCF9"/>
<path d="M116.214 230.203C118.1 230.203 119.628 228.675 119.628 226.789C119.628 224.903 118.1 223.374 116.214 223.374C114.328 223.374 112.799 224.903 112.799 226.789C112.799 228.675 114.328 230.203 116.214 230.203Z" fill="#F2CD58"/>
<path d="M169.321 212.964C171.437 213.007 174.558 213.294 176.358 214.528C177.434 215.267 178.769 217.512 179.092 218.825C179.716 221.343 179.393 221.939 178.396 224.184C178.13 224.779 177.449 225.124 177.234 225.755C176.703 227.297 177.069 228.768 175.964 230.547C174.859 232.326 173.288 232.929 171.272 232.893C168.03 232.828 167.398 230.733 165.512 230.246C163.123 229.629 160.913 230.726 159.156 227.807C158.309 226.408 158.151 224.951 158.395 223.33C158.51 222.591 159.106 221.989 159.156 221.329C159.292 219.456 157.147 218.373 158.374 214.908C159.342 212.168 162.384 210.912 165.124 211.479C166.961 211.859 166.896 212.9 169.314 212.95L169.321 212.964ZM166.466 218.129C162.499 219.048 162.255 225.733 167.556 225.898C174.307 226.106 172.908 216.644 166.466 218.129Z" fill="#FDFDFB"/>
<path d="M166.466 218.129C172.901 216.644 174.3 226.106 167.556 225.898C162.262 225.733 162.499 219.047 166.466 218.129Z" fill="#F2CD58"/>
<path d="M99.3626 212.182C99.4917 213.552 98.8461 214.843 98.9752 215.862C99.0828 216.723 100.073 217.684 100.073 219.026C100.073 219.815 99.463 221.716 98.9752 222.347C97.0957 224.779 93.602 224.313 91.0553 224.779C90.1801 224.944 89.2978 225.719 88.1858 225.841C86.005 226.078 85.7181 225.353 84.1255 224.693C81.9232 223.251 83.1213 219.693 82.7698 218.839C82.4757 218.129 80.5315 216.981 80.2159 216.486C79.6563 215.597 79.3048 213.158 79.52 212.082C79.6779 211.3 81.5932 208.588 82.1671 208.28C84.4771 207.038 86.5645 208.796 87.8128 208.674C88.4584 208.61 89.513 207.627 90.3882 207.311C94.176 205.941 98.9609 207.964 99.3698 212.189L99.3626 212.182ZM90.2735 212.268C83.2289 212.921 87.1672 223.746 92.7412 218.653C95.4888 216.142 93.8173 211.938 90.2735 212.268Z" fill="#FDFDFB"/>
<path d="M90.2734 212.268C93.8172 211.938 95.4886 216.149 92.7411 218.653C87.1671 223.739 83.2287 212.914 90.2734 212.268Z" fill="#F2CD58"/>
</svg>
