<svg width="260" height="260" viewBox="0 0 260 260" fill="none" xmlns="http://www.w3.org/2000/svg">
<path d="M237.029 137.518C236.116 137.518 233.984 140.48 232.306 138.826C230.849 137.393 233.494 129.068 234.898 127.737C237.005 125.736 238.886 128.382 238.952 130.549C239.03 133.171 237.202 135.422 237.029 137.512V137.518Z" fill="#FECC0D"/>
<path d="M22.6471 136.54C21.3632 134.277 19.6793 126.359 24.0922 127.105C25.9792 127.428 27.8781 134.056 28.0871 135.811C28.6902 140.768 24.3967 139.627 22.6411 136.54H22.6471Z" fill="#FECC0D"/>
<path d="M14.4362 117.736C17.0815 117.497 19.727 124.024 17.5533 124.782C14.0541 125.994 9.00213 118.22 14.4362 117.736Z" fill="#FECC0D"/>
<path d="M245.067 117.728C246.207 117.549 247.838 118.731 248.041 119.866C248.411 121.95 244.577 125.521 242.451 124.78C240.326 124.04 242.846 118.08 245.067 117.728Z" fill="#FECC0D"/>
<path d="M16.4666 135.243C16.6576 134.389 16.9323 133.141 18.1804 133.332C18.7536 133.422 22.5336 136.049 22.647 136.545C22.7605 137.04 22.6231 137.906 22.647 138.497C19.9121 139.68 18.1207 136.981 16.4666 135.243Z" fill="#FDCB10"/>
<path d="M243.532 134.592C242.995 136.264 240.057 139.316 238.23 138.772C237.406 138.527 237.507 137.679 237.352 137.524C237.059 136.043 240.445 133.792 241.574 133.422C242.451 133.135 243.234 133.81 243.532 134.592Z" fill="#FDCB0F"/>
<path d="M242.135 126.518C246.864 125.073 248.071 130.949 243.126 129.958C241.072 129.546 240.266 127.091 242.135 126.518Z" fill="#FECC0D"/>
<path d="M15.0693 126.525C19.3508 125.265 20.4735 129.612 16.2636 130.018C13.0151 130.335 13.0748 127.11 15.0693 126.525Z" fill="#FECC0D"/>
<path d="M237.029 137.518C237.137 137.518 237.328 137.494 237.352 137.518C237.507 137.673 237.406 138.521 238.23 138.766C240.051 139.309 242.995 136.258 243.532 134.586C245.258 139.142 236.534 143.477 237.023 137.512L237.029 137.518Z" fill="#C48970"/>
<path d="M22.647 138.492C22.647 138.575 23.1785 138.796 22.8321 139.453C21.4527 142.045 15.5947 139.077 16.4665 135.237C18.1206 136.975 19.912 139.674 22.647 138.492Z" fill="#C48970"/>
<path d="M212.63 104.986C212.457 103.129 211.513 101.475 212.283 99.5936C212.731 98.5068 213.89 98.0171 214.911 98.6381C215.162 98.7934 217.18 102.758 217.992 103.684C219.736 105.673 223.761 108.688 226.125 109.865C227.941 110.772 234.969 112.958 235.745 114.23C237.71 117.448 231.362 117.496 229.547 117.018C229.32 117.83 230.287 117.795 230.849 117.992C231.727 119.903 236.54 119.467 236.719 121.425C237.023 124.644 230.329 121.999 228.902 121.407C221.187 118.189 216.523 112.11 212.63 104.986ZM220.017 108.628C217.95 109.249 219.742 111.154 220.859 111.883C222.178 112.743 228.424 115.705 229.78 115.979C231.279 116.284 232.598 115.699 232.091 114.003C231.78 112.964 228 112.008 226.824 111.453C225.17 110.665 221.587 108.163 220.017 108.634V108.628Z" fill="#FDCB10"/>
<path d="M212.63 104.986C216.523 112.11 221.187 118.189 228.902 121.408C230.329 122.005 237.023 124.65 236.719 121.426C236.534 119.467 231.727 119.903 230.849 117.992C233.315 118.87 238.056 118.775 238.319 122.423C238.648 127.057 231.84 126.705 228.824 125.713C221.187 123.199 213 114.308 212.295 106.097C212.224 105.231 212.642 105.04 212.636 104.98L212.63 104.986Z" fill="#C38771"/>
<path d="M220.017 108.628C221.587 108.156 225.17 110.664 226.824 111.447C228 112.008 231.78 112.957 232.091 113.996C232.598 115.692 231.279 116.277 229.78 115.973C228.424 115.698 222.178 112.736 220.859 111.876C219.742 111.148 217.95 109.237 220.017 108.622V108.628Z" fill="#FEF3C7"/>
<path d="M203.846 78.9625C202.986 79.1715 201.362 79.5358 200.968 78.4191C200.627 77.4398 201.762 72.0177 201.236 71.4803L197.988 72.1311C197.952 72.0296 197.074 71.1041 196.686 70.5069C197.558 66.7031 201.033 63.9562 200.585 59.7762C199.6 59.5971 200.084 60.0688 199.905 60.5406C199.385 61.9021 198.997 63.3889 197.976 64.4817C197.522 64.9654 197.17 65.6999 196.525 64.9773C195.611 63.9502 194.065 56.6173 194.053 55.0587C194.053 54.4019 194.291 53.0463 194.405 52.2939C194.596 50.9981 194.769 49.8994 195.378 48.717C195.82 47.8691 197.211 47.0092 197.02 45.6477C196.746 43.6891 189.986 39.9091 187.968 39.6822C182.898 39.1209 181.435 43.9458 186.188 44.734C188.577 45.1282 188.708 44.8595 191.15 45.785C192.554 47.0988 192.775 48.5857 193.103 50.3413C192.942 53.8465 190.941 56.3785 187.376 56.8144C179.482 57.7698 170.579 53.2972 167.079 46.1135C166.757 43.7607 166.172 43.2293 166.984 40.6496C170.292 30.11 189.377 32.8509 196.907 36.6188C203.464 39.9032 208.378 50.2935 209.047 57.3399C209.578 62.9949 206.832 74.1316 203.846 78.9685V78.9625ZM172.525 39.0134C171.361 39.3598 170.608 41.8917 170.656 42.9964C170.841 47.5526 175.553 52.4193 179.685 53.8405C182.737 54.8855 188.051 55.4111 190.01 52.2701C191.969 49.1291 187.986 45.2477 185.221 46.5076C184.791 46.7047 184.468 47.254 184.092 47.3615C182.904 47.6959 177.953 44.4654 177.016 43.504C175.445 41.8976 175.165 38.2371 172.525 39.0194V39.0134ZM199.2 41.2706C195.993 42.0887 200.723 46.3225 201.511 47.6243C203.153 50.3294 204.18 55.4708 204.198 58.6297C204.204 60.242 202.729 66.3687 204.168 67.0972C205.315 67.6765 206.049 66.7509 206.366 65.7059C207.9 60.6122 206.873 50.9265 204.114 46.3285C203.47 45.2536 200.412 40.9661 199.2 41.2766V41.2706ZM200.263 58.7909L199.451 51.3146C198.185 53.0523 198.185 55.4409 198.883 57.4056C199.075 57.943 199.528 58.9223 200.257 58.7909H200.263Z" fill="#FDCB0F"/>
<path d="M193.109 50.3352C193.306 51.3862 193.652 52.3536 193.437 53.5897L194.411 52.2879C194.297 53.0462 194.053 54.3958 194.059 55.0527C194.07 56.6052 195.617 63.9442 196.531 64.9713C197.176 65.6998 197.528 64.9653 197.982 64.4757C199.009 63.3829 199.397 61.896 199.911 60.5345C200.09 60.0628 199.6 59.591 200.591 59.7701C201.033 63.9502 197.558 66.703 196.692 70.5008C196.549 70.2799 196.005 70.0889 195.653 69.432C193.766 65.9029 193.073 60.4808 193.115 56.5157C192.572 56.4799 192.816 57.2263 192.482 57.6682C189.526 61.5675 181.889 60.6599 177.834 58.952C171.068 56.0977 168.095 53.4344 167.091 46.1074C170.591 53.2911 179.494 57.7637 187.388 56.8083C190.953 56.3784 192.954 53.8464 193.115 50.3352H193.109Z" fill="#C38870"/>
<path d="M197.988 72.1304L201.236 71.4795C201.756 72.0169 200.621 77.439 200.968 78.4183C201.356 79.535 202.986 79.1708 203.846 78.9618C202.932 80.4427 202.837 81.6787 200.442 81.2368C197.821 80.7532 198.895 76.615 198.657 74.8773C198.621 74.6205 198.047 72.2856 197.988 72.1304Z" fill="#C48970"/>
<path d="M172.525 39.0125C175.159 38.2303 175.445 41.8908 177.016 43.4971C177.953 44.4585 182.904 47.689 184.092 47.3546C184.462 47.2531 184.791 46.6978 185.221 46.5008C187.986 45.2408 192.016 49.0506 190.01 52.2632C188.003 55.4759 182.737 54.8787 179.685 53.8337C175.553 52.4125 170.841 47.5458 170.656 42.9895C170.614 41.8848 171.361 39.3529 172.525 39.0065V39.0125Z" fill="#FEF4CC"/>
<path d="M199.2 41.269C200.412 40.9585 203.47 45.2459 204.115 46.3208C206.879 50.9188 207.906 60.6046 206.366 65.6982C206.049 66.7433 205.315 67.6688 204.168 67.0896C202.729 66.3611 204.204 60.2343 204.198 58.622C204.18 55.4631 203.153 50.3277 201.511 47.6166C200.717 46.3149 195.993 42.0811 199.2 41.263V41.269Z" fill="#FEF3C9"/>
<path d="M195.39 48.7109C194.064 47.8808 193.073 46.1133 191.592 45.546C191.413 45.4804 191.186 45.7908 191.162 45.7848C188.72 44.8533 188.583 45.128 186.2 44.7339C181.453 43.9456 182.91 39.1207 187.98 39.682C189.998 39.903 196.752 43.6829 197.032 45.6475C197.223 47.009 195.832 47.8749 195.39 48.7169V48.7109Z" fill="#C38870"/>
<path d="M200.263 58.7907C199.534 58.9221 199.081 57.9428 198.889 57.4054C198.191 55.4408 198.191 53.0521 199.457 51.3145L200.269 58.7907H200.263Z" fill="#C68C6C"/>
<path d="M210.026 72.1302C208.796 69.8969 207.214 64.5943 211.651 66.2723C211.238 62.4983 213.406 55.5833 217.329 54.2218C223.384 52.1199 217.043 63.5791 217.509 66.0811C218.631 68.3563 220.59 70.2254 221.868 72.4766C223.486 75.325 224.149 77.2956 224.334 80.5858C224.418 82.1325 224.382 83.906 224.334 85.4646C223.665 87.1187 221.068 92.9348 218.906 92.057C216.744 91.1792 219.127 87.1186 218.482 85.1361L215.669 88.9877C214.362 89.9073 212.922 90.7314 211.328 90.0148C211.143 89.4833 210.791 89.1012 211.006 88.3906C211.334 88.1517 214.457 82.019 214.744 81.2308C215.801 78.2928 215.407 75.5101 214.696 72.5064C214.332 70.9479 213.794 68.5116 211.812 68.5235C210.02 68.5414 209.907 70.7748 210.032 72.1243L210.026 72.1302ZM220.19 87.0111C220.763 87.668 221.993 87.5486 222.531 86.7484C222.901 86.205 223.277 84.0374 223.319 83.3089C223.516 80.1082 222.477 76.8298 220.93 74.071C220.184 72.7393 219.73 71.139 217.998 71.4674C215.854 71.8735 217.855 74.3039 217.861 75.54C217.861 77.1583 216.231 81.4099 217.264 82.4549C218.297 83.4999 220.1 82.4251 219.79 80.9083C221.539 81.8996 219.109 85.7691 220.19 87.0052V87.0111Z" fill="#FDCB10"/>
<path d="M234.097 109.212C233.202 107.672 234.115 105.659 234.067 104.202C233.996 101.915 233.249 99.467 233.124 97.1739C232.67 96.6425 231.225 99.2042 230.974 99.4132L227.594 102.375C226.645 102.471 226.084 103.062 225.17 102.035C223.862 100.572 226.107 99.4072 226.89 98.2547C228.819 95.4063 230.12 91.507 229.404 88.0435C229.057 86.3596 226.52 83.2246 226.675 82.1199C227.021 79.6835 229.84 81.3256 231.004 82.2154C236.217 86.1924 242.613 101.432 238.928 107.367C238.516 108.036 236.85 109.612 236.134 109.792C234.897 110.102 234.844 109.607 234.103 109.206L234.097 109.212ZM232.909 92.1997C233.835 93.4537 234.079 93.3522 234.593 95.2272C235.059 96.9351 235.112 100.494 235.644 101.658C236.175 102.823 237.895 102.978 238.283 101.844C238.868 100.13 237.382 93.1372 236.45 91.4234C234.671 88.1331 231.494 90.2709 232.915 92.2056L232.909 92.1997Z" fill="#FDCB10"/>
<path d="M211 88.3974C210.701 88.6124 208.623 89.2275 208.151 89.2872C205.446 89.6395 205.01 88.4571 205.148 86.1163C207.447 88.6422 209.692 85.3937 211.651 84.0024C209.746 83.9964 208.032 84.7309 206.449 83.1903C207.733 81.578 210.761 77.5533 211.203 75.7081C211.346 75.1109 210.14 73.3493 210.026 72.1311C209.901 70.7816 210.014 68.5423 211.806 68.5304C213.788 68.5125 214.326 70.9547 214.69 72.5133C215.401 75.5169 215.795 78.3056 214.738 81.2376C214.451 82.0318 211.328 88.1586 211 88.3974Z" fill="#C38870"/>
<path d="M233.046 68.6239C234.408 68.4209 235.913 68.6896 235.907 70.3437C235.901 72.4576 232.999 73.3832 231.649 74.7208C230.455 75.9032 228.633 79.9697 226.812 76.9839C224.895 73.831 230.079 69.0658 233.046 68.6239Z" fill="#FECC0D"/>
<path d="M211.328 90.0213C212.922 90.7379 214.362 89.9138 215.669 88.9942L218.482 85.1426C219.127 87.1251 216.655 91.1499 218.906 92.0635C221.157 92.9771 223.665 87.1192 224.334 85.471C224.328 85.686 224.346 85.9069 224.334 86.1219C224.28 87.4117 224.435 88.397 224.012 89.6988C223.874 90.1228 223.104 90.9767 223.038 91.323C221.139 93.0309 218.864 95.7061 216.231 93.413C215.717 92.9652 215.293 91.753 215.186 91.6754C215.024 91.556 212.54 92.7443 211.489 90.9827C211.28 90.6363 211.406 90.2542 211.322 90.0213H211.328Z" fill="#C48970"/>
<path d="M223.038 91.3213C223.11 90.9749 223.874 90.121 224.012 89.697C227.696 88.879 226.776 94.2712 225.648 96.3792C224.83 97.9078 220.882 101.712 219.605 99.132C218.709 97.3167 220.906 96.8509 221.748 96.0626C223.402 94.5041 222.692 92.9993 223.032 91.3272L223.038 91.3213Z" fill="#FECC0D"/>
<path d="M227.594 102.381L230.974 99.4191C231.225 99.2101 232.67 96.6484 233.124 97.1798C233.255 99.4729 233.996 101.921 234.068 104.208C234.115 105.659 233.202 107.672 234.097 109.218C233.411 108.848 231.494 107.546 231.494 106.776V101.408C230.043 102.011 229.141 102.226 227.588 102.381H227.594Z" fill="#C38771"/>
<path d="M233.034 76.1127C237.167 75.3603 238.552 78.8118 235.865 79.2896C235.495 79.3552 232.055 79.2358 231.816 79.1223C230.294 78.3819 231.225 76.4411 233.034 76.1127Z" fill="#FDCB10"/>
<path d="M206.449 83.1885C208.032 84.7291 209.752 83.9946 211.651 84.0006C209.686 85.3919 207.447 88.6404 205.148 86.1145C205.297 83.5707 205.261 84.6754 206.449 83.1885Z" fill="#FDCA12"/>
<path d="M224.34 86.1155C224.352 85.9005 224.334 85.6796 224.34 85.4646C224.388 83.9061 224.424 82.1325 224.34 80.5859C224.889 82.1206 224.883 84.6047 224.34 86.1155Z" fill="#FEF3C5"/>
<path d="M220.19 87.0118C219.109 85.7757 221.539 81.9063 219.79 80.915C220.1 82.4317 218.279 83.4887 217.264 82.4616C216.249 81.4345 217.867 77.1589 217.861 75.5467C217.861 74.3106 215.854 71.8801 217.998 71.4741C219.724 71.1456 220.178 72.746 220.93 74.0776C222.483 76.8364 223.516 80.1148 223.319 83.3155C223.277 84.0381 222.901 86.2117 222.531 86.7551C221.993 87.5493 220.763 87.6747 220.19 87.0178V87.0118Z" fill="#FEF3C7"/>
<path d="M232.909 92.2008C231.488 90.2661 234.665 88.1283 236.444 91.4185C237.376 93.1383 238.863 100.125 238.277 101.839C237.889 102.973 236.158 102.794 235.638 101.654C235.119 100.513 235.053 96.9302 234.587 95.2223C234.079 93.3533 233.829 93.4548 232.903 92.1948L232.909 92.2008Z" fill="#FEF3C5"/>
<path d="M153.745 30.1633C153.309 28.9869 152.264 29.1003 152.109 28.0314C151.595 24.4008 158.224 23.7798 160.696 24.0246C163.688 24.3172 174.442 27.7866 175.69 30.4976C176.353 31.9308 175.111 33.7462 173.744 33.7462H164.147C164.416 34.6001 164.577 35.4898 164.798 36.3497C163.15 38.5173 160.744 37.2275 158.725 36.0809C156.092 34.5881 154.742 32.8922 153.739 30.1693L153.745 30.1633ZM160.911 30.1633C162.828 30.8978 164.918 30.856 166.846 31.2202C167.981 31.4292 171.343 33.2385 171.66 31.2978C172.066 28.7838 166.608 26.5624 164.661 25.9295C162.607 25.2607 157.495 24.0425 156.008 26.0787C155.357 26.9685 156.54 29.9005 157.047 30.9455C158.486 33.9014 160.517 33.2505 160.917 30.1693L160.911 30.1633Z" fill="#FDCC13"/>
<path d="M95.1946 36.0216C95.308 35.6155 95.9291 33.8241 95.8455 33.7465C93.648 33.3523 82.0812 35.3408 84.3086 30.498C85.5566 27.7809 96.3411 24.3175 99.303 24.0249C101.698 23.792 108.929 24.5086 107.83 28.3065C107.579 29.1664 106.69 28.9992 106.26 30.1696C105.388 32.5343 104.17 34.3138 101.93 35.7648C100.026 37.0009 96.4128 38.8162 95.2006 36.0275L95.1946 36.0216ZM99.088 30.1636C99.4881 33.2389 101.524 33.8957 102.958 30.9398C103.465 29.8948 104.647 26.9628 103.997 26.0731C101.895 23.2187 93.5823 26.3 91.0624 27.8227C89.892 28.5274 88.0885 29.7157 88.3453 31.2922C88.6558 33.2329 92.0238 31.4295 93.1584 31.2146C95.0871 30.8563 97.1771 30.8981 99.094 30.1576L99.088 30.1636Z" fill="#FDCC13"/>
<path d="M95.1946 36.0211C96.4068 38.8097 100.026 36.9944 101.924 35.7583C104.158 34.3073 105.382 32.5278 106.254 30.1631C109.269 33.728 99.8345 40.5773 97.2309 40.8281C93.8869 41.1565 94.6393 37.9618 95.1946 36.0151V36.0211Z" fill="#C48970"/>
<path d="M164.81 36.3435C165.157 37.6931 166.249 39.2218 164.464 40.3862C162.278 41.8134 158.337 38.6246 156.671 37.1616C154.718 35.4359 151.924 32.9577 153.745 30.1631C154.754 32.8861 156.104 34.5759 158.731 36.0748C160.75 37.2213 163.156 38.5171 164.804 36.3435H164.81Z" fill="#C38870"/>
<path d="M111.133 36.9956C111.622 35.5147 113.211 33.9262 114.405 32.9409C114.626 32.7558 116.859 31.9855 115.211 31.7885C114.011 31.6452 112.315 32.2065 111.497 30.9405C110.577 29.5193 111.401 28.6057 112.637 27.925C115.456 26.3724 121.672 24.7362 124.801 25.4408C127.476 26.0439 127.279 28.4922 131.125 27.8652C132.469 27.6442 132.69 26.6948 133.609 26.1275C136.195 24.5212 139.855 25.4229 142.614 26.1753C144.238 26.6232 148.693 27.8652 148.872 29.6985C149.129 32.3617 145.516 31.6332 143.994 31.9557C146.078 33.2754 148.186 34.8041 148.872 37.324C146.723 41.4205 140.572 38.8049 137.025 39.3065C134.17 39.7126 133.281 42.2625 129.172 41.8922C126.67 41.6653 125.225 39.7186 123.261 39.3484C120.764 38.8826 113.724 40.6441 111.957 38.6138C111.562 38.16 111.634 37.4016 111.138 36.9896L111.133 36.9956ZM116.417 27.3159C116.083 27.6503 115.934 28.4026 116.155 28.8624C116.811 30.2001 119.075 29.2148 120.072 29.1909C121.451 29.1611 122.657 30.218 124.001 28.5639C126.7 25.2437 117.677 26.0678 116.417 27.3218V27.3159ZM143.582 27.3159C142.322 26.0678 133.293 25.2378 135.998 28.5579C137.341 30.212 138.548 29.161 139.927 29.1849C140.93 29.2028 143.193 30.1881 143.844 28.8565C144.071 28.4026 143.922 27.6443 143.582 27.3099V27.3159ZM135.09 29.3163C133.806 28.8386 126.431 28.8804 125.064 29.2984C122.717 30.0149 113.127 34.5831 117.791 37.6644C120.287 39.3125 123.052 36.5955 124.903 36.9776C125.201 37.0374 125.279 37.7062 125.601 37.9749C128.217 40.1187 131.794 40.1187 134.409 37.9749C134.732 37.7122 134.809 37.0374 135.108 36.9776C137.067 36.5716 140.19 39.6469 142.548 37.3479C146.197 33.7949 137.73 30.7136 135.472 29.8119C135.257 29.7283 135.192 29.3581 135.096 29.3163H135.09Z" fill="#FDCC16"/>
<path d="M148.866 37.3246C149.947 41.2956 146.92 41.9464 143.51 42.2151C141.671 42.3585 138.577 41.6777 137.335 41.8688C136.577 41.9883 135.61 43.4154 134.451 43.8932C131.853 44.9621 128.139 44.9621 125.542 43.8932C124.389 43.4214 123.416 41.9883 122.657 41.8688C121.415 41.6718 118.322 42.3585 116.483 42.2151C113.037 41.9405 109.759 41.1224 111.126 36.9961C111.622 37.4022 111.55 38.1665 111.945 38.6203C113.712 40.6506 120.753 38.8891 123.249 39.3549C125.213 39.7191 126.658 41.6717 129.16 41.8986C133.269 42.2689 134.158 39.7131 137.013 39.313C140.56 38.8114 146.705 41.427 148.86 37.3305L148.866 37.3246Z" fill="#C38771"/>
<path d="M127.118 23.356C128.045 23.356 128.796 22.6047 128.796 21.6779C128.796 20.7512 128.045 20 127.118 20C126.191 20 125.44 20.7512 125.44 21.6779C125.44 22.6047 126.191 23.356 127.118 23.356Z" fill="#FDCC13"/>
<path d="M132.881 23.3499C133.804 23.3499 134.553 22.6013 134.553 21.6778C134.553 20.7544 133.804 20.0059 132.881 20.0059C131.957 20.0059 131.209 20.7544 131.209 21.6778C131.209 22.6013 131.957 23.3499 132.881 23.3499Z" fill="#FDCC13"/>
<path d="M130.002 26.1333C130.886 26.1333 131.603 25.4168 131.603 24.5329C131.603 23.6491 130.886 22.9326 130.002 22.9326C129.119 22.9326 128.402 23.6491 128.402 24.5329C128.402 25.4168 129.119 26.1333 130.002 26.1333Z" fill="#FECC0D"/>
<path d="M135.09 29.3146C135.186 29.3505 135.257 29.7207 135.466 29.8103C137.724 30.7119 146.191 33.7932 142.543 37.3462C140.184 39.6453 137.061 36.5699 135.102 36.976C134.803 37.0357 134.726 37.7046 134.403 37.9733C131.794 40.117 128.211 40.117 125.595 37.9733C125.273 37.7105 125.195 37.0357 124.897 36.976C123.046 36.5938 120.281 39.3109 117.785 37.6627C113.121 34.5874 122.711 30.0133 125.058 29.2967C126.425 28.8787 133.8 28.8369 135.084 29.3146H135.09Z" fill="#FEF4CC"/>
<path d="M143.581 27.3156C143.916 27.65 144.065 28.4024 143.844 28.8622C143.187 30.1998 140.924 29.2145 139.927 29.1906C138.548 29.1608 137.341 30.2177 135.998 28.5636C133.299 25.2434 142.321 26.0675 143.581 27.3215V27.3156Z" fill="#FEF3C5"/>
<path d="M116.417 27.3153C117.677 26.0673 126.706 25.2372 124.001 28.5573C122.657 30.2114 121.451 29.1605 120.072 29.1844C119.069 29.2023 116.805 30.1875 116.155 28.8559C115.928 28.4021 116.077 27.6437 116.417 27.3093V27.3153Z" fill="#FEF3C5"/>
<path d="M160.911 30.1639C160.511 33.2392 158.474 33.896 157.041 30.9401C156.534 29.8951 155.351 26.9631 156.002 26.0734C157.489 24.0431 162.601 25.2613 164.655 25.9241C166.602 26.5571 172.06 28.7845 171.653 31.2925C171.343 33.2332 167.975 31.4299 166.841 31.2149C164.912 30.8566 162.822 30.8984 160.905 30.1579L160.911 30.1639Z" fill="#FEF3C9"/>
<path d="M99.0879 30.1642C97.1711 30.8987 95.0811 30.8569 93.1523 31.2212C92.0177 31.4302 88.6558 33.2395 88.3393 31.2987C88.0825 29.7223 89.8859 28.534 91.0563 27.8294C93.5763 26.3066 101.895 23.2194 103.991 26.0797C104.641 26.9694 103.459 29.9014 102.951 30.9464C101.512 33.9023 99.4821 33.2515 99.082 30.1702L99.0879 30.1642Z" fill="#FEF3C9"/>
<path d="M47.369 104.663C45.2192 111.214 37.4205 118.773 31.0967 121.413C29.6695 122.01 22.9755 124.655 23.28 121.431C23.4651 119.472 28.2722 119.908 29.15 117.997C29.4426 117.878 30.4219 117.394 30.4518 117.024C28.6305 117.502 22.2888 117.454 24.2534 114.235C25.0297 112.963 32.0581 110.778 33.8734 109.87C36.2381 108.694 40.2629 105.678 42.0066 103.69C42.8187 102.764 44.8371 98.7929 45.0879 98.6436C45.5298 98.3749 46.3299 98.3929 46.8196 98.5422C48.7006 99.1214 47.8109 103.319 47.369 104.663ZM38.5013 108.634C37.5459 108.825 34.4347 110.849 33.1747 111.446C31.9924 112.008 28.2184 112.957 27.9079 113.996C27.4004 115.692 28.72 116.277 30.2189 115.973C31.5446 115.704 38.0953 112.611 39.3493 111.757C41.6065 110.222 41.3079 108.061 38.5073 108.628L38.5013 108.634Z" fill="#FDCB10"/>
<path d="M32.4045 102.382L29.0246 99.42C28.7738 99.211 27.3288 96.6492 26.8749 97.1807C26.7376 99.4737 26.015 101.91 25.9314 104.209C25.8776 105.654 26.7973 107.679 25.9016 109.219C25.1312 109.613 25.0237 110.085 23.8712 109.804C23.2263 109.649 21.6081 108.162 21.208 107.571C17.2071 101.689 23.7339 86.2409 29.0007 82.2281C30.1652 81.3384 32.9837 79.6962 33.3301 82.1326C33.4853 83.2313 30.9475 86.3723 30.6011 88.0563C29.8905 91.5137 31.1863 95.4191 33.1151 98.2675C33.8974 99.42 36.1426 100.584 34.8349 102.047C33.9153 103.081 33.3539 102.483 32.4104 102.388L32.4045 102.382ZM27.0899 92.2005C28.5111 90.2657 25.3342 88.1279 23.5547 91.4182C22.6232 93.138 21.1363 100.125 21.7215 101.838C22.1097 102.973 23.8414 102.794 24.3609 101.653C24.8804 100.513 24.9461 96.9299 25.4119 95.222C25.9194 93.353 26.1703 93.4545 27.0959 92.1945L27.0899 92.2005Z" fill="#FDCB10"/>
<path d="M29.156 117.997C28.2782 119.908 23.4652 119.472 23.2861 121.431C22.9815 124.65 29.6755 122.004 31.1027 121.413C37.4206 118.774 45.2193 111.214 47.375 104.663C48.1334 108.551 45.2551 114.468 42.8188 117.514C40.8362 119.998 34.1721 124.733 31.1804 125.718C28.1887 126.704 21.3573 127.062 21.6857 122.428C21.9544 118.648 26.6958 119.018 29.156 117.997Z" fill="#C38771"/>
<path d="M25.4894 68.6148C29.4604 67.749 36.3754 75.1655 32.5895 77.6854C30.6547 78.9753 29.4724 75.7925 28.3557 74.7176C27.0301 73.4457 23.8533 72.3768 24.11 70.1375C24.2056 69.3134 24.6833 68.794 25.4894 68.6148Z" fill="#FECC0D"/>
<path d="M35.9874 90.0218C36.4711 90.2906 36.8413 90.8041 36.9608 91.3236C37.2235 92.4582 36.7458 93.5987 37.546 95.1274C38.3461 96.6561 41.0392 96.9726 40.4958 98.9014C39.7016 101.726 35.8201 98.4535 34.8766 97.1517C33.2524 94.9184 32.2612 87.9497 35.9874 90.0218Z" fill="#FECC0D"/>
<path d="M25.9016 109.214C26.8033 107.674 25.8777 105.649 25.9314 104.204C26.015 101.911 26.7376 99.4749 26.875 97.1759C27.3288 96.6445 28.7739 99.2062 29.0247 99.4152L32.4046 102.377C30.852 102.222 29.9562 102.007 28.4992 101.404V106.772C28.4992 107.524 26.5883 108.856 25.8956 109.214H25.9016Z" fill="#C38771"/>
<path d="M23.0532 78.8836C20.2765 76.2144 29.9801 74.3095 28.7738 78.4059C28.4036 79.6539 23.6265 79.433 23.0532 78.8836Z" fill="#FDCB0F"/>
<path d="M38.5014 108.636C41.308 108.068 41.6006 110.23 39.3434 111.765C38.0894 112.619 31.5386 115.712 30.213 115.981C28.7141 116.285 27.3944 115.7 27.902 114.004C28.2125 112.965 31.9865 112.016 33.1688 111.454C34.4288 110.857 37.54 108.839 38.4954 108.642L38.5014 108.636Z" fill="#FEF3C7"/>
<path d="M27.0899 92.2007C26.1643 93.4547 25.9195 93.3532 25.4059 95.2282C24.9401 96.9361 24.8864 100.495 24.3549 101.66C23.8235 102.824 22.1037 102.979 21.7156 101.845C21.1304 100.131 22.6172 93.1382 23.5488 91.4244C25.3283 88.1341 28.5052 90.2719 27.0839 92.2066L27.0899 92.2007Z" fill="#FEF3C5"/>
<path d="M35.3364 85.1437C35.1393 80.5995 35.7843 76.6643 37.9997 72.6813C39.3015 70.3465 41.3198 68.4236 42.4843 66.0828C42.7291 63.6285 40.1554 58.7737 39.8986 56.3135C39.7612 54.958 40.1016 53.8234 41.6423 53.9309C45.7984 54.2175 49.4052 62.6493 48.0198 66.2739C48.3184 66.5128 51.6863 64.4586 51.2504 68.358C51.1847 68.9551 50.5278 71.0631 50.3009 71.8035C49.7695 71.3616 50.0382 70.4838 49.8292 69.8329C49.3634 68.4117 47.8586 68.1012 46.736 69.0507C45.6133 70.0001 44.4728 76.2821 44.4847 77.8526C44.5146 81.7341 47.8825 84.8572 48.6767 88.3923C48.8021 88.9476 48.7902 89.4611 48.6767 90.0165C47.0823 90.7331 45.6432 89.909 44.3354 88.9894L41.5228 85.1378C40.9615 87.0546 43.3202 91.157 41.0989 92.0587C39.6657 92.6379 38.2505 90.3807 37.5459 89.276C36.6322 87.8369 36.3455 86.3798 35.3423 85.1378L35.3364 85.1437ZM42.735 82.4626C43.798 81.3877 42.0304 76.939 42.1439 75.2311C42.2096 74.21 43.1232 73.3382 43.0695 72.6753C42.968 71.3974 41.2302 71.0392 40.3704 71.8035C39.8389 72.2812 37.8922 76.2761 37.5996 77.1659C36.9905 79.029 36.5545 81.3638 36.674 83.3165C36.7576 84.6541 37.0621 87.4547 38.7162 87.4189C41.8154 87.3472 38.2505 81.9968 40.2091 80.922C39.8986 82.4387 41.7199 83.4956 42.735 82.4685V82.4626Z" fill="#FDCB10"/>
<path d="M50.301 71.8039C50.0681 72.5563 48.7186 75.2076 48.7365 75.4883C48.8141 76.808 52.5283 81.9076 53.5554 83.1855C52.1521 84.5052 51.0355 84.147 49.3456 83.9738C48.9037 83.926 48.5753 83.508 48.6768 84.3201C50.6056 85.6219 52.9941 88.8763 54.8572 85.7891C55.3887 90.7991 51.9671 89.378 48.6768 88.3927C47.8826 84.8576 44.5087 81.7345 44.4848 77.853C44.4728 76.2766 45.5656 70.0364 46.736 69.0511C47.9064 68.0658 49.3694 68.4181 49.8292 69.8333C50.0442 70.4842 49.7695 71.362 50.301 71.8039ZM48.1871 83.5199V83.8424C48.3961 83.7349 48.3961 83.6274 48.1871 83.5199Z" fill="#C38870"/>
<path d="M35.3364 85.1437C36.3396 86.3917 36.6262 87.8428 37.5399 89.2819C38.2385 90.3867 39.6597 92.6438 41.0929 92.0646C43.3202 91.1629 40.9615 87.0665 41.5168 85.1437L44.3294 88.9953C45.6372 89.9149 47.0763 90.739 48.6707 90.0224C48.0139 93.2709 45.1535 91.4317 44.8071 91.6705C44.6996 91.7481 44.2757 92.9663 43.7621 93.4082C41.1287 95.7012 38.8536 93.026 36.9547 91.3181C36.8353 90.7986 36.459 90.2851 35.9813 90.0164C35.8261 88.4758 35.3961 86.6485 35.3304 85.1377L35.3364 85.1437Z" fill="#C48970"/>
<path d="M54.8513 85.794C52.9882 88.8812 50.5996 85.6268 48.6708 84.325C48.5633 83.5129 48.8917 83.9369 49.3396 83.9787C51.0295 84.1519 52.1461 84.5042 53.5494 83.1904C54.6183 84.528 54.6064 83.4771 54.8513 85.794Z" fill="#FDCA12"/>
<path d="M42.7351 82.4629C41.7199 83.49 39.8986 82.433 40.2091 80.9163C38.2505 81.9971 41.8155 87.3476 38.7163 87.4132C37.0622 87.4491 36.7576 84.6485 36.674 83.3108C36.5546 81.3582 36.9905 79.0293 37.5996 77.1602C37.8922 76.2705 39.8389 72.2756 40.3704 71.7978C41.2303 71.0275 42.968 71.3918 43.0695 72.6697C43.1233 73.3325 42.2096 74.2043 42.1439 75.2255C42.0304 76.9393 43.798 81.382 42.7351 82.4569V82.4629Z" fill="#FEF3C7"/>
<path d="M48.1871 83.5186C48.3961 83.626 48.3961 83.7336 48.1871 83.841V83.5186Z" fill="#FDCA12"/>
<path d="M92.9134 46.1086C91.9878 47.3209 91.4145 48.7958 90.4472 49.9841C85.6401 55.8959 68.1079 62.2674 66.8897 50.3364C67.1763 48.7182 67.445 46.9088 68.8423 45.7802C71.2607 44.9024 71.422 45.1234 73.8046 44.7293C78.552 43.941 77.0949 39.116 72.0251 39.6774C70.0068 39.8983 63.253 43.6782 62.9724 45.6429C62.7813 47.0043 64.1726 47.8702 64.6145 48.7122C65.2236 49.8886 65.4087 50.9993 65.5879 52.2891C65.8685 54.2597 65.8864 56.3019 65.564 58.2785C65.3968 59.2936 63.9755 64.3992 63.4739 64.9725C63.1455 65.3427 63.1336 65.3965 62.6558 65.1517C61.7183 64.6739 60.5121 61.6166 60.0882 60.5417C59.909 60.0759 60.3987 59.5922 59.4074 59.7773C58.7207 64.2738 63.1396 66.9013 62.9843 71.1589C62.6798 71.5889 62.0348 72.0725 62.011 72.1323L58.7624 71.4814C58.0817 74.0073 61.0495 81.1551 56.1589 78.6352C53.1254 73.643 50.4502 63.5154 50.9577 57.6574C51.6086 50.1215 56.4515 39.7908 63.5456 36.417C70.6397 33.0431 89.2111 30.3261 92.8417 40.1611C93.8688 42.9378 93.2657 43.5349 92.9134 46.1086ZM85.9865 39.0086C85.0728 39.2892 84.0696 42.3526 83.156 43.3379C82.2901 44.2694 77.2979 47.5359 76.1753 47.4164C75.602 47.3567 75.1781 46.652 74.557 46.4012C72.8014 45.6906 69.8037 47.715 69.5111 49.5363C68.5975 55.2928 76.5933 55.1137 80.3195 53.8358C84.4638 52.4146 88.9125 47.7747 89.3066 43.2961C89.4798 41.3793 88.3989 38.2621 85.9805 39.0026L85.9865 39.0086ZM60.2971 41.2718C59.4372 41.3972 56.3321 45.5652 55.7648 46.5326C53.1314 51.059 52.5461 58.3561 53.2687 63.4736C53.4299 64.6381 53.9733 68.633 56.0275 66.961C57.1502 66.0474 55.8006 60.2729 55.8066 58.6368C55.8245 55.4779 56.8516 50.3424 58.4937 47.6314C59.1566 46.5386 61.8377 43.8454 61.9751 42.9437C62.1005 42.1077 61.1212 41.1523 60.3031 41.2718H60.2971ZM59.7358 58.792C60.4643 58.9234 60.9182 57.9441 61.1093 57.4067C61.8079 55.4421 61.8079 53.0534 60.542 51.3157L59.7298 58.792H59.7358Z" fill="#FDCB0F"/>
<path d="M92.9134 46.1094C92.6805 47.8232 92.8179 48.8861 92.0953 50.6596C89.659 56.649 79.7582 60.847 73.5957 60.3812C70.5741 60.1543 68.2094 59.5094 67.2121 56.5177C67.0031 55.8847 67.0748 55.0666 66.5612 54.565C66.5612 54.4575 66.5612 54.35 66.5612 54.2425C66.5612 54.0275 66.5553 53.8066 66.5612 53.5916C66.5971 52.2361 66.6628 51.6091 66.8837 50.3371C68.1019 62.2681 85.6342 55.8966 90.4412 49.9848C91.4086 48.7965 91.9818 47.3216 92.9074 46.1094H92.9134Z" fill="#C38771"/>
<path d="M66.2388 53.5899C66.3224 53.8168 66.2687 54.0975 66.5613 54.2408C66.5613 54.3483 66.5613 54.4558 66.5613 54.5632C66.5792 55.6978 66.8719 57.0712 66.8838 57.8177C66.9614 62.5232 65.6716 67.378 62.9784 71.1579C63.1337 66.9002 58.7148 64.2728 59.4015 59.7763C60.3928 59.5972 59.8972 60.0809 60.0823 60.5407C60.5063 61.6215 61.7125 64.6729 62.65 65.1506C63.1277 65.3955 63.1396 65.3417 63.4681 64.9715C63.9756 64.4042 65.3909 59.2926 65.5581 58.2775C65.8805 56.3009 65.8627 54.2527 65.582 52.2881C65.9463 52.6404 66.0657 53.1361 66.2329 53.5899H66.2388Z" fill="#C68C6C"/>
<path d="M62.011 72.1322C61.9632 72.2695 61.378 74.6343 61.3422 74.8791C61.1034 76.6168 62.1782 80.755 59.5567 81.2387C56.7501 81.7582 57.0308 80.0743 56.153 78.6411C61.0436 81.1611 58.0758 74.0132 58.7566 71.4873L62.005 72.1382L62.011 72.1322Z" fill="#C38870"/>
<path d="M67.2121 56.5171L66.8897 57.8189C66.8777 57.0724 66.5851 55.699 66.5672 54.5645C67.0807 55.0661 67.0091 55.8842 67.2181 56.5171H67.2121Z" fill="#C48970"/>
<path d="M85.9866 39.0087C88.399 38.2623 89.4798 41.3794 89.3126 43.3022C88.9126 47.7808 84.4638 52.4206 80.3256 53.8418C76.5994 55.1197 68.6035 55.2989 69.5172 49.5424C69.8038 47.7211 72.8075 45.6908 74.5631 46.4074C75.1841 46.6582 75.6081 47.3628 76.1814 47.4225C77.304 47.5419 82.2962 44.2756 83.1621 43.344C84.0817 42.3587 85.0789 39.2954 85.9925 39.0147L85.9866 39.0087Z" fill="#FEF4CC"/>
<path d="M60.2971 41.2719C61.1152 41.1525 62.0945 42.1078 61.9691 42.9439C61.8318 43.8455 59.1506 46.5387 58.4877 47.6315C56.8456 50.3366 55.8185 55.478 55.8006 58.6369C55.7946 60.2731 57.1442 66.0475 56.0215 66.9611C53.9733 68.6391 53.4299 64.6382 53.2627 63.4737C52.5461 58.3562 53.1254 51.0591 55.7588 46.5327C56.3201 45.5653 59.4313 41.3973 60.2911 41.2719H60.2971Z" fill="#FEF3C9"/>
<path d="M68.8423 45.7801C68.8423 45.7801 68.5258 45.3203 68.281 45.5114L64.6145 48.7061C64.1726 47.8582 62.7812 46.9983 62.9723 45.6368C63.247 43.6781 70.0067 39.8982 72.0251 39.6713C77.0949 39.11 78.5579 43.935 73.8046 44.7232C71.422 45.1173 71.2607 44.9023 68.8423 45.7742V45.7801Z" fill="#C38870"/>
<path d="M59.7357 58.7927L60.5479 51.3164C61.8139 53.0541 61.8138 55.4427 61.1152 57.4073C60.9241 57.9448 60.4702 58.9241 59.7417 58.7927H59.7357Z" fill="#C68C6C"/>
<path d="M66.5672 54.2417C66.2686 54.0984 66.3223 53.8177 66.2447 53.5908H66.5672C66.5612 53.8058 66.5672 54.0267 66.5672 54.2417Z" fill="#C48970"/>
<path d="M197.014 226.328C189.628 234.013 177.362 236.861 167.163 233.893C162.696 232.592 159.716 230.215 156.187 227.361C153.596 230.442 151.661 233.272 147.738 234.789C140.984 237.399 135.281 235.661 129.883 231.224C122.98 237.691 113.115 237.727 106.57 230.723C106.057 230.173 104.224 227.355 103.817 227.361C101.178 229.283 98.7835 231.588 95.738 232.89C86.5837 236.814 73.0941 235.004 65.2894 228.74C64.4713 228.083 63.2472 227.038 62.9844 226.005C67.4153 229.588 79.2567 233.332 84.9237 233.171C88.7036 233.063 95.0573 228.507 98.2222 226.268C100.252 224.829 102.265 221.759 104.928 223.264C106.021 223.885 107.341 227.797 108.153 229.146C109.514 231.427 111.234 233.183 113.903 233.804C112.178 229.385 117.474 230.042 120.323 230.639C123.022 231.2 123.9 232.657 126.969 231.266C128.002 230.794 129.304 229.158 130.152 229.242C130.719 229.295 132.14 230.86 133.042 231.266C136.105 232.663 136.989 231.206 139.688 230.639C142.537 230.042 147.833 229.385 146.107 233.804C148.777 233.189 150.496 231.427 151.858 229.146C153.44 226.489 154.384 220.708 158.612 223.581C162.84 226.453 169.563 233.01 175.081 233.165C179.189 233.278 189.216 230.502 193.013 228.656C194.399 227.982 195.516 226.781 197.02 226.322L197.014 226.328Z" fill="#C38771"/>
<path d="M169.038 210.061C169.092 212.909 166.19 213.076 164.159 212.013C163.293 211.148 161.878 210.019 160.881 209.278C159.281 208.09 155.375 206.657 155.698 204.388C156.098 201.569 161.436 203.283 163.084 204.149C165.628 205.481 167.432 207.762 169.044 210.061H169.038Z" fill="#FDCB0E"/>
<path d="M95.8395 212.013C93.8092 213.076 90.9071 212.909 90.9608 210.061C92.5552 207.72 94.3526 205.493 96.9203 204.149C98.5685 203.283 103.907 201.569 104.307 204.388C104.641 206.741 99.8464 208.58 98.1445 209.929C97.4459 210.485 96.4666 211.374 95.8395 212.019V212.013Z" fill="#FDCB0E"/>
<path d="M136.183 213.966C137.216 214.217 136.995 215.584 137.156 216.241C136.744 217.322 136.661 220.397 135.532 220.964C134.965 221.251 125.046 221.257 124.461 220.964C123.326 220.397 123.255 217.298 122.837 216.241C122.998 215.584 122.783 214.217 123.81 213.966C125.649 215.62 125.177 217.334 128.217 217.561C128.707 217.596 130.982 217.602 131.453 217.567C134.821 217.298 134.194 215.924 136.171 213.966H136.183Z" fill="#FDCB10"/>
<path d="M136.183 213.967C134.206 215.925 134.833 217.299 131.465 217.568C130.994 217.603 128.719 217.597 128.229 217.562C125.195 217.335 125.661 215.621 123.822 213.967C125.476 213.561 126.533 214.898 126.915 214.868C127.369 214.839 128.402 212.844 129.889 212.761C131.567 212.671 132.588 214.833 133.09 214.868C133.472 214.898 134.529 213.561 136.183 213.967Z" fill="#FEF3C9"/>
<path d="M137.156 216.241C137.514 217.68 137.867 218.988 137.479 220.469C135.126 221.639 134.797 222.416 131.621 223.073C130.743 222.678 128.366 222.26 128.695 223.395C127.817 223.258 122.962 221.615 122.58 221.042C122.43 220.821 122.55 220.618 122.514 220.469C122.132 218.875 122.46 217.764 122.837 216.241C123.249 217.292 123.326 220.397 124.461 220.965C125.046 221.257 134.965 221.251 135.532 220.965C136.661 220.397 136.738 217.328 137.156 216.241Z" fill="#C68C6C"/>
<path d="M88.4409 208.352C86.7151 206.608 89.6113 198.648 92.615 200.768C94.0302 201.766 91.8805 203.605 91.5939 204.339C91.0624 205.689 91.6595 208.4 89.7546 208.698C89.3605 208.758 88.7215 208.633 88.4409 208.352Z" fill="#FECC0D"/>
<path d="M167.623 200.673C171.433 199.395 173.445 208.095 170.758 208.716C168.483 209.242 168.889 205.564 168.411 204.345C168.166 203.712 165.748 201.3 167.617 200.673H167.623Z" fill="#FECC0D"/>
<path d="M164.159 212.013C166.19 213.076 169.092 212.909 169.038 210.061C170.214 211.744 171.582 214.127 170.925 216.337C169.964 219.555 165.67 214.032 164.81 213.142C164.488 212.807 164.35 212.198 164.159 212.013Z" fill="#C38771"/>
<path d="M95.8396 212.013C94.7886 213.082 93.2958 215.554 92.1074 216.575C89.8621 218.492 88.7276 216.611 89.0381 214.157C89.265 212.395 90.0592 211.386 90.9609 210.066C90.9071 212.915 93.8093 213.082 95.8396 212.019V212.013Z" fill="#C38771"/>
<path d="M161.138 218.618C161.52 218.935 161.92 220.064 162.517 220.649C163.037 221.156 164.165 221.843 164.834 222.237C166.136 223.019 170.77 224.638 171.224 225.109C172.149 226.065 171.253 227.432 170.125 227.546C168.471 227.713 161.789 224.035 160.421 222.739C157.394 219.866 158.976 216.803 161.132 218.618H161.138Z" fill="#FEF3C5"/>
<path d="M88.7753 225.109C89.2291 224.637 93.8631 223.013 95.1648 222.236C95.8277 221.836 96.9563 221.156 97.4818 220.648C98.4432 219.716 98.7417 217.77 100.491 218.242C102.145 218.689 101.142 220.976 100.396 221.932C99.0702 223.64 92.1254 227.479 90.0951 227.545C88.8709 227.581 87.784 226.136 88.7753 225.109Z" fill="#FEF3C5"/>
<path d="M145.212 219.572C146.233 220.593 145.451 222.08 144.429 222.701C143.737 223.119 139.097 224.582 138.273 224.69C136.171 224.959 135.866 223.03 137.031 222.134C137.837 221.513 141.993 219.417 142.937 219.244C143.576 219.124 144.752 219.112 145.218 219.578L145.212 219.572Z" fill="#FEF3C5"/>
<path d="M114.787 219.572C115.253 219.107 116.429 219.119 117.068 219.238C118.012 219.411 122.168 221.507 122.974 222.128C124.138 223.024 123.834 224.959 121.732 224.684C120.908 224.576 116.268 223.113 115.575 222.695C114.554 222.074 113.772 220.588 114.793 219.566L114.787 219.572Z" fill="#FEF3C5"/>
<path d="M128.904 223.825C129.238 223.783 131.465 223.897 131.746 224.082C133.221 225.061 132.427 226.709 130.797 226.966C126.993 227.563 126.664 224.124 128.91 223.831L128.904 223.825Z" fill="#FEF3C5"/>
<path d="M131.627 223.073C130.653 223.276 129.907 223.581 128.701 223.396C128.378 222.255 130.749 222.679 131.627 223.073Z" fill="#FEF3C5"/>
<path d="M62.9845 226.004C60.4287 223.937 58.082 221.149 57.7655 217.721C57.3893 213.678 58.5418 206.614 64.0475 207.534C68.0245 208.203 64.5013 214.538 61.3603 212.663C61.0199 214.682 61.7903 215.93 62.8532 217.512C69.0576 226.798 82.5471 226.822 91.8387 222.486C94.1139 221.423 95.1231 220.02 96.4308 217.972C97.1832 216.796 97.1892 215.016 98.9328 214.915C100.103 214.843 104.05 217.375 105.107 218.205C108.547 220.904 109.317 225.442 113.575 227.305C113.712 225.144 110.661 219.686 112.912 218.187C115.695 216.336 119.839 219.65 122.52 220.474C122.556 220.623 122.443 220.826 122.586 221.047C122.962 221.621 127.823 223.269 128.701 223.4C129.907 223.585 130.653 223.275 131.627 223.078C134.798 222.421 135.132 221.644 137.485 220.474C139.294 219.572 143.265 217.596 145.128 217.614C150.216 217.655 146.902 223.896 146.287 226.517C146.179 226.965 146.287 227.114 146.747 226.977C149.834 226.063 150.855 222.737 152.634 220.504C153.906 218.91 159.137 214.795 161.066 214.915C162.804 215.022 162.816 216.796 163.568 217.972C164.876 220.02 165.885 221.429 168.16 222.486C176.795 226.517 189.496 226.834 196.029 218.999C197.498 217.232 199.057 215.082 198.639 212.663C195.743 214.586 192.052 208.459 195.683 207.659C201.499 206.375 202.693 213.798 202.222 218.032C201.851 221.352 199.212 224.045 197.014 226.326C195.51 226.786 194.387 227.986 193.008 228.661C189.216 230.506 179.19 233.283 175.075 233.169C169.558 233.014 162.959 226.547 158.606 223.585C154.253 220.623 153.435 226.493 151.852 229.151C150.491 231.432 148.771 233.187 146.102 233.808C147.827 229.389 142.531 230.046 139.682 230.643C136.983 231.205 136.105 232.662 133.036 231.27C132.14 230.864 130.719 229.3 130.146 229.246C129.298 229.163 127.996 230.805 126.963 231.27C123.9 232.668 123.016 231.211 120.317 230.643C117.468 230.046 112.172 229.389 113.897 233.808C111.228 233.193 109.508 231.432 108.147 229.151C107.341 227.795 106.015 223.884 104.922 223.269C102.259 221.764 100.247 224.833 98.2163 226.272C95.0574 228.512 88.6977 233.068 84.9178 233.175C79.2509 233.337 67.4094 229.592 62.9786 226.01L62.9845 226.004ZM88.7753 225.108C87.7841 226.135 88.8709 227.58 90.0951 227.544C92.1254 227.484 99.0762 223.639 100.396 221.931C101.136 220.976 102.145 218.689 100.491 218.241C98.7417 217.769 98.4432 219.71 97.4818 220.647C96.9623 221.155 95.8337 221.841 95.1649 222.236C93.8631 223.018 89.2292 224.636 88.7753 225.108ZM161.138 218.617C158.982 216.802 157.394 219.865 160.427 222.737C161.795 224.033 168.477 227.717 170.131 227.544C171.259 227.431 172.149 226.063 171.23 225.108C170.776 224.636 166.142 223.012 164.84 222.236C164.177 221.835 163.049 221.155 162.523 220.647C161.92 220.062 161.52 218.939 161.144 218.617H161.138ZM114.787 219.572C113.766 220.593 114.548 222.08 115.569 222.701C116.262 223.119 120.902 224.582 121.726 224.69C123.828 224.959 124.132 223.03 122.968 222.134C122.162 221.513 118.006 219.417 117.062 219.244C116.423 219.125 115.247 219.113 114.781 219.578L114.787 219.572ZM145.212 219.572C144.746 219.107 143.57 219.119 142.931 219.238C141.987 219.411 137.831 221.507 137.025 222.128C135.861 223.024 136.165 224.959 138.267 224.684C139.091 224.576 143.731 223.113 144.424 222.695C145.445 222.074 146.227 220.587 145.206 219.566L145.212 219.572ZM128.904 223.824C126.658 224.117 126.993 227.556 130.791 226.959C132.421 226.702 133.221 225.054 131.74 224.075C131.466 223.89 129.232 223.776 128.898 223.818L128.904 223.824Z" fill="#FDCB0E"/>
<path d="M174.568 216.241C172.675 213.094 173.027 208.436 173.803 204.907C175.493 197.282 184.104 186.193 189.849 180.944C193.575 177.54 197.88 174.733 202.216 172.166C195.957 170.034 202.622 165.932 205.804 165.018C207.381 164.564 210.086 164.761 210.994 164.349C211.591 164.08 214.218 160.324 214.636 159.53C218.177 152.836 221.491 138.947 220.399 131.536C220.16 129.924 218.339 125.791 219.593 124.8C221.701 123.122 223.88 126.687 224.806 128.108C227.833 132.784 231.07 138.899 232.157 144.351C237.089 141.084 243.962 143.419 247.438 147.772C248.566 149.182 251.677 154.52 248.835 155.35C247.133 155.846 246.876 154.257 245.795 153.642C245.288 153.356 243.819 152.92 243.216 152.806C243.383 152.018 242.851 152.108 242.338 151.911C241.191 151.475 236.617 150.394 235.59 150.519C233.894 150.728 233.984 153.26 235.966 153.708C236.772 153.893 237.609 153.666 238.337 153.78C242.887 154.484 247.223 158.479 248.566 162.904C250.495 169.252 242.332 166.051 239.143 165.824C235.172 165.537 233.733 166.099 230.526 168.093C228.992 169.049 225.033 171.67 225.307 173.766C225.642 176.292 230.819 173.712 232.407 173.396C234.306 173.02 237.047 173.432 238.003 171.999C238.439 172.655 238.761 173.002 238.898 173.868C239.46 177.343 237.071 176.429 234.581 176.555C234.217 176.573 233.691 176.346 233.775 176.877C237.161 177.188 245.431 185.07 239.304 186.641C239.072 184.765 234.611 180.968 233.094 182.867C231.834 184.443 234.312 185.787 235.077 186.963C236.372 188.963 237.268 191.776 236.116 194.021C235.805 194.63 235.1 195.024 235.077 195.09C233.261 196.165 232.163 194.726 230.526 194.439C230.413 199.402 225.152 204.209 220.333 201.217C219.407 200.644 217.825 198.345 217.628 198.315C216.499 198.142 213.46 200.214 211.656 198.667C210.832 197.813 209.125 196.356 209.053 195.09C209.035 194.732 209.405 194.2 209.345 193.669C208.999 190.635 208.444 188.731 209.137 185.578C209.829 182.425 211.244 180.293 213.603 178.334C213.741 177.665 213.287 177.785 212.809 177.868C210.791 178.227 207.297 180.777 205.637 182.084C205.183 182.443 205.022 183.147 204.491 183.541C202.436 185.082 199.475 186.079 197.665 188.426C196.895 189.429 195.396 192.773 195.426 193.968C195.468 195.365 196.435 195.843 197.337 196.398C199.911 197.974 203.505 198.649 201.857 202.71C199.666 208.12 191.485 207.069 188.224 203.229C187.759 202.68 186.964 201.109 186.678 200.387C186.302 199.443 185.782 196.225 185.621 196.07C184.206 194.726 180.915 201.068 180.581 202.25C180.049 204.137 179.381 210.7 182.223 210.747C182.731 210.753 182.874 210.431 183.023 210.383C186.851 209.165 187.335 209.559 189.532 212.658C190.87 217.029 186.743 220.099 182.772 220.397C180.342 220.582 176.532 217.626 174.574 216.235L174.568 216.241ZM229.219 154.108C229.446 151.731 227.863 140.565 225.97 139.621C222.554 137.919 224.913 144.9 225.003 146.124C225.845 157.171 219.115 156.801 216.517 164.988C215.992 166.636 213.842 174.542 217.294 174.208C218.022 174.136 221.88 169.676 222.865 168.738C226.705 165.101 229.016 163.806 234.014 161.99C236.516 161.083 242.38 160.993 240.684 157.112C239.466 154.329 231.834 154.472 229.219 154.102V154.108ZM236.307 144.763C234.754 144.93 231.9 145.24 232.533 147.366C233.034 149.068 236.802 147.438 238.51 147.581C239.681 147.683 242.027 149.116 242.511 147.366C243.311 144.47 238.038 144.572 236.307 144.763ZM211.573 168.505C209.74 166.696 208.235 170.553 207.267 171.682C201.033 178.919 191.252 182.64 187.418 191.519C186.152 194.457 186.469 196.595 187.573 199.497C187.902 200.357 188.487 201.868 189.216 202.411C190.828 203.617 195.742 205.128 195.73 201.766C195.73 199.521 193.354 199.288 192.637 198.339C191.228 196.47 191.879 192.988 192.727 190.976C195.862 183.541 204.479 179.779 209.369 173.784C210.17 172.805 212.69 169.61 211.573 168.505ZM228.574 184.688C228.705 184.557 231.673 185.745 232.103 184.479C233.482 180.388 224.4 177.755 221.575 177.534C214.463 176.979 217.861 180.765 219.145 184.515C219.581 185.781 220.052 187.262 220.297 188.569C220.721 190.845 220.446 195.526 221.587 197.037C223.731 199.873 227.457 195.24 227.845 192.899C228.03 191.794 227.881 190.665 227.923 189.561C228.783 190.211 229.332 190.97 230.52 190.379C232.849 189.22 228.18 185.064 228.568 184.682L228.574 184.688ZM213.179 184.079C210.958 184.64 212.648 188.94 212.916 190.421C213.155 191.758 212.427 194.469 214.726 194.129C215.645 193.997 216.141 192.803 216.195 191.967C216.237 191.352 215.986 187.363 215.878 186.808C215.717 185.978 214.278 183.804 213.185 184.079H213.179ZM175.451 212.061C172.657 212.825 176.771 216.611 177.918 217.286C178.724 217.764 181.996 218.88 182.868 218.88C185.412 218.88 186.039 215.865 183.596 214.862C181.936 214.181 180.808 215.208 179.685 214.886C178.562 214.563 177.326 211.542 175.451 212.055V212.061Z" fill="#FDCB0F"/>
<path d="M213.281 200.303C213.37 200.333 213.729 200.536 213.932 200.626C218.303 202.603 222.584 206.597 223.689 211.363C223.044 212.282 223.474 213.584 223.289 214.701C222.889 217.107 219.557 220.565 217.694 217.848C217.389 217.406 215.001 213.011 214.833 212.575C214.541 211.799 214.684 211.004 214.427 210.377C213.585 208.293 211.244 202.077 208.832 201.665C208.39 201.593 207.673 202.256 206.927 202.28C205.84 202.322 205.404 201.301 204.497 201.922C204.443 198.721 208.504 200.172 210.205 200.303C211.131 200.375 212.11 199.951 213.275 200.297L213.281 200.303ZM219.706 213.56C220.333 212.915 220.62 210.64 220.255 209.75C219.485 207.857 213.257 201.581 213.92 207.63C214.099 209.255 218.088 215.232 219.706 213.56Z" fill="#FDCA12"/>
<path d="M197.337 196.398C196.435 195.843 195.468 195.371 195.426 193.968C195.39 192.773 196.889 189.429 197.665 188.426C199.475 186.079 202.436 185.082 204.491 183.541C205.016 183.147 205.183 182.437 205.637 182.084C207.297 180.783 210.797 178.227 212.809 177.869C213.281 177.785 213.74 177.666 213.603 178.334C211.238 180.299 209.799 182.544 209.136 185.578C208.474 188.611 208.999 190.635 209.345 193.669C209.405 194.2 209.035 194.732 209.053 195.09C205.064 194.451 204.921 189.465 204.664 186.306C202.216 188.074 199.672 189.543 198.483 192.487C197.958 193.782 197.922 195.162 197.343 196.386L197.337 196.398Z" fill="#C38870"/>
<path d="M223.689 211.362C224.167 213.428 224.459 215.112 223.749 217.118C222.763 219.889 220.411 222.505 217.282 220.863C214.344 219.322 213.484 214.019 211.925 211.26C211.191 209.959 208.593 206.334 207.608 205.17C206.622 204.005 204.527 203.509 204.503 201.933C205.41 201.312 205.846 202.333 206.933 202.291C207.679 202.261 208.396 201.599 208.838 201.676C211.256 202.082 213.591 208.299 214.433 210.389C214.684 211.016 214.547 211.81 214.839 212.586C215.006 213.022 217.395 217.417 217.7 217.859C219.563 220.576 222.895 217.118 223.295 214.712C223.48 213.595 223.05 212.293 223.695 211.374L223.689 211.362Z" fill="#C38771"/>
<path d="M235.077 195.096C234.927 195.52 235.351 196.308 234.76 196.893C234.056 197.592 232.133 197.437 231.983 197.676C231.422 198.571 231.721 199.873 230.688 201.282C227.833 205.176 223.026 205.379 219.294 202.578C218.685 202.119 217.431 200.309 217.282 200.279C216.553 200.136 214.911 200.966 213.926 200.626C213.723 200.536 213.364 200.327 213.275 200.303C212.576 199.873 212.164 199.21 211.65 198.679C213.454 200.232 216.493 198.153 217.622 198.327C217.819 198.357 219.401 200.656 220.327 201.229C225.146 204.22 230.413 199.413 230.52 194.451C232.157 194.738 233.255 196.177 235.071 195.102L235.077 195.096Z" fill="#C48970"/>
<path d="M183.023 210.389C182.874 210.437 182.731 210.759 182.223 210.753C179.381 210.706 180.049 204.143 180.581 202.256C180.915 201.068 184.206 194.732 185.621 196.076C185.782 196.231 186.302 199.444 186.678 200.393C186.964 201.116 187.759 202.686 188.224 203.235C185.125 203.707 182.438 205.97 182.354 209.255C182.337 209.87 182.074 210.586 183.017 210.395L183.023 210.389Z" fill="#C38870"/>
<path d="M230.52 168.099L230.031 169.078C233.237 168.965 236.104 169.132 237.997 172.004C237.041 173.437 234.294 173.025 232.401 173.401C230.813 173.718 225.636 176.297 225.301 173.772C225.027 171.682 228.98 169.06 230.52 168.099Z" fill="#C38870"/>
<path d="M174.568 216.242C176.532 217.633 180.342 220.589 182.766 220.404C186.743 220.099 190.864 217.036 189.526 212.665C190.32 213.788 191.049 214.289 191.335 215.908C192.052 219.986 187.239 222.888 183.531 222.393C181.811 222.166 176.317 218.511 175.027 217.221C174.609 216.803 174.705 216.493 174.556 216.242H174.568Z" fill="#C48970"/>
<path d="M239.304 186.64C237.871 187.011 236.217 186.545 235.077 186.963C234.312 185.786 231.834 184.443 233.094 182.866C234.611 180.967 239.072 184.765 239.304 186.64Z" fill="#C48970"/>
<path d="M238.331 153.786C237.603 153.673 236.767 153.9 235.96 153.714C233.978 153.267 233.888 150.735 235.584 150.526C236.611 150.4 241.179 151.481 242.332 151.917C242.846 152.108 243.377 152.025 243.21 152.813C242.547 152.687 241.203 152.532 240.546 152.556C240.272 152.568 237.292 152.902 238.331 153.786Z" fill="#C68C6C"/>
<path d="M229.219 154.108C231.834 154.478 239.472 154.329 240.684 157.118C242.38 160.999 236.516 161.083 234.014 161.996C229.016 163.812 226.705 165.101 222.865 168.744C221.88 169.681 218.028 174.142 217.294 174.214C213.842 174.548 215.992 166.642 216.517 164.994C219.115 156.807 225.845 157.177 225.003 146.13C224.907 144.906 222.554 137.925 225.97 139.627C227.863 140.571 229.451 151.737 229.219 154.114V154.108Z" fill="#FEF4CC"/>
<path d="M228.574 184.687C228.185 185.069 232.849 189.225 230.526 190.384C229.338 190.975 228.783 190.216 227.929 189.565C227.881 190.67 228.03 191.799 227.851 192.904C227.457 195.244 223.737 199.878 221.593 197.042C220.452 195.531 220.727 190.855 220.303 188.574C220.058 187.266 219.587 185.786 219.151 184.52C217.867 180.764 214.469 176.984 221.581 177.539C224.406 177.76 233.494 180.393 232.109 184.484C231.679 185.75 228.711 184.561 228.58 184.693L228.574 184.687ZM227.756 188.915V189.237C227.965 189.13 227.965 189.022 227.756 188.915Z" fill="#FEF4CC"/>
<path d="M211.573 168.506C212.69 169.61 210.17 172.805 209.369 173.785C204.479 179.78 195.862 183.542 192.727 190.976C191.879 192.989 191.228 196.47 192.637 198.339C193.354 199.289 195.725 199.528 195.73 201.767C195.736 205.135 190.822 203.618 189.216 202.412C188.493 201.868 187.902 200.352 187.573 199.498C186.469 196.596 186.152 194.458 187.418 191.52C191.252 182.64 201.027 178.92 207.267 171.683C208.241 170.554 209.74 166.696 211.573 168.506Z" fill="#FEF3C9"/>
<path d="M175.451 212.061C177.326 211.547 178.527 214.557 179.685 214.891C180.844 215.226 181.93 214.187 183.596 214.867C186.039 215.871 185.412 218.88 182.868 218.886C181.996 218.886 178.73 217.769 177.918 217.292C176.771 216.617 172.657 212.831 175.451 212.067V212.061Z" fill="#FEF3C5"/>
<path d="M213.179 184.078C214.272 183.803 215.711 185.976 215.872 186.806C215.98 187.362 216.231 191.351 216.189 191.966C216.135 192.802 215.639 193.996 214.72 194.127C212.421 194.462 213.149 191.751 212.91 190.419C212.642 188.938 210.952 184.639 213.173 184.078H213.179Z" fill="#FEF3C7"/>
<path d="M236.307 144.761C238.045 144.57 243.311 144.468 242.511 147.365C242.027 149.12 239.681 147.681 238.51 147.58C236.802 147.436 233.034 149.066 232.533 147.365C231.9 145.233 234.754 144.928 236.307 144.761Z" fill="#FEF3C5"/>
<path d="M219.706 213.56C218.094 215.232 214.099 209.255 213.92 207.631C213.257 201.582 219.485 207.858 220.255 209.751C220.62 210.64 220.327 212.915 219.706 213.56Z" fill="#FEF3C9"/>
<path d="M227.756 188.915C227.965 189.023 227.965 189.13 227.756 189.238V188.915Z" fill="#FDCB0F"/>
<path d="M16.7891 152.807C16.0845 152.938 14.8006 153.29 14.2094 153.643C13.1285 154.294 12.8419 155.834 11.1639 155.351C8.32151 154.521 11.4386 149.182 12.5612 147.773C16.0307 143.42 22.9039 141.085 27.8423 144.351C27.9379 142.709 28.4872 141.085 29.0903 139.574C30.0697 137.108 35.9396 125.846 37.8087 124.872C42.8964 122.245 39.8808 129.614 39.5942 131.536C38.5014 138.947 41.8156 152.837 45.3567 159.531C45.7747 160.319 48.4021 164.081 48.9992 164.35C49.9069 164.756 52.612 164.565 54.1885 165.018C55.5261 165.401 60.148 167.95 60.375 169.252C60.7512 171.39 59.0254 171.145 57.9744 171.981C57.0906 172.686 58.476 172.674 58.9657 172.913C69.5949 178.066 85.7299 195.855 86.7152 207.959C86.9182 210.455 86.8465 214.432 85.4193 216.576C84.3325 216.48 83.3174 218.033 82.5948 218.457C81.305 219.209 78.3551 220.529 76.9578 220.35C72.9091 219.825 69.2486 217.125 70.4608 212.677C72.6583 209.578 73.136 209.183 76.9697 210.402C77.119 210.449 77.2623 210.772 77.7699 210.766C80.6123 210.718 79.9435 204.155 79.412 202.268C79.0776 201.08 75.7873 194.744 74.3721 196.088C74.2108 196.243 73.6973 199.456 73.3151 200.405C73.0285 201.128 72.2343 202.698 71.7685 203.248C68.4902 207.075 60.3391 208.15 58.1356 202.728C56.5233 198.745 59.7659 198.1 62.3336 196.739C65.0566 195.294 64.7819 193.825 63.7966 191.215C62.0231 186.516 58.906 186.092 55.5082 183.56C54.9409 183.136 54.7498 182.36 54.2123 181.924C52.7374 180.729 48.9635 178.203 47.184 177.887C46.7122 177.803 46.2524 177.684 46.3897 178.353C48.7544 180.317 50.1935 182.563 50.8564 185.596C51.5192 188.63 50.9937 190.654 50.6474 193.687C50.5877 194.219 50.9579 194.75 50.94 195.109C50.8743 196.297 49.1067 197.814 48.3364 198.686C46.533 200.238 43.4935 198.16 42.3649 198.333C42.1679 198.363 40.5854 200.662 39.6598 201.235C34.8408 204.227 29.574 199.42 29.4665 194.458C27.8304 194.744 26.7316 196.183 24.9163 195.109C24.8924 195.037 24.1878 194.649 23.8772 194.04C22.7307 191.788 23.6205 188.976 24.9163 186.981C25.6806 185.805 28.1588 184.462 26.8988 182.885C25.382 180.986 20.9214 184.784 20.6885 186.659C16.9981 185.71 18.6343 182.73 20.372 180.646C21.8768 178.842 23.9966 177.618 26.218 176.896C26.3076 176.364 25.7821 176.591 25.4119 176.573C22.9218 176.454 20.5332 177.367 21.0945 173.886C21.2319 173.02 21.5543 172.674 21.9902 172.017C22.9457 173.45 25.6926 173.038 27.5855 173.414C29.1739 173.731 34.3512 176.31 34.6856 173.785C34.9603 171.695 31.0072 169.073 29.4665 168.112C26.2599 166.117 24.8207 165.55 20.8497 165.842C17.6609 166.075 9.49793 169.276 11.4267 162.922C12.7703 158.498 17.1056 154.503 21.6559 153.798C22.3844 153.685 23.2204 153.911 24.0265 153.726C26.0091 153.278 26.0986 150.747 24.4027 150.538C23.3338 150.406 18.8552 151.493 17.6549 151.929C17.1354 152.114 16.6099 152.042 16.7771 152.825L16.7891 152.807ZM19.4763 159.883C20.3541 160.797 24.4684 161.442 25.9852 161.991C30.9833 163.806 33.2942 165.096 37.1339 168.739C38.1789 169.73 42.0067 174.292 42.9263 174.209C46.539 173.886 43.4876 164.78 42.6396 162.904C40.6153 158.42 36.7458 157.184 35.4918 152.162C35.0081 150.239 34.8409 148.113 34.9961 146.131C35.1096 144.674 37.4146 138.613 34.2617 139.514C32.1597 140.117 30.5414 151.78 30.7802 154.115C28.1528 154.479 20.1629 154.335 19.2135 157.351C18.9925 158.05 18.9567 159.346 19.4763 159.889V159.883ZM20.2944 144.763C18.9508 144.96 17.01 145.611 17.4937 147.373C17.9774 149.134 20.9512 147.546 22.5038 147.588C23.9369 147.63 28.4753 149.481 27.4781 146.208C27.0362 144.745 21.6678 144.56 20.2944 144.763ZM48.426 168.506C47.3093 169.61 49.8293 172.805 50.6295 173.785C55.5201 179.78 64.1369 183.542 67.272 190.976C68.1199 192.989 68.7708 196.47 67.3616 198.339C66.645 199.289 64.2743 199.528 64.2684 201.767C64.2624 205.135 69.1769 203.618 70.7832 202.412C73.339 200.495 73.8048 194.362 72.5806 191.52C68.7469 182.634 58.9716 178.92 52.7314 171.683C51.7581 170.554 50.2593 166.696 48.426 168.506ZM32.0761 189.567C31.4491 192.32 33.2167 196.996 36.0471 197.82C39.6838 198.871 38.9911 193.556 39.2419 191.687C39.4927 189.818 39.8151 188.026 40.3048 186.247C41.511 181.888 46.1987 176.818 38.1372 177.576C35.6112 177.815 28.3797 180.078 27.8662 182.921C27.1973 186.641 30.9415 184.318 31.4312 184.694C30.8221 185.883 27.49 189.394 29.4785 190.385C30.6668 190.976 31.2222 190.218 32.0761 189.567ZM46.3121 184.085C45.5836 184.187 44.252 186.151 44.1266 186.808C44.0191 187.364 43.7683 191.353 43.8101 191.968C43.8638 192.804 44.3594 193.998 45.279 194.129C47.578 194.464 46.8495 191.753 47.0884 190.421C47.3093 189.179 49.2321 183.673 46.3121 184.085ZM83.7234 212.062C82.3799 212.324 81.2453 214.623 80.3197 214.892C79.0956 215.244 77.9908 214.056 76.2054 214.988C73.775 216.26 74.8677 219.06 77.4653 218.869C78.3193 218.803 81.52 217.657 82.2962 217.167C82.7979 216.851 85.2581 214.474 85.3835 214.062C85.7418 212.862 85.0431 211.805 83.7294 212.068L83.7234 212.062Z" fill="#FDCB0F"/>
<path d="M55.5021 201.928C54.5944 201.307 54.1586 202.328 53.0717 202.286C52.3253 202.256 51.6087 201.594 51.1668 201.671C49.4769 201.958 47.5362 205.666 46.8853 207.141C45.482 210.33 45.1595 212.372 43.2845 215.579C42.9083 216.224 42.8187 217.09 42.4425 217.663C40.5794 220.535 37.2891 217.412 36.7755 214.958C36.5606 213.943 36.895 212.802 36.3098 212.008C36.7815 209.679 37.0861 208.252 38.5969 206.323C39.6717 204.95 44.2041 201.42 45.7447 200.62C45.7925 200.596 46.5927 200.328 46.7181 200.298C47.9183 199.975 48.5692 200.387 49.4649 200.31C51.2445 200.154 55.5141 198.703 55.5021 201.928ZM40.2928 213.56C41.9051 215.232 45.8999 209.255 46.0791 207.631C46.7419 201.582 40.5137 207.858 39.7434 209.751C39.3791 210.64 39.6717 212.915 40.2928 213.56Z" fill="#FDCA12"/>
<path d="M62.3336 196.726C62.5068 191.746 59.1985 188.73 55.335 186.318C55.0782 189.471 54.9349 194.457 50.946 195.102C50.9639 194.744 50.5936 194.212 50.6534 193.681C50.9997 190.647 51.555 188.742 50.8624 185.589C50.1697 182.436 48.7544 180.305 46.3957 178.346C46.2583 177.677 46.7122 177.797 47.1899 177.88C48.9694 178.197 52.7374 180.723 54.2183 181.917C54.7558 182.353 54.9409 183.129 55.5142 183.553C58.9119 186.085 62.0231 186.503 63.8026 191.209C64.7879 193.818 65.0686 195.293 62.3396 196.732L62.3336 196.726Z" fill="#C38870"/>
<path d="M55.5022 201.928C55.5022 203.51 53.3764 204.006 52.3971 205.164C51.2207 206.556 48.4558 210.527 47.6377 212.121C46.1688 214.988 44.9447 221.891 40.4601 221.389C38.0536 221.12 35.8919 217.555 35.7247 215.34C35.653 214.384 36.1009 213.029 36.3099 212.02C36.8951 212.814 36.5666 213.949 36.7756 214.97C37.2892 217.424 40.5795 220.541 42.4426 217.675C42.8128 217.101 42.9084 216.236 43.2846 215.591C45.1537 212.384 45.4761 210.342 46.8854 207.153C47.5363 205.678 49.483 201.97 51.1669 201.683C51.6088 201.611 52.3254 202.274 53.0719 202.298C54.1587 202.34 54.5945 201.319 55.5022 201.94V201.928Z" fill="#C38771"/>
<path d="M24.9222 195.096C26.7376 196.171 27.8363 194.732 29.4725 194.445C29.586 199.408 34.8468 204.215 39.6658 201.223C40.5914 200.65 42.1738 198.351 42.3709 198.321C43.4995 198.148 46.539 200.22 48.3424 198.673C47.8049 199.282 47.7632 200.023 46.7181 200.297C46.5868 200.333 45.7866 200.602 45.7448 200.62C44.8252 200.918 43.4278 200.13 42.7172 200.273C42.5679 200.303 41.3139 202.113 40.7048 202.572C36.9726 205.373 32.1656 205.176 29.3113 201.277C28.2782 199.867 28.5767 198.566 28.0154 197.67C27.8661 197.431 25.9434 197.586 25.2387 196.888C24.6476 196.302 25.0715 195.514 24.9222 195.09V195.096Z" fill="#C48970"/>
<path d="M76.9757 210.39C77.9192 210.581 77.6565 209.865 77.6386 209.25C77.555 205.965 74.8678 203.702 71.7686 203.23C72.2343 202.681 73.0285 201.111 73.3151 200.388C73.6914 199.444 74.2109 196.226 74.3721 196.071C75.7874 194.727 79.0777 201.069 79.4121 202.251C79.9435 204.138 80.6124 210.701 77.7699 210.748C77.2623 210.754 77.1191 210.432 76.9698 210.384L76.9757 210.39Z" fill="#C38870"/>
<path d="M21.9962 171.999C23.8951 169.127 26.7614 168.96 29.9622 169.073L29.4725 168.094C31.0072 169.049 34.9663 171.671 34.6916 173.767C34.3572 176.293 29.1799 173.713 27.5915 173.396C25.6926 173.02 22.9517 173.432 21.9962 171.999Z" fill="#C38870"/>
<path d="M70.4667 212.665C69.2605 217.12 72.915 219.813 76.9637 220.338C78.367 220.517 81.3109 219.204 82.6007 218.445C83.3233 218.021 84.3384 216.469 85.4252 216.564C84.7326 217.609 79.6627 221.156 78.3908 221.73C73.2076 224.059 66.4897 219.759 69.356 213.997C69.6964 213.31 70.1681 213.077 70.4607 212.665H70.4667Z" fill="#C48970"/>
<path d="M24.9222 186.964C23.7816 186.546 22.1275 187.006 20.6943 186.641C20.9272 184.766 25.3879 180.968 26.9047 182.867C28.1647 184.444 25.6865 185.787 24.9222 186.964Z" fill="#C48970"/>
<path d="M21.6737 153.786C22.7127 152.902 19.733 152.568 19.4583 152.556C18.7955 152.526 17.4579 152.687 16.7951 152.813C16.6279 152.036 17.1533 152.108 17.6728 151.917C18.8731 151.487 23.3518 150.394 24.4207 150.526C26.1166 150.735 26.027 153.266 24.0444 153.714C23.2383 153.899 22.4022 153.673 21.6737 153.786Z" fill="#C68C6C"/>
<path d="M19.4762 159.883C18.9507 159.339 18.9925 158.043 19.2134 157.345C20.1689 154.335 28.1527 154.472 30.7802 154.108C30.5353 151.773 32.1537 140.111 34.2616 139.508C37.4145 138.606 35.1095 144.667 34.9961 146.124C34.8468 148.113 35.014 150.233 35.4917 152.156C36.7457 157.178 40.6152 158.414 42.6395 162.898C43.4875 164.773 46.539 173.88 42.9262 174.202C42.0007 174.286 38.1789 169.724 37.1338 168.732C33.2942 165.096 30.9833 163.8 25.9851 161.985C24.4684 161.435 20.354 160.79 19.4762 159.877V159.883Z" fill="#FEF4CC"/>
<path d="M32.076 189.568C31.2161 190.218 30.6668 190.977 29.4785 190.386C27.484 189.394 30.8221 185.883 31.4311 184.695C30.9415 184.319 27.1973 186.642 27.8661 182.921C28.3797 180.079 35.6171 177.81 38.1371 177.577C46.1986 176.819 41.511 181.888 40.3048 186.247C39.8091 188.033 39.4807 189.854 39.2418 191.687C39.003 193.521 39.6837 198.871 36.0471 197.82C33.2166 197.002 31.449 192.326 32.076 189.568ZM32.2433 188.917V189.239C32.4523 189.132 32.4523 189.024 32.2433 188.917Z" fill="#FEF4CC"/>
<path d="M48.4259 168.507C50.2592 166.697 51.764 170.555 52.7314 171.684C58.9716 178.927 68.7469 182.641 72.5806 191.521C73.8107 194.363 73.3389 200.496 70.7831 202.413C69.1708 203.619 64.2564 205.136 64.2683 201.768C64.2683 199.523 66.6449 199.29 67.3615 198.34C68.7708 196.471 68.1199 192.99 67.2719 190.977C64.1369 183.543 55.52 179.781 50.6294 173.786C49.8292 172.806 47.3093 169.611 48.4259 168.507Z" fill="#FEF3C9"/>
<path d="M83.7234 212.061C85.0371 211.805 85.7358 212.856 85.3775 214.056C85.2521 214.468 82.7918 216.845 82.2902 217.161C81.5139 217.651 78.3192 218.797 77.4593 218.863C74.8677 219.054 73.7689 216.247 76.1993 214.982C77.9848 214.05 79.0895 215.238 80.3137 214.886C81.2393 214.617 82.3798 212.324 83.7174 212.055L83.7234 212.061Z" fill="#FEF3C5"/>
<path d="M46.312 184.086C49.2321 183.674 47.3093 189.18 47.0883 190.422C46.8495 191.76 47.578 194.471 45.279 194.13C44.3594 193.999 43.8638 192.805 43.81 191.969C43.7682 191.354 44.019 187.365 44.1265 186.809C44.2519 186.153 45.5835 184.188 46.312 184.086Z" fill="#FEF3C7"/>
<path d="M20.2943 144.764C21.6678 144.561 27.0302 144.746 27.478 146.209C28.4693 149.481 23.9369 147.63 22.5037 147.588C20.9571 147.54 17.9535 149.045 17.4937 147.373C17.01 145.612 18.9507 144.961 20.2943 144.764Z" fill="#FEF3C5"/>
<path d="M40.2929 213.56C39.6659 212.915 39.3792 210.64 39.7435 209.751C40.5138 207.858 46.7421 201.582 46.0792 207.631C45.9001 209.255 41.9112 215.232 40.2929 213.56Z" fill="#FEF3C9"/>
<path d="M32.2432 188.916C32.4522 189.024 32.4522 189.131 32.2432 189.238V188.916Z" fill="#FDCB0F"/>
</svg>
