<svg width="260" height="260" viewBox="0 0 260 260" fill="none" xmlns="http://www.w3.org/2000/svg">
<path d="M25.3644 74.8725C28.4912 74.265 30.3756 76.6809 29.43 79.7042C29.1953 80.4566 26.8346 82.9 26.1306 83.9216C25.2954 85.1295 24.1703 87.7317 23.2316 88.5462C20.7467 90.6998 16.8744 88.9466 17.2609 85.6127C17.5301 83.3073 22.9555 75.3418 25.3644 74.8725Z" fill="#299E40"/>
<path d="M234.778 204.391C233.929 205.261 227.179 208.471 225.978 208.574C222.671 208.857 221.042 204.502 223.81 202.265C224.632 201.603 231.251 198.234 232.128 198.145C235.772 197.779 237.153 201.948 234.778 204.391Z" fill="#299E40"/>
<path d="M212.456 216.443C214.202 217.699 218.088 216.857 217.004 221.482C215.865 226.348 206.147 223.242 205.657 218.155C205.401 215.525 208.293 213.53 210.744 214.586C211.834 215.055 211.986 216.105 212.456 216.443Z" fill="#299E40"/>
<path d="M17.0814 113.416C13.6233 116.874 6.05127 109.958 10.2204 105.989C11.6492 104.629 13.7337 104.54 15.1418 105.975C15.4317 106.272 17.8062 109.758 17.8683 110.034C18.0823 111 17.7717 112.726 17.0814 113.416Z" fill="#299E40"/>
<path d="M190.83 219.287C197.836 218.638 197.339 226.382 190.326 226.721C184.784 226.983 183.527 219.97 190.83 219.287Z" fill="#FE805B"/>
<path d="M153.308 27.0318C150.589 29.0473 148.912 29.1716 149.547 33.4235C147.697 33.4028 146.979 36.8057 147.462 38.3312C148.601 41.9619 154.682 40.9955 157.443 41.3199C159.728 41.5891 161.55 42.2035 164.214 42.445C169.598 42.9351 172.304 41.672 176.811 41.672C179.22 41.672 182.202 42.5624 184.521 42.445C183.734 44.2604 180.552 44.709 179.282 46.0412C177.032 48.4018 178.627 52.0326 181.891 51.8462C181.671 53.4683 182.347 54.6348 183.583 55.608C186.709 58.0515 197.822 59.5493 202.053 60.0739C206.533 60.633 212.048 60.4536 216.286 61.2543C217.846 61.5511 218.488 64.3604 221.746 63.5045C225.915 69.0264 229.808 76.4604 231.058 83.3352C231.603 86.324 232.48 91.0729 229.401 92.7847C227.993 93.5716 226.295 93.0263 225.543 93.8201C224.99 94.3999 225.156 94.9521 224.949 95.38C222.112 101.268 220.759 109.316 220.186 115.922C219.275 126.572 221.643 136.864 219.392 147.466C218.757 150.448 217.501 155.349 215.348 157.337C210.281 162.016 205.146 159.897 200.811 155.507C191.327 145.913 198.029 135.808 200.949 125.64C205.36 110.269 204.11 94.9037 199.182 79.8633C198.25 77.0264 196.152 71.7046 192.887 71.1179C185.667 69.8202 178.544 72.5743 170.986 70.4552C164.055 68.5156 157.974 63.3733 152.729 58.6313C150.589 56.6986 150.071 54.5588 146.71 54.545C144.839 54.545 135.562 57.9065 133.388 58.8177C126.934 61.5234 121.654 65.3819 114.592 67.0937C103.431 69.7995 88.2734 68.8055 82.9171 56.9954C81.5849 54.0619 83.138 53.1922 78.9344 52.7021C73.1846 52.0326 68.2079 55.3941 62.686 56.9264C58.862 57.9894 52.5532 60.4536 50.1994 55.8703C46.8932 49.4441 55.9285 43.4666 60.3116 40.2638C60.9052 39.829 62.3823 39.3182 62.686 39.0628C62.2925 45.275 67.2899 46.483 72.377 47.2354C88.515 49.6098 98.0472 46.7867 107.807 34.1759C108.042 34.1344 108.36 34.2311 108.56 34.1759C108.291 35.1836 107.552 35.8394 107.055 36.8057C106.82 37.2613 106.413 37.5995 106.358 38.2276C106.31 38.8005 106.668 38.9938 106.675 39.0628C106.724 39.5598 106.634 40.0706 106.675 40.5675C105.999 41.175 106.192 41.4511 107.048 41.3199C107.083 41.5615 107.027 41.8238 107.048 42.0723C107.048 42.0999 106.751 42.2794 106.772 42.5693C106.855 43.791 107.745 43.5149 107.8 43.5701C116.145 52.3018 134.699 44.2742 141.629 36.6055C144.025 33.955 146.323 29.4615 149.533 27.7773C150.23 27.4115 152.66 26.7281 153.295 27.0249L153.308 27.0318ZM149.112 41.4166C146.882 41.527 136.853 44.0533 135.272 45.2889C126.872 51.86 111.21 56.0153 100.463 55.256C99.5175 55.187 97.0257 54.9109 96.5011 54.3242C96.1077 53.8824 96.0662 52.9989 95.7211 52.4743C93.2086 48.6779 88.5909 51.8117 89.4675 56.0981C90.2682 60.0049 94.81 61.5303 98.2613 61.9652C110.023 63.4561 122.882 59.7081 133.505 54.8142C138.51 52.5088 141.733 49.5822 147.572 48.9541C151.507 48.533 152.825 49.4717 155.731 51.8669C163.959 58.6658 166.478 67.3422 179.724 64.5536C183.527 63.7529 184.335 58.4864 180.539 57.8928C175.914 57.1749 173.802 59.3147 169.467 55.8082C163.372 50.8798 158.561 40.9541 149.098 41.4166H149.112ZM58.0821 47.8151C56.8396 47.9601 52.8776 48.885 52.1459 49.7755C50.3375 51.9842 51.9941 55.1939 54.6308 55.5942C58.2408 56.1464 64.3702 55.394 63.8249 50.5347C63.466 47.3251 60.6153 47.5252 58.0821 47.8151ZM222.409 80.1256C218.281 80.6018 216.328 83.7563 214.699 87.1109C210.247 96.2704 211.731 99.6803 211.979 109.178C212.159 115.867 212.034 131.701 207.983 136.795C205.877 139.438 206.388 137.72 204.559 137.285C196.766 135.421 200.376 146.272 205.242 149.005C211.33 152.436 214.885 147.887 215.99 142.165C217.191 135.973 215.686 131.652 215.355 125.73C214.816 116.156 217.467 95.8425 223.085 87.9668C224.148 86.4759 226.136 85.6959 226.281 83.6113C226.426 81.5268 224.521 79.8702 222.409 80.1118V80.1256Z" fill="#632D02"/>
<path d="M111.196 28.9165C110.361 31.2634 109.229 32.3471 107.814 34.1831C98.0541 46.7939 88.515 49.6171 72.3839 47.2426C67.2968 46.4972 62.2994 45.2823 62.6929 39.0701C63.0518 38.7664 63.4245 37.7793 63.811 37.3721L63.4453 37.1857C65.2399 36.668 68.1527 35.1288 68.3322 33.0511L70.2096 32.2988C67.4832 35.5774 67.4418 40.4022 72.6739 40.2159C73.157 40.2021 73.5435 39.8156 73.5919 39.8156C86.1681 40.14 91.5313 42.1762 100.677 31.7397C102.989 29.1029 102.969 28.2194 104.425 25.5274C104.77 24.8855 105.495 24.5128 105.55 24.4023C105.888 26.9908 108.863 28.5714 111.19 28.9165H111.196Z" fill="#FAF6CB"/>
<path d="M128.114 15.7543C129.26 18.8674 127.417 21.3108 125.857 23.6508C124.235 23.1607 120.473 21.9804 119.466 23.6508C119.141 19.9096 117.333 18.6948 113.668 19.1711C112.536 19.316 111.576 20.0684 110.817 20.2686C109.699 20.5516 108.912 19.9165 107.448 20.8484C105.875 21.8492 106.178 23.2228 105.55 24.4032C105.488 24.5136 104.77 24.8863 104.425 25.5283C98.0197 27.1158 91.7522 29.5041 85.7471 32.2306C82.358 33.7698 76.767 36.3099 73.8404 38.3737C73.4193 38.6705 71.8594 39.8509 73.5919 39.8164C73.5436 39.8164 73.1571 40.196 72.6739 40.2167C67.4349 40.4031 67.4763 35.5713 70.2097 32.2996C72.943 29.0278 81.5021 26.4325 85.2501 24.0235C84.8981 30.6154 94.527 26.3703 97.6538 24.9553C101.312 23.3057 102.955 22.146 100.67 18.0046C103.873 18.0046 111.279 15.0848 115.531 14.6293C119.783 14.1737 124.076 14.1599 128.121 15.7543H128.114Z" fill="#E0AD52"/>
<path d="M187.151 49.9756C188.366 50.1413 191.389 51.6322 193.163 52.0463C195.786 52.6607 197.712 52.7435 200.314 52.9851C200.563 53.0058 200.818 52.9644 201.066 52.9851H201.439C202.564 53.0679 208.97 53.9169 209.267 53.6546C209.432 53.5097 209.294 53.0127 209.336 52.9851C209.412 52.9367 211.02 52.9229 211.213 52.9851C211.268 52.9989 211.386 53.5994 212.138 53.7375C215.61 54.3656 222.678 53.413 223.831 58.2241C224.231 59.8945 223.513 63.0489 221.739 63.5182C218.481 64.3741 217.839 61.5648 216.28 61.268C212.041 60.4673 206.519 60.6468 202.047 60.0877C197.822 59.5631 186.709 58.0653 183.576 55.6218C182.333 54.6555 181.657 53.4889 181.885 51.86C183.569 51.7633 185.184 49.7064 187.151 49.9825V49.9756Z" fill="#FBF7CC"/>
<path d="M173.615 33.8037C176.093 33.921 179.027 33.9486 181.512 34.1764C188.062 34.7907 200.259 37.2066 203.696 43.1979C202.088 42.9149 200.521 43.619 198.996 43.6121C197.608 43.6052 191.817 43.4188 190.913 43.1979C190.506 43.1013 190.023 42.3903 189.512 42.1557C187.165 41.1065 186.537 42.3421 184.521 42.4456C182.209 42.556 179.22 41.6725 176.811 41.6725C172.304 41.6725 169.598 42.9426 164.214 42.4456C164.511 41.355 165.581 40.9685 165.719 39.588C166.071 35.9158 161.578 35.5431 159.21 34.4663C158.803 34.28 158.658 33.8382 158.575 33.7968V33.4241C163.234 33.3895 168.922 33.5759 173.615 33.7968V33.8037Z" fill="#FBF8CD"/>
<path d="M164.594 19.5164C166.437 19.8477 168.273 20.821 169.778 21.3594C170.44 21.5941 171.828 22.1186 172.49 21.7735C172.497 25.3145 176.542 25.4939 178.882 27.7924C180.628 29.5042 181.691 31.6164 181.512 34.1841C179.027 33.9494 176.093 33.9287 173.615 33.8114C173.636 32.1341 170.923 30.5189 169.591 29.7528C167.624 28.6208 164.987 27.4335 162.71 27.4197C162.875 25.3835 161.101 23.7131 159.134 23.7131C157.491 23.7131 154.668 26.0392 153.308 27.047C152.673 26.7502 150.244 27.4335 149.547 27.7993C147.269 19.9512 159.355 18.5846 164.587 19.5233L164.594 19.5164Z" fill="#E0AD53"/>
<path d="M203.696 43.2049C204.11 43.9227 204.67 44.3852 204.808 45.2963C204.904 45.9245 204.711 48.4231 204.449 48.8442C204.428 48.8718 203.972 48.7959 203.841 48.9753L200.314 52.9788C197.719 52.7372 195.793 52.6612 193.163 52.04C191.389 51.6259 188.366 50.1349 187.151 49.9693C187.068 49.0513 189.27 47.9676 190.161 47.7122C191.237 47.4085 196.097 47.0565 196.552 46.5802C197.167 45.9452 194.916 45.1859 194.551 45.0133C193.453 44.5094 192.155 43.902 190.913 43.9504C190.913 43.7019 190.913 43.4465 190.913 43.198C191.824 43.4119 197.608 43.5983 198.996 43.6121C200.521 43.619 202.088 42.915 203.696 43.198V43.2049Z" fill="#E0AD52"/>
<path d="M100.663 18.0108C102.955 22.1523 101.305 23.3119 97.6469 24.9616C94.5201 26.3697 84.8912 30.6217 85.2432 24.0298C85.326 22.4284 86.603 21.5518 87.9903 20.9444C89.8885 20.1092 95.59 17.9142 97.4329 17.5691C98.9101 17.293 99.6003 18.0108 100.663 18.0108Z" fill="#299E40"/>
<path d="M147.669 19.8879C147.724 20.8129 147.096 20.8474 146.551 21.2132C138.282 26.8042 137.612 33.3892 127.362 37.5582L126.989 36.8059C127.762 36.157 128.259 33.1269 127.742 32.2917C130.344 30.4418 132 27.7636 133.008 24.768C135.824 25.4996 145.833 23.8223 143.534 18.749C144.39 19.3012 146.62 19.9086 147.669 19.8741V19.8879Z" fill="#663408"/>
<path d="M142.52 16.7681C140.843 14.8699 141.636 12.0744 143.983 11.1288C145.598 10.48 151.334 9.90013 153.088 10.1486C157.243 10.7422 157.277 15.857 153.626 17.0097C152.149 17.4721 145.578 18.2176 144.266 17.8311C143.99 17.7482 142.706 16.9683 142.52 16.7612V16.7681Z" fill="#FE805B"/>
<path d="M143.534 18.7629C145.833 23.8362 135.824 25.5135 133.008 24.7818C132.905 24.7542 131.642 23.6775 131.497 23.4704C129.799 21.1374 131.538 20.668 131.504 18.7629C132.939 18.7905 134.382 17.9415 135.638 17.6378C137.674 17.1408 140.497 16.3884 142.382 17.479C143.01 17.8448 143.3 18.6111 143.534 18.7629Z" fill="#299E40"/>
<path d="M99.6556 3.83997C101.174 2.42496 103.459 2.94952 104.805 4.2886C105.502 4.97885 108.705 9.55517 108.87 10.4042C109.215 12.2057 107.849 14.2696 106.027 14.5664C102.969 15.0703 96.2182 7.04268 99.6556 3.84683V3.83997Z" fill="#FE805B"/>
<path d="M178.882 27.7857C176.542 25.4872 172.497 25.3077 172.49 21.7667C172.477 15.4026 182.913 20.0687 183.624 23.6373C184.142 26.2326 181.215 28.1515 178.882 27.7857Z" fill="#299E40"/>
<path d="M68.3253 33.0513C68.1459 35.1358 65.2331 36.6682 63.4384 37.1859C61.9613 37.6138 59.9251 37.4689 58.9173 36.1505C54.6999 30.6493 68.9328 25.9349 68.3253 33.0444V33.0513Z" fill="#FE805B"/>
<path d="M211.22 52.9789C211.02 52.9168 209.418 52.9306 209.343 52.9789C207.9 52.62 207.251 51.1912 206.333 50.3491C205.726 46.6011 209.439 44.6476 212.49 46.6424C215.175 48.3957 214.485 52.5924 211.227 52.9858L211.22 52.9789Z" fill="#FB7F5A"/>
<path d="M204.449 48.8447C204.801 49.6385 205.774 49.8387 206.326 50.3495C207.244 51.1916 207.893 52.6204 209.336 52.9793C209.294 53.0069 209.432 53.497 209.267 53.6489C208.97 53.9112 202.564 53.0622 201.439 52.9793C201.246 52.9655 201.08 52.9793 201.066 52.9793C200.818 52.9586 200.563 53 200.314 52.9793L203.841 48.9759C203.972 48.8033 204.428 48.8792 204.449 48.8447Z" fill="#663408"/>
<path d="M135.638 17.6306C134.382 17.9343 132.939 18.7902 131.503 18.7557C131.503 18.4796 130.965 17.7549 131.131 17.251C132.235 17.5754 134.416 17.5478 135.645 17.6237L135.638 17.6306Z" fill="#70481B"/>
<path d="M149.112 41.418C158.568 40.9555 163.386 50.8812 169.481 55.8096C173.816 59.316 175.928 57.1763 180.552 57.8941C184.349 58.4878 183.541 63.7543 179.738 64.555C166.492 67.3436 163.973 58.6672 155.745 51.8683C152.839 49.4662 151.521 48.5275 147.586 48.9554C141.747 49.5836 138.523 52.5102 133.519 54.8156C122.896 59.7095 110.037 63.4575 98.2751 61.9666C94.8239 61.5317 90.2821 60.0063 89.4814 56.0995C88.6048 51.813 93.2225 48.6862 95.735 52.4757C96.0801 53.0003 96.1284 53.8907 96.5149 54.3255C97.0395 54.9122 99.5313 55.1884 100.477 55.2574C111.224 56.0167 126.886 51.8614 135.286 45.2902C136.86 44.0547 146.896 41.5284 149.125 41.418H149.112Z" fill="#97521C"/>
<path d="M222.409 80.1251C224.514 79.8835 226.426 81.4573 226.281 83.6246C226.136 85.792 224.148 86.4822 223.085 87.9801C217.467 95.8558 214.823 116.17 215.355 125.743C215.686 131.673 217.191 135.987 215.99 142.178C214.885 147.9 211.324 152.442 205.242 149.019C200.376 146.278 196.766 135.428 204.559 137.298C206.395 137.74 205.877 139.459 207.983 136.808C212.041 131.714 212.159 115.873 211.979 109.191C211.731 99.6867 210.247 96.2768 214.699 87.1242C216.328 83.7696 218.281 80.6152 222.409 80.1389V80.1251Z" fill="#97511C"/>
<path d="M162.71 27.4127C162.565 29.159 158.244 32.1201 156.691 33.052C155.89 33.5351 154.178 34.467 153.308 34.5568C151.217 34.7776 150.596 33.4385 149.547 33.4316C148.905 29.1728 150.589 29.0555 153.308 27.04C154.668 26.0322 157.491 23.7061 159.134 23.7061C161.101 23.7061 162.875 25.3764 162.71 27.4127Z" fill="#FB7F5A"/>
<path d="M190.913 43.2049C190.913 43.4534 190.913 43.7088 190.913 43.9573C190.934 45.4758 190.913 46.3455 190.161 47.7191C189.27 47.9676 187.075 49.0582 187.151 49.9762C185.184 49.7001 183.569 51.7571 181.885 51.8537C178.627 52.0401 177.025 48.4163 179.275 46.0487C180.545 44.7165 183.727 44.2679 184.514 42.4526C186.53 42.3559 187.158 41.1135 189.505 42.1626C190.016 42.3904 190.499 43.1083 190.906 43.2049H190.913Z" fill="#FB7F5A"/>
<path d="M157.823 33.4305C158.064 33.5478 158.333 33.6789 158.575 33.8032C158.658 33.8446 158.803 34.2864 159.21 34.4727C161.578 35.5495 166.064 35.9222 165.719 39.5943C165.588 40.9817 164.511 41.3614 164.214 42.452C161.557 42.2104 159.735 41.5892 157.443 41.3269C154.737 39.691 151.162 38.3657 153.308 34.5556C154.178 34.4658 155.89 33.534 156.691 33.0508C157.008 33.2993 157.519 33.2786 157.816 33.4235L157.823 33.4305Z" fill="#2E9E42"/>
<path d="M58.0821 47.816C60.6084 47.5261 63.466 47.319 63.8249 50.5356C64.3633 55.4018 58.2408 56.1473 54.6308 55.5951C51.9941 55.1947 50.3375 51.9851 52.1459 49.7763C52.8776 48.8859 56.8396 47.9609 58.0821 47.816Z" fill="#97511C"/>
<path d="M149.547 33.4308C150.589 33.4446 151.217 34.7837 153.308 34.5559C151.169 38.3592 154.737 39.6914 157.443 41.3273C154.682 41.0028 148.601 41.9692 147.462 38.3385C146.979 36.8061 147.697 33.4032 149.547 33.4308Z" fill="#F9F6CB"/>
<path d="M120.97 27.4121C121.171 28.3854 120.501 28.1783 119.942 28.4337C117.098 29.7176 113.812 30.9048 111.1 32.3957C110.182 32.8996 109.671 33.8521 108.56 34.1834C108.36 34.2386 108.042 34.142 107.807 34.1834C109.222 32.3543 110.354 31.2706 111.19 28.9168C113.957 29.3241 116.18 28.7857 118.713 28.1645C119.459 27.9781 120.246 27.6813 120.97 27.4121Z" fill="#70481B"/>
<path fill-rule="evenodd" clip-rule="evenodd" d="M131.124 17.2586L131.122 17.2649C130.703 17.1403 130.214 16.8613 129.686 16.5606C129.187 16.276 128.654 15.972 128.114 15.7607C129.193 18.6918 127.622 21.0293 126.133 23.2457L126.133 23.2463C126.04 23.3837 125.948 23.5206 125.857 23.6572C125.699 23.8959 125.624 24.1303 125.546 24.3753C125.402 24.8245 125.247 25.3093 124.546 25.9212C123.641 26.7113 122.849 26.9068 122.047 27.1045C121.694 27.1918 121.338 27.2795 120.97 27.419C121.119 28.1423 120.787 28.2175 120.378 28.3104C120.236 28.3425 120.085 28.3767 119.942 28.4406C118.971 28.8789 117.948 29.3068 116.915 29.7393L116.915 29.7394C114.921 30.5737 112.886 31.4253 111.1 32.4026L111.058 32.4255C110.176 32.9096 109.978 33.0182 108.56 34.1903C105.5 38 106 40.582 106 40.582C107.519 56.2051 136.671 42.1211 141.636 36.6269C142.414 35.764 143.182 34.7058 143.975 33.6128C145.618 31.3484 147.37 28.9346 149.54 27.7986C147.255 19.9505 159.348 18.577 164.58 19.5226C162.468 18.2249 158.582 17.9005 156.104 18.004C154.59 18.0688 152.992 18.5624 151.481 19.0293C150.09 19.4587 148.773 19.8655 147.662 19.8953C147.71 20.6054 147.347 20.7907 146.929 21.004C146.802 21.0685 146.671 21.1356 146.544 21.2206C143.064 23.5736 140.928 26.1014 138.859 28.5514C136.011 31.923 133.287 35.1471 127.355 37.5656C127.204 37.6277 127.022 37.7033 126.816 37.7888L126.816 37.789C125.148 38.4826 121.926 39.8228 120.777 39.8228H114.572C113.985 38.7184 116.877 37.2688 117.581 37.1929C113.26 31.6019 119.383 30.2836 124.159 30.8012C124.843 30.8772 127.514 31.947 127.735 32.306C130.337 30.4561 131.993 27.7779 133.001 24.7823C132.898 24.7547 131.635 23.671 131.49 23.4708C130.404 21.9798 130.723 21.25 131.086 20.4202C131.29 19.9515 131.509 19.4509 131.497 18.7633C131.497 18.6642 131.427 18.5071 131.346 18.3231C131.202 17.9971 131.02 17.5868 131.122 17.2649L131.124 17.2655V17.2586Z" fill="#FAF6CB"/>
<path d="M127.742 32.2995C128.259 33.1278 127.762 36.158 126.989 36.8137C125.733 37.8767 121.405 37.5661 119.659 37.5661C118.989 37.5661 118.237 37.1174 117.588 37.1933C113.274 31.6024 119.397 30.284 124.166 30.8017C124.85 30.8776 127.514 31.9475 127.742 32.3064V32.2995Z" fill="#2E9E42"/>
<path d="M125.857 23.6498C125.409 24.3262 125.629 24.9682 124.546 25.9138C123.241 27.0527 122.171 26.963 120.97 27.4116C120.253 27.6808 119.466 27.9777 118.713 28.164C119.707 26.6593 118.962 25.1615 119.086 24.0295C119.086 23.9811 119.369 23.8086 119.459 23.6567C120.466 21.9863 124.228 23.1666 125.85 23.6567L125.857 23.6498Z" fill="#663408"/>
<path d="M126.989 36.8135L127.362 37.5659C125.982 38.1319 122.075 39.823 120.784 39.823H114.579C113.992 38.7186 116.884 37.269 117.588 37.1931C118.237 37.1241 118.989 37.5659 119.659 37.5659C121.405 37.5659 125.733 37.8765 126.989 36.8135Z" fill="#70481B"/>
<path d="M104.425 25.5273C102.969 28.2193 102.983 29.1028 100.677 31.7396C91.5313 42.1761 86.175 40.1399 73.5919 39.8155C71.8594 39.85 73.4193 38.6696 73.8403 38.3728C76.767 36.309 82.358 33.7689 85.7471 32.2297C91.7522 29.5032 98.0197 27.1149 104.425 25.5273Z" fill="#673105"/>
<path d="M110.817 20.2676C113.032 23.3599 116.677 21.4824 119.093 24.0294C118.962 25.1614 119.714 26.6662 118.72 28.164C116.194 28.7852 113.971 29.3236 111.196 28.9163C108.863 28.5781 105.895 26.9975 105.557 24.4021C106.185 23.2218 105.882 21.8482 107.455 20.8474C108.919 19.9155 109.712 20.5575 110.824 20.2676H110.817Z" fill="#FE805B"/>
<path d="M119.466 23.6494C119.376 23.8013 119.093 23.9739 119.093 24.0222C116.677 21.4752 113.032 23.3526 110.817 20.2603C111.576 20.0671 112.536 19.3078 113.668 19.1628C117.333 18.6866 119.141 19.9014 119.466 23.6426V23.6494Z" fill="#FAF6CB"/>
<path d="M201.439 52.9788H201.066C201.066 52.9788 201.246 52.965 201.439 52.9788Z" fill="#E0AD52"/>
<path d="M173.615 33.8037C168.922 33.5828 163.234 33.3896 158.575 33.431C158.326 33.431 158.071 33.431 157.823 33.431C157.519 33.2861 157.015 33.2998 156.698 33.0582C158.251 32.1264 162.571 29.1653 162.716 27.4189C164.987 27.4328 167.631 28.62 169.598 29.752C170.93 30.5182 173.636 32.1333 173.622 33.8106L173.615 33.8037Z" fill="#673105"/>
<path d="M158.575 33.4307V33.8034C158.333 33.6791 158.064 33.548 157.823 33.4307C158.071 33.4307 158.326 33.4307 158.575 33.4307Z" fill="#E0AD53"/>
<path d="M190.913 43.9578C192.148 43.9095 193.446 44.5169 194.551 45.0208C194.916 45.1864 197.167 45.9457 196.552 46.5876C196.097 47.0639 191.244 47.4159 190.161 47.7196C190.92 46.3529 190.934 45.4832 190.913 43.9578Z" fill="#663408"/>
</svg>
