<svg width="300" height="55" viewBox="0 0 300 55" fill="none" xmlns="http://www.w3.org/2000/svg">
<path d="M65.0072 25.2484V20.042H97.1603V35.6612C97.1603 37.6437 96.289 39.1164 94.5464 40.0699C93.7272 40.5277 92.8559 40.759 91.9325 40.759H76.3673V35.5526H90.545C91.1843 35.5526 91.6105 35.1986 91.8236 34.4906C91.8946 34.2451 91.9325 34.0327 91.9325 33.8534V25.2484H65.0024H65.0072Z" fill="#EC891F"/>
<path d="M127.713 20.042V35.6612C127.713 37.3605 126.932 38.7624 125.369 39.8575C124.446 40.4617 123.484 40.759 122.49 40.759H99.9637V35.5526H121.05C121.69 35.5526 122.135 35.1986 122.381 34.4906C122.452 34.2451 122.49 34.0327 122.49 33.8534V20.042H127.713ZM105.187 20.042V32.2485H99.9637V20.042H105.187Z" fill="#EC891F"/>
<path d="M130.578 25.2484V20.042H154.785C157.522 20.042 159.189 21.0332 159.795 23.0157C159.937 23.5114 160.008 24.007 160.008 24.5026C160.008 26.8391 159.369 28.4534 158.09 29.3361C157.697 29.6193 157.257 29.8506 156.76 30.0253L149.297 33.084L151.163 33.7967C154.075 34.9673 156.083 35.5479 157.186 35.5479H160.013V40.7543H157.186C155.41 40.7543 152.957 40.1171 149.832 38.8426L144.694 35.9539C144.694 35.9539 137.17 40.6458 134.205 40.7024C133.921 40.7354 133.656 40.7543 133.405 40.7543H130.578V35.5479H133.405C134.366 35.5479 136.317 34.9626 139.267 33.7967C139.338 33.7637 139.39 33.7448 139.428 33.7448L154.681 25.2437H130.578V25.2484Z" fill="#EC891F"/>
<path d="M191.167 25.2485V20.0421H214.976C214.811 20.0421 215.275 19.6692 215.521 18.9281C215.554 18.7487 215.573 18.5741 215.573 18.3947V17.4932H220.796V20.0987C220.796 23.181 219.376 24.8803 216.534 25.2013C216.212 25.2343 215.895 25.2532 215.573 25.2532H211.42V27.8021H220.796V33.0085H211.42V35.5574C211.42 37.3983 210.62 38.8522 209.024 39.9142C208.134 40.4806 207.196 40.7638 206.197 40.7638H191.167V35.5574H203.815C204.492 35.5574 205.899 35.1845 206.15 34.4435C206.183 34.2641 206.202 34.0895 206.202 33.9101V33.0085H191.172V27.8021H206.202V25.2532H191.172L191.167 25.2485Z" fill="#EC891F"/>
<path d="M223.183 30.7901V25.5837H241.712C242.74 25.5837 243.55 25.7631 244.137 26.1171C244.724 26.4711 245.07 26.9054 245.179 27.4199C245.287 27.9344 245.245 28.4442 245.259 28.9587C245.287 30.0491 241.314 35.8927 241.314 35.8927H234.761L238.199 30.7901H223.187H223.183Z" fill="#EC891F"/>
<path d="M267.937 24.229V35.6614C267.937 37.2899 267.174 38.654 265.645 39.7538C264.721 40.4288 263.741 40.7639 262.714 40.7639H247.669V35.5575H260.753C261.43 35.5575 262.411 35.1846 262.662 34.4436C262.695 34.2642 262.714 34.0895 262.714 33.9102V24.229H267.937ZM252.897 24.229V31.9843H247.674V24.229H252.897ZM260.157 24.229V31.9843H254.933V24.229H260.157Z" fill="#EC891F"/>
<path d="M230.892 22.2087L236.039 41.5994H230.816L225.669 22.2087H230.892Z" fill="#EC891F"/>
<path d="M271.289 40.7639V19.5229H276.513V27.7975L300 27.5379V32.7443L276.513 33.0039V40.7592H271.289V40.7639Z" fill="#EC891F"/>
<path d="M162.868 40.7639V19.5229H168.092V27.7975H188.302V33.0039H168.092V40.7592H162.868V40.7639Z" fill="#EC891F"/>
<path d="M36.7512 54.9999C36.7512 54.9999 34.5351 53.1213 32.9819 50.1003C30.7089 45.6916 30.0791 41.552 30.0791 41.552L23.4022 50.3411L36.7512 54.9999Z" fill="#EC891F"/>
<path d="M0 7.18889L13.0838 23.2424L38.8632 11.8855L15.6409 27.6652L21.7448 48.3162L62.7816 0L0 7.18889Z" fill="#EC891F"/>
<path d="M36.7512 54.9999C36.7512 54.9999 34.5351 53.1213 32.9819 50.1003C30.7089 45.6916 30.0791 41.552 30.0791 41.552L23.4022 50.3411L36.7512 54.9999Z" fill="#EC891F"/>
<path d="M0 7.18889L13.0838 23.2424L38.8632 11.8855L15.6409 27.6652L21.7448 48.3162L62.7816 0L0 7.18889Z" fill="#EC891F"/>
<path d="M0 7.18889L13.0838 23.2424L38.8632 11.8855L15.6409 27.6652L21.7448 48.3162L62.7816 0L0 7.18889Z" fill="#EC891F"/>
<path d="M0 7.18889L13.0838 23.2424L38.8632 11.8855L15.6409 27.6652L21.7448 48.3162L62.7816 0L0 7.18889Z" fill="#EC891F"/>
</svg>
